{"glyphs":{"0":{"ha":897,"x_min":83,"x_max":814,"o":"m 449 -15 q 175 104 267 -15 q 83 460 83 224 q 175 815 83 696 q 449 935 267 935 q 722 815 631 935 q 814 460 814 696 q 722 104 814 224 q 449 -15 631 -15 m 449 76 q 572 101 511 76 q 674 208 633 126 q 714 460 714 289 q 674 711 714 629 q 572 818 633 793 q 449 843 511 843 q 325 818 386 843 q 224 711 264 793 q 183 460 183 629 q 224 208 183 289 q 325 101 264 126 q 449 76 386 76 z "},"1":{"ha":626,"x_min":143,"x_max":428,"o":"m 328 0 l 328 822 l 143 700 l 143 818 l 314 926 l 428 926 l 428 0 l 328 0 z "},"2":{"ha":807,"x_min":107,"x_max":692,"o":"m 107 0 l 107 88 q 247 199 167 131 q 402 350 326 268 q 528 517 478 432 q 578 678 578 601 q 536 786 578 733 q 360 839 494 839 q 215 811 276 839 q 117 758 153 783 l 117 868 q 224 917 161 894 q 368 939 288 939 q 608 856 539 939 q 678 678 678 772 q 631 513 678 599 q 511 344 583 428 q 360 189 439 261 q 219 65 282 117 l 190 100 l 692 100 l 692 0 l 107 0 z "},"3":{"ha":810,"x_min":113,"x_max":701,"o":"m 360 -11 q 222 6 283 -11 q 113 47 160 24 l 113 150 q 215 108 156 126 q 347 89 274 89 q 535 135 469 89 q 601 267 601 181 q 535 399 601 353 q 342 444 468 444 l 240 444 l 240 540 l 346 540 q 501 578 447 540 q 554 689 554 617 q 498 800 554 761 q 335 839 442 839 q 222 824 272 839 q 135 790 172 808 l 135 892 q 229 925 176 911 q 346 939 282 939 q 527 901 460 939 q 624 807 594 864 q 654 689 654 750 q 624 578 654 619 q 565 519 594 538 q 535 501 535 501 q 576 478 535 501 q 660 402 618 454 q 701 264 701 350 q 668 134 701 197 q 560 30 635 71 q 360 -11 486 -11 z "},"4":{"ha":821,"x_min":53,"x_max":735,"o":"m 503 0 l 503 278 l 53 278 l 53 385 l 490 926 l 603 926 l 603 371 l 735 371 l 735 278 l 603 278 l 603 0 l 503 0 m 164 371 l 503 371 l 503 783 l 164 371 z "},"5":{"ha":786,"x_min":121,"x_max":703,"o":"m 408 -11 q 251 6 315 -11 q 143 46 186 22 l 143 150 q 235 109 171 132 q 401 86 300 86 q 540 118 497 86 q 593 196 582 150 q 604 283 604 242 q 540 446 604 414 q 401 478 475 478 q 238 456 292 478 q 183 435 183 435 l 121 499 l 168 926 l 644 926 l 644 828 l 254 828 l 228 529 l 129 513 q 256 561 181 544 q 408 578 331 578 q 543 555 475 578 q 657 469 611 532 q 703 283 703 406 q 657 98 703 161 q 543 12 611 35 q 408 -11 475 -11 z "},"6":{"ha":810,"x_min":90,"x_max":721,"o":"m 406 -11 q 169 98 249 -11 q 90 424 90 207 q 138 701 90 599 q 254 856 185 804 q 394 923 324 907 q 513 939 465 939 q 585 934 551 939 q 647 921 619 929 l 647 828 q 590 839 621 833 q 524 844 558 844 q 440 831 494 844 q 327 778 385 818 q 230 662 269 739 q 190 457 190 585 q 219 217 190 297 q 296 110 247 138 q 406 83 344 83 q 551 128 506 83 q 609 225 597 172 q 621 303 621 278 q 565 449 621 397 q 406 500 510 500 q 251 462 313 500 q 172 406 190 424 l 174 517 q 226 547 192 528 q 306 579 260 565 q 406 593 353 593 q 636 515 551 593 q 721 301 721 436 q 690 157 721 229 q 591 37 660 85 q 406 -11 522 -11 z "},"7":{"ha":797,"x_min":97,"x_max":729,"o":"m 217 0 l 632 858 l 642 826 l 97 826 l 97 926 l 729 926 l 729 833 l 328 0 l 217 0 z "},"8":{"ha":808,"x_min":85,"x_max":726,"o":"m 406 -11 q 217 33 288 -11 q 116 142 147 76 q 85 275 85 208 q 124 410 85 361 q 204 479 164 458 q 244 500 244 500 q 213 519 244 500 q 151 582 182 539 q 119 699 119 625 q 184 863 119 786 q 406 939 249 939 q 628 863 564 939 q 692 699 692 786 q 661 581 692 624 q 601 519 631 538 q 571 501 571 501 q 610 480 571 501 q 688 409 649 458 q 726 275 726 360 q 696 142 726 208 q 595 33 665 76 q 406 -11 525 -11 m 406 83 q 555 122 508 83 q 614 207 601 161 q 626 275 626 253 q 569 403 626 358 q 406 447 513 447 q 242 403 300 447 q 185 275 185 358 q 197 207 185 253 q 256 122 210 161 q 406 83 303 83 m 406 539 q 542 581 493 539 q 592 699 592 624 q 531 814 592 788 q 406 840 469 840 q 281 814 342 840 q 219 699 219 788 q 269 581 219 624 q 406 539 318 539 z "},"9":{"ha":815,"x_min":90,"x_max":721,"o":"m 299 -11 q 226 -6 260 -11 q 164 7 192 -1 l 164 100 q 222 89 190 94 q 288 83 253 83 q 372 97 317 83 q 484 149 426 110 q 581 266 542 189 q 621 471 621 343 q 592 710 621 631 q 515 817 564 790 q 406 844 467 844 q 260 800 306 844 q 202 703 214 756 q 190 625 190 650 q 406 428 190 428 q 560 466 499 428 q 639 522 621 504 l 638 411 q 585 381 619 400 q 505 349 551 363 q 406 335 458 335 q 175 413 260 335 q 90 626 90 492 q 121 771 90 699 q 220 891 151 843 q 406 939 289 939 q 642 830 563 939 q 721 504 721 721 q 674 226 721 329 q 557 72 626 124 q 417 5 488 21 q 299 -11 346 -11 z "},"A":{"ha":893,"x_min":28,"x_max":865,"o":"m 28 0 l 397 926 l 497 926 l 865 0 l 758 0 l 438 833 l 458 836 l 136 0 l 28 0 m 190 289 l 233 385 l 688 385 l 694 289 l 190 289 z "},"Á":{"ha":893,"x_min":28,"x_max":865,"o":"m 28 0 l 397 926 l 497 926 l 865 0 l 758 0 l 438 833 l 458 836 l 136 0 l 28 0 m 190 289 l 233 385 l 688 385 l 694 289 l 190 289 m 424 1017 l 503 1176 l 606 1176 l 490 1017 l 424 1017 z "},"Ă":{"ha":893,"x_min":28,"x_max":865,"o":"m 28 0 l 397 926 l 497 926 l 865 0 l 758 0 l 438 833 l 458 836 l 136 0 l 28 0 m 190 289 l 233 385 l 688 385 l 694 289 l 190 289 z "},"Ắ":{"ha":893,"x_min":28,"x_max":865,"o":"m 28 0 l 397 926 l 497 926 l 865 0 l 758 0 l 438 833 l 458 836 l 136 0 l 28 0 m 190 289 l 233 385 l 688 385 l 694 289 l 190 289 z "},"Ặ":{"ha":893,"x_min":28,"x_max":865,"o":"m 28 0 l 397 926 l 497 926 l 865 0 l 758 0 l 438 833 l 458 836 l 136 0 l 28 0 m 190 289 l 233 385 l 688 385 l 694 289 l 190 289 z "},"Ằ":{"ha":893,"x_min":28,"x_max":865,"o":"m 28 0 l 397 926 l 497 926 l 865 0 l 758 0 l 438 833 l 458 836 l 136 0 l 28 0 m 190 289 l 233 385 l 688 385 l 694 289 l 190 289 z "},"Ẳ":{"ha":893,"x_min":28,"x_max":865,"o":"m 28 0 l 397 926 l 497 926 l 865 0 l 758 0 l 438 833 l 458 836 l 136 0 l 28 0 m 190 289 l 233 385 l 688 385 l 694 289 l 190 289 z "},"Ẵ":{"ha":893,"x_min":28,"x_max":865,"o":"m 28 0 l 397 926 l 497 926 l 865 0 l 758 0 l 438 833 l 458 836 l 136 0 l 28 0 m 190 289 l 233 385 l 688 385 l 694 289 l 190 289 z "},"Ǎ":{"ha":893,"x_min":28,"x_max":865,"o":"m 28 0 l 397 926 l 497 926 l 865 0 l 758 0 l 438 833 l 458 836 l 136 0 l 28 0 m 190 289 l 233 385 l 688 385 l 694 289 l 190 289 z "},"Â":{"ha":893,"x_min":28,"x_max":865,"o":"m 28 0 l 397 926 l 497 926 l 865 0 l 758 0 l 438 833 l 458 836 l 136 0 l 28 0 m 190 289 l 233 385 l 688 385 l 694 289 l 190 289 z "},"Ấ":{"ha":893,"x_min":28,"x_max":865,"o":"m 28 0 l 397 926 l 497 926 l 865 0 l 758 0 l 438 833 l 458 836 l 136 0 l 28 0 m 190 289 l 233 385 l 688 385 l 694 289 l 190 289 z "},"Ậ":{"ha":893,"x_min":28,"x_max":865,"o":"m 28 0 l 397 926 l 497 926 l 865 0 l 758 0 l 438 833 l 458 836 l 136 0 l 28 0 m 190 289 l 233 385 l 688 385 l 694 289 l 190 289 z "},"Ầ":{"ha":893,"x_min":28,"x_max":865,"o":"m 28 0 l 397 926 l 497 926 l 865 0 l 758 0 l 438 833 l 458 836 l 136 0 l 28 0 m 190 289 l 233 385 l 688 385 l 694 289 l 190 289 z "},"Ẩ":{"ha":893,"x_min":28,"x_max":865,"o":"m 28 0 l 397 926 l 497 926 l 865 0 l 758 0 l 438 833 l 458 836 l 136 0 l 28 0 m 190 289 l 233 385 l 688 385 l 694 289 l 190 289 z "},"Ẫ":{"ha":893,"x_min":28,"x_max":865,"o":"m 28 0 l 397 926 l 497 926 l 865 0 l 758 0 l 438 833 l 458 836 l 136 0 l 28 0 m 190 289 l 233 385 l 688 385 l 694 289 l 190 289 z "},"Ȁ":{"ha":893,"x_min":28,"x_max":865,"o":"m 28 0 l 397 926 l 497 926 l 865 0 l 758 0 l 438 833 l 458 836 l 136 0 l 28 0 m 190 289 l 233 385 l 688 385 l 694 289 l 190 289 z "},"Ä":{"ha":893,"x_min":28,"x_max":865,"o":"m 28 0 l 397 926 l 497 926 l 865 0 l 758 0 l 438 833 l 458 836 l 136 0 l 28 0 m 190 289 l 233 385 l 688 385 l 694 289 l 190 289 z "},"Ȧ":{"ha":893,"x_min":28,"x_max":865,"o":"m 28 0 l 397 926 l 497 926 l 865 0 l 758 0 l 438 833 l 458 836 l 136 0 l 28 0 m 190 289 l 233 385 l 688 385 l 694 289 l 190 289 z "},"Ạ":{"ha":893,"x_min":28,"x_max":865,"o":"m 28 0 l 397 926 l 497 926 l 865 0 l 758 0 l 438 833 l 458 836 l 136 0 l 28 0 m 190 289 l 233 385 l 688 385 l 694 289 l 190 289 z "},"À":{"ha":893,"x_min":28,"x_max":865,"o":"m 28 0 l 397 926 l 497 926 l 865 0 l 758 0 l 438 833 l 458 836 l 136 0 l 28 0 m 190 289 l 233 385 l 688 385 l 694 289 l 190 289 m 422 1001 l 307 1161 l 410 1161 l 489 1001 l 422 1001 z "},"Ả":{"ha":893,"x_min":28,"x_max":865,"o":"m 28 0 l 397 926 l 497 926 l 865 0 l 758 0 l 438 833 l 458 836 l 136 0 l 28 0 m 190 289 l 233 385 l 688 385 l 694 289 l 190 289 z "},"Ȃ":{"ha":893,"x_min":28,"x_max":865,"o":"m 28 0 l 397 926 l 497 926 l 865 0 l 758 0 l 438 833 l 458 836 l 136 0 l 28 0 m 190 289 l 233 385 l 688 385 l 694 289 l 190 289 z "},"Ā":{"ha":893,"x_min":28,"x_max":865,"o":"m 28 0 l 397 926 l 497 926 l 865 0 l 758 0 l 438 833 l 458 836 l 136 0 l 28 0 m 190 289 l 233 385 l 688 385 l 694 289 l 190 289 z "},"Ą":{"ha":893,"x_min":28,"x_max":865,"o":"m 28 0 l 397 926 l 497 926 l 865 0 l 758 0 l 438 833 l 458 836 l 136 0 l 28 0 m 190 289 l 233 385 l 688 385 l 694 289 l 190 289 z "},"Å":{"ha":893,"x_min":28,"x_max":865,"o":"m 28 0 l 397 926 l 497 926 l 865 0 l 758 0 l 438 833 l 458 836 l 136 0 l 28 0 m 190 289 l 233 385 l 688 385 l 694 289 l 190 289 z "},"Ǻ":{"ha":893,"x_min":28,"x_max":865,"o":"m 28 0 l 397 926 l 497 926 l 865 0 l 758 0 l 438 833 l 458 836 l 136 0 l 28 0 m 190 289 l 233 385 l 688 385 l 694 289 l 190 289 m 424 1207 l 503 1367 l 606 1367 l 490 1207 l 424 1207 z "},"Ã":{"ha":893,"x_min":28,"x_max":865,"o":"m 28 0 l 397 926 l 497 926 l 865 0 l 758 0 l 438 833 l 458 836 l 136 0 l 28 0 m 190 289 l 233 385 l 688 385 l 694 289 l 190 289 z "},"Æ":{"ha":1329,"x_min":28,"x_max":1225,"o":"m 657 904 l 756 904 l 143 0 l 28 0 l 661 926 l 1225 926 l 1225 831 l 757 831 l 757 511 l 1168 511 l 1168 414 l 757 414 l 757 96 l 1225 96 l 1225 0 l 657 0 l 657 904 m 685 290 l 238 290 l 318 390 l 690 390 l 685 290 z "},"Ǽ":{"ha":1329,"x_min":28,"x_max":1225,"o":"m 657 904 l 756 904 l 143 0 l 28 0 l 661 926 l 1225 926 l 1225 831 l 757 831 l 757 511 l 1168 511 l 1168 414 l 757 414 l 757 96 l 1225 96 l 1225 0 l 657 0 l 657 904 m 685 290 l 238 290 l 318 390 l 690 390 l 685 290 m 914 1017 l 993 1176 l 1096 1176 l 981 1017 l 914 1017 z "},"B":{"ha":872,"x_min":118,"x_max":789,"o":"m 118 0 l 118 926 l 425 926 q 669 853 606 926 q 733 678 733 779 q 695 554 733 589 q 622 486 657 519 l 611 504 q 727 429 665 485 q 789 263 789 374 q 699 62 789 124 q 453 0 608 0 l 118 0 m 218 93 l 461 93 q 619 125 550 93 q 689 268 689 157 q 614 405 689 379 q 457 431 539 431 l 218 431 l 218 93 m 218 525 l 447 525 q 574 549 515 525 q 633 671 633 572 q 581 798 633 765 q 435 831 528 831 l 218 831 l 218 525 z "},"C":{"ha":864,"x_min":76,"x_max":788,"o":"m 506 -11 q 184 108 292 -11 q 76 464 76 228 q 506 939 76 939 q 650 921 579 939 q 788 871 721 903 l 788 775 q 655 827 722 810 q 517 844 588 844 q 260 753 340 844 q 181 464 181 661 q 260 175 181 267 q 517 83 340 83 q 655 100 588 83 q 788 151 722 117 l 788 56 q 649 7 721 25 q 506 -11 578 -11 z "},"Ć":{"ha":864,"x_min":76,"x_max":788,"o":"m 506 -11 q 184 108 292 -11 q 76 464 76 228 q 506 939 76 939 q 650 921 579 939 q 788 871 721 903 l 788 775 q 655 827 722 810 q 517 844 588 844 q 260 753 340 844 q 181 464 181 661 q 260 175 181 267 q 517 83 340 83 q 655 100 588 83 q 788 151 722 117 l 788 56 q 649 7 721 25 q 506 -11 578 -11 m 456 1017 l 535 1176 l 638 1176 l 522 1017 l 456 1017 z "},"Č":{"ha":864,"x_min":76,"x_max":788,"o":"m 506 -11 q 184 108 292 -11 q 76 464 76 228 q 506 939 76 939 q 650 921 579 939 q 788 871 721 903 l 788 775 q 655 827 722 810 q 517 844 588 844 q 260 753 340 844 q 181 464 181 661 q 260 175 181 267 q 517 83 340 83 q 655 100 588 83 q 788 151 722 117 l 788 56 q 649 7 721 25 q 506 -11 578 -11 z "},"Ç":{"ha":864,"x_min":76,"x_max":788,"o":"m 506 -11 q 184 108 292 -11 q 76 464 76 228 q 506 939 76 939 q 650 921 579 939 q 788 871 721 903 l 788 775 q 655 827 722 810 q 517 844 588 844 q 260 753 340 844 q 181 464 181 661 q 260 175 181 267 q 517 83 340 83 q 655 100 588 83 q 788 151 722 117 l 788 56 q 649 7 721 25 q 506 -11 578 -11 z "},"Ĉ":{"ha":864,"x_min":76,"x_max":788,"o":"m 506 -11 q 184 108 292 -11 q 76 464 76 228 q 506 939 76 939 q 650 921 579 939 q 788 871 721 903 l 788 775 q 655 827 722 810 q 517 844 588 844 q 260 753 340 844 q 181 464 181 661 q 260 175 181 267 q 517 83 340 83 q 655 100 588 83 q 788 151 722 117 l 788 56 q 649 7 721 25 q 506 -11 578 -11 z "},"Ċ":{"ha":864,"x_min":76,"x_max":788,"o":"m 506 -11 q 184 108 292 -11 q 76 464 76 228 q 506 939 76 939 q 650 921 579 939 q 788 871 721 903 l 788 775 q 655 827 722 810 q 517 844 588 844 q 260 753 340 844 q 181 464 181 661 q 260 175 181 267 q 517 83 340 83 q 655 100 588 83 q 788 151 722 117 l 788 56 q 649 7 721 25 q 506 -11 578 -11 z "},"D":{"ha":926,"x_min":118,"x_max":843,"o":"m 118 0 l 118 926 l 408 926 q 734 810 625 926 q 843 464 843 694 q 734 117 843 233 q 408 0 625 0 l 118 0 m 218 94 l 401 94 q 659 183 578 94 q 740 464 740 272 q 659 744 740 656 q 401 833 578 833 l 218 833 l 218 94 z "},"Ǆ":{"ha":1772,"x_min":118,"x_max":1675,"o":"m 118 0 l 118 926 l 408 926 q 734 810 625 926 q 843 464 843 694 q 734 117 843 233 q 408 0 625 0 l 118 0 m 218 94 l 401 94 q 659 183 578 94 q 740 464 740 272 q 659 744 740 656 q 401 833 578 833 l 218 833 l 218 94 z "},"Ð":{"ha":926,"x_min":10,"x_max":843,"o":"m 118 0 l 118 926 l 408 926 q 734 810 625 926 q 843 464 843 694 q 734 117 843 233 q 408 0 625 0 l 118 0 m 218 94 l 401 94 q 659 183 578 94 q 740 464 740 272 q 659 744 740 656 q 401 833 578 833 l 218 833 l 218 94 m 10 426 l 10 500 l 349 500 l 349 426 l 10 426 z "},"Ď":{"ha":926,"x_min":118,"x_max":843,"o":"m 118 0 l 118 926 l 408 926 q 734 810 625 926 q 843 464 843 694 q 734 117 843 233 q 408 0 625 0 l 118 0 m 218 94 l 401 94 q 659 183 578 94 q 740 464 740 272 q 659 744 740 656 q 401 833 578 833 l 218 833 l 218 94 z "},"Đ":{"ha":926,"x_min":10,"x_max":843,"o":"m 118 0 l 118 926 l 408 926 q 734 810 625 926 q 843 464 843 694 q 734 117 843 233 q 408 0 625 0 l 118 0 m 218 94 l 401 94 q 659 183 578 94 q 740 464 740 272 q 659 744 740 656 q 401 833 578 833 l 218 833 l 218 94 m 10 426 l 10 500 l 349 500 l 349 426 l 10 426 z "},"ǲ":{"ha":1558,"x_min":118,"x_max":1496,"o":"m 118 0 l 118 926 l 408 926 q 734 810 625 926 q 843 464 843 694 q 734 117 843 233 q 408 0 625 0 l 118 0 m 218 94 l 401 94 q 659 183 578 94 q 740 464 740 272 q 659 744 740 656 q 401 833 578 833 l 218 833 l 218 94 m 989 0 l 989 90 l 1400 638 l 1421 607 l 999 607 l 999 693 l 1496 693 l 1496 606 l 1085 63 l 1085 89 l 1496 89 l 1496 0 l 989 0 z "},"ǅ":{"ha":1558,"x_min":118,"x_max":1496,"o":"m 118 0 l 118 926 l 408 926 q 734 810 625 926 q 843 464 843 694 q 734 117 843 233 q 408 0 625 0 l 118 0 m 218 94 l 401 94 q 659 183 578 94 q 740 464 740 272 q 659 744 740 656 q 401 833 578 833 l 218 833 l 218 94 z "},"E":{"ha":807,"x_min":118,"x_max":703,"o":"m 118 0 l 118 926 l 703 926 l 703 832 l 218 832 l 218 513 l 644 513 l 644 415 l 218 415 l 218 94 l 703 94 l 703 0 l 118 0 z "},"É":{"ha":807,"x_min":118,"x_max":703,"o":"m 118 0 l 118 926 l 703 926 l 703 832 l 218 832 l 218 513 l 644 513 l 644 415 l 218 415 l 218 94 l 703 94 l 703 0 l 118 0 m 401 1017 l 481 1176 l 583 1176 l 468 1017 l 401 1017 z "},"Ĕ":{"ha":807,"x_min":118,"x_max":703,"o":"m 118 0 l 118 926 l 703 926 l 703 832 l 218 832 l 218 513 l 644 513 l 644 415 l 218 415 l 218 94 l 703 94 l 703 0 l 118 0 z "},"Ě":{"ha":807,"x_min":118,"x_max":703,"o":"m 118 0 l 118 926 l 703 926 l 703 832 l 218 832 l 218 513 l 644 513 l 644 415 l 218 415 l 218 94 l 703 94 l 703 0 l 118 0 z "},"Ḝ":{"ha":807,"x_min":118,"x_max":703,"o":"m 118 0 l 118 926 l 703 926 l 703 832 l 218 832 l 218 513 l 644 513 l 644 415 l 218 415 l 218 94 l 703 94 l 703 0 l 118 0 z "},"Ê":{"ha":807,"x_min":118,"x_max":703,"o":"m 118 0 l 118 926 l 703 926 l 703 832 l 218 832 l 218 513 l 644 513 l 644 415 l 218 415 l 218 94 l 703 94 l 703 0 l 118 0 z "},"Ế":{"ha":807,"x_min":118,"x_max":728,"o":"m 118 0 l 118 926 l 703 926 l 703 832 l 218 832 l 218 513 l 644 513 l 644 415 l 218 415 l 218 94 l 703 94 l 703 0 l 118 0 z "},"Ệ":{"ha":807,"x_min":118,"x_max":703,"o":"m 118 0 l 118 926 l 703 926 l 703 832 l 218 832 l 218 513 l 644 513 l 644 415 l 218 415 l 218 94 l 703 94 l 703 0 l 118 0 z "},"Ề":{"ha":807,"x_min":94,"x_max":703,"o":"m 118 0 l 118 926 l 703 926 l 703 832 l 218 832 l 218 513 l 644 513 l 644 415 l 218 415 l 218 94 l 703 94 l 703 0 l 118 0 z "},"Ể":{"ha":807,"x_min":118,"x_max":703,"o":"m 118 0 l 118 926 l 703 926 l 703 832 l 218 832 l 218 513 l 644 513 l 644 415 l 218 415 l 218 94 l 703 94 l 703 0 l 118 0 z "},"Ễ":{"ha":807,"x_min":118,"x_max":703,"o":"m 118 0 l 118 926 l 703 926 l 703 832 l 218 832 l 218 513 l 644 513 l 644 415 l 218 415 l 218 94 l 703 94 l 703 0 l 118 0 z "},"Ȅ":{"ha":807,"x_min":118,"x_max":703,"o":"m 118 0 l 118 926 l 703 926 l 703 832 l 218 832 l 218 513 l 644 513 l 644 415 l 218 415 l 218 94 l 703 94 l 703 0 l 118 0 z "},"Ë":{"ha":807,"x_min":118,"x_max":703,"o":"m 118 0 l 118 926 l 703 926 l 703 832 l 218 832 l 218 513 l 644 513 l 644 415 l 218 415 l 218 94 l 703 94 l 703 0 l 118 0 z "},"Ė":{"ha":807,"x_min":118,"x_max":703,"o":"m 118 0 l 118 926 l 703 926 l 703 832 l 218 832 l 218 513 l 644 513 l 644 415 l 218 415 l 218 94 l 703 94 l 703 0 l 118 0 z "},"Ẹ":{"ha":807,"x_min":118,"x_max":703,"o":"m 118 0 l 118 926 l 703 926 l 703 832 l 218 832 l 218 513 l 644 513 l 644 415 l 218 415 l 218 94 l 703 94 l 703 0 l 118 0 z "},"È":{"ha":807,"x_min":118,"x_max":703,"o":"m 118 0 l 118 926 l 703 926 l 703 832 l 218 832 l 218 513 l 644 513 l 644 415 l 218 415 l 218 94 l 703 94 l 703 0 l 118 0 m 400 1001 l 285 1161 l 388 1161 l 467 1001 l 400 1001 z "},"Ẻ":{"ha":807,"x_min":118,"x_max":703,"o":"m 118 0 l 118 926 l 703 926 l 703 832 l 218 832 l 218 513 l 644 513 l 644 415 l 218 415 l 218 94 l 703 94 l 703 0 l 118 0 z "},"Ȇ":{"ha":807,"x_min":118,"x_max":703,"o":"m 118 0 l 118 926 l 703 926 l 703 832 l 218 832 l 218 513 l 644 513 l 644 415 l 218 415 l 218 94 l 703 94 l 703 0 l 118 0 z "},"Ē":{"ha":807,"x_min":118,"x_max":703,"o":"m 118 0 l 118 926 l 703 926 l 703 832 l 218 832 l 218 513 l 644 513 l 644 415 l 218 415 l 218 94 l 703 94 l 703 0 l 118 0 z "},"Ḗ":{"ha":807,"x_min":118,"x_max":703,"o":"m 118 0 l 118 926 l 703 926 l 703 832 l 218 832 l 218 513 l 644 513 l 644 415 l 218 415 l 218 94 l 703 94 l 703 0 l 118 0 m 401 1158 l 481 1318 l 583 1318 l 468 1158 l 401 1158 z "},"Ḕ":{"ha":807,"x_min":118,"x_max":703,"o":"m 118 0 l 118 926 l 703 926 l 703 832 l 218 832 l 218 513 l 644 513 l 644 415 l 218 415 l 218 94 l 703 94 l 703 0 l 118 0 m 400 1143 l 285 1303 l 388 1303 l 467 1143 l 400 1143 z "},"Ę":{"ha":807,"x_min":118,"x_max":703,"o":"m 118 0 l 118 926 l 703 926 l 703 832 l 218 832 l 218 513 l 644 513 l 644 415 l 218 415 l 218 94 l 703 94 l 703 0 l 118 0 z "},"Ẽ":{"ha":807,"x_min":118,"x_max":703,"o":"m 118 0 l 118 926 l 703 926 l 703 832 l 218 832 l 218 513 l 644 513 l 644 415 l 218 415 l 218 94 l 703 94 l 703 0 l 118 0 z "},"F":{"ha":749,"x_min":118,"x_max":686,"o":"m 118 0 l 118 926 l 686 926 l 686 832 l 218 832 l 218 513 l 629 513 l 629 415 l 218 415 l 218 0 l 118 0 z "},"Ḟ":{"ha":744,"x_min":118,"x_max":686,"o":"m 118 0 l 118 926 l 686 926 l 686 832 l 218 832 l 218 513 l 629 513 l 629 415 l 218 415 l 218 0 l 118 0 z "},"G":{"ha":954,"x_min":83,"x_max":836,"o":"m 513 -14 q 191 107 299 -14 q 83 464 83 228 q 191 819 83 700 q 513 939 299 939 q 663 924 589 939 q 804 876 736 908 l 804 772 q 668 823 739 801 q 524 844 597 844 q 265 752 347 844 q 183 464 183 660 q 265 174 183 267 q 524 82 347 82 q 736 115 633 82 l 736 379 l 513 379 l 513 476 l 836 476 l 836 58 q 513 -14 686 -14 z "},"Ǵ":{"ha":954,"x_min":83,"x_max":836,"o":"m 513 -14 q 191 107 299 -14 q 83 464 83 228 q 191 819 83 700 q 513 939 299 939 q 663 924 589 939 q 804 876 736 908 l 804 772 q 668 823 739 801 q 524 844 597 844 q 265 752 347 844 q 183 464 183 660 q 265 174 183 267 q 524 82 347 82 q 736 115 633 82 l 736 379 l 513 379 l 513 476 l 836 476 l 836 58 q 513 -14 686 -14 m 481 1017 l 560 1176 l 663 1176 l 547 1017 l 481 1017 z "},"Ğ":{"ha":954,"x_min":83,"x_max":836,"o":"m 513 -14 q 191 107 299 -14 q 83 464 83 228 q 191 819 83 700 q 513 939 299 939 q 663 924 589 939 q 804 876 736 908 l 804 772 q 668 823 739 801 q 524 844 597 844 q 265 752 347 844 q 183 464 183 660 q 265 174 183 267 q 524 82 347 82 q 736 115 633 82 l 736 379 l 513 379 l 513 476 l 836 476 l 836 58 q 513 -14 686 -14 z "},"Ǧ":{"ha":954,"x_min":83,"x_max":836,"o":"m 513 -14 q 191 107 299 -14 q 83 464 83 228 q 191 819 83 700 q 513 939 299 939 q 663 924 589 939 q 804 876 736 908 l 804 772 q 668 823 739 801 q 524 844 597 844 q 265 752 347 844 q 183 464 183 660 q 265 174 183 267 q 524 82 347 82 q 736 115 633 82 l 736 379 l 513 379 l 513 476 l 836 476 l 836 58 q 513 -14 686 -14 z "},"Ĝ":{"ha":954,"x_min":83,"x_max":836,"o":"m 513 -14 q 191 107 299 -14 q 83 464 83 228 q 191 819 83 700 q 513 939 299 939 q 663 924 589 939 q 804 876 736 908 l 804 772 q 668 823 739 801 q 524 844 597 844 q 265 752 347 844 q 183 464 183 660 q 265 174 183 267 q 524 82 347 82 q 736 115 633 82 l 736 379 l 513 379 l 513 476 l 836 476 l 836 58 q 513 -14 686 -14 z "},"Ģ":{"ha":954,"x_min":83,"x_max":836,"o":"m 513 -14 q 191 107 299 -14 q 83 464 83 228 q 191 819 83 700 q 513 939 299 939 q 663 924 589 939 q 804 876 736 908 l 804 772 q 668 823 739 801 q 524 844 597 844 q 265 752 347 844 q 183 464 183 660 q 265 174 183 267 q 524 82 347 82 q 736 115 633 82 l 736 379 l 513 379 l 513 476 l 836 476 l 836 58 q 513 -14 686 -14 z "},"Ġ":{"ha":954,"x_min":83,"x_max":836,"o":"m 513 -14 q 191 107 299 -14 q 83 464 83 228 q 191 819 83 700 q 513 939 299 939 q 663 924 589 939 q 804 876 736 908 l 804 772 q 668 823 739 801 q 524 844 597 844 q 265 752 347 844 q 183 464 183 660 q 265 174 183 267 q 524 82 347 82 q 736 115 633 82 l 736 379 l 513 379 l 513 476 l 836 476 l 836 58 q 513 -14 686 -14 z "},"Ḡ":{"ha":954,"x_min":83,"x_max":836,"o":"m 513 -14 q 191 107 299 -14 q 83 464 83 228 q 191 819 83 700 q 513 939 299 939 q 663 924 589 939 q 804 876 736 908 l 804 772 q 668 823 739 801 q 524 844 597 844 q 265 752 347 844 q 183 464 183 660 q 265 174 183 267 q 524 82 347 82 q 736 115 633 82 l 736 379 l 513 379 l 513 476 l 836 476 l 836 58 q 513 -14 686 -14 z "},"H":{"ha":929,"x_min":118,"x_max":811,"o":"m 118 0 l 118 926 l 218 926 l 218 510 l 711 510 l 711 926 l 811 926 l 811 0 l 711 0 l 711 415 l 218 415 l 218 0 l 118 0 z "},"Ħ":{"ha":929,"x_min":49,"x_max":881,"o":"m 49 664 l 49 738 l 881 738 l 881 664 l 49 664 m 118 0 l 118 926 l 218 926 l 218 510 l 711 510 l 711 926 l 811 926 l 811 0 l 711 0 l 711 415 l 218 415 l 218 0 l 118 0 z "},"Ḫ":{"ha":929,"x_min":118,"x_max":811,"o":"m 118 0 l 118 926 l 218 926 l 218 510 l 711 510 l 711 926 l 811 926 l 811 0 l 711 0 l 711 415 l 218 415 l 218 0 l 118 0 z "},"Ĥ":{"ha":929,"x_min":118,"x_max":811,"o":"m 118 0 l 118 926 l 218 926 l 218 510 l 711 510 l 711 926 l 811 926 l 811 0 l 711 0 l 711 415 l 218 415 l 218 0 l 118 0 z "},"I":{"ha":336,"x_min":118,"x_max":218,"o":"m 118 0 l 118 926 l 218 926 l 218 0 l 118 0 z "},"Ĳ":{"ha":965,"x_min":118,"x_max":847,"o":"m 118 0 l 118 926 l 218 926 l 218 0 l 118 0 m 582 -11 q 482 2 528 -11 q 399 38 436 15 l 399 142 q 475 102 433 118 q 569 86 517 86 q 706 132 664 86 q 747 285 747 178 l 747 926 l 847 926 l 847 276 q 806 96 847 158 q 703 11 765 33 q 582 -11 642 -11 z "},"Í":{"ha":336,"x_min":118,"x_max":325,"o":"m 118 0 l 118 926 l 218 926 l 218 0 l 118 0 m 143 1017 l 222 1176 l 325 1176 l 210 1017 l 143 1017 z "},"Ĭ":{"ha":336,"x_min":-19,"x_max":356,"o":"m 118 0 l 118 926 l 218 926 l 218 0 l 118 0 z "},"Ǐ":{"ha":336,"x_min":28,"x_max":308,"o":"m 118 0 l 118 926 l 218 926 l 218 0 l 118 0 z "},"Î":{"ha":336,"x_min":14,"x_max":322,"o":"m 118 0 l 118 926 l 218 926 l 218 0 l 118 0 z "},"Ȉ":{"ha":336,"x_min":-57,"x_max":296,"o":"m 118 0 l 118 926 l 218 926 l 218 0 l 118 0 z "},"Ï":{"ha":336,"x_min":10,"x_max":325,"o":"m 118 0 l 118 926 l 218 926 l 218 0 l 118 0 z "},"Ḯ":{"ha":336,"x_min":10,"x_max":325,"o":"m 118 0 l 118 926 l 218 926 l 218 0 l 118 0 m 143 1250 l 222 1410 l 325 1410 l 210 1250 l 143 1250 z "},"İ":{"ha":336,"x_min":113,"x_max":222,"o":"m 118 0 l 118 926 l 218 926 l 218 0 l 118 0 z "},"Ị":{"ha":336,"x_min":113,"x_max":222,"o":"m 118 0 l 118 926 l 218 926 l 218 0 l 118 0 z "},"Ì":{"ha":336,"x_min":26,"x_max":218,"o":"m 118 0 l 118 926 l 218 926 l 218 0 l 118 0 m 142 1001 l 26 1161 l 129 1161 l 208 1001 l 142 1001 z "},"Ỉ":{"ha":336,"x_min":82,"x_max":253,"o":"m 118 0 l 118 926 l 218 926 l 218 0 l 118 0 z "},"Ȋ":{"ha":336,"x_min":-19,"x_max":356,"o":"m 118 0 l 118 926 l 218 926 l 218 0 l 118 0 z "},"Ī":{"ha":336,"x_min":6,"x_max":331,"o":"m 118 0 l 118 926 l 218 926 l 218 0 l 118 0 z "},"Į":{"ha":336,"x_min":8,"x_max":218,"o":"m 131 -240 q 8 -125 8 -240 q 42 -48 8 -90 q 125 15 75 -6 l 218 0 q 126 -57 163 -26 q 90 -118 90 -87 q 102 -154 90 -143 q 138 -165 114 -165 q 185 -151 164 -165 q 214 -128 206 -136 l 214 -215 q 177 -233 197 -225 q 131 -240 157 -240 m 118 0 l 118 926 l 218 926 l 218 0 l 118 0 z "},"Ĩ":{"ha":336,"x_min":-39,"x_max":386,"o":"m 118 0 l 118 926 l 218 926 l 218 0 l 118 0 z "},"J":{"ha":629,"x_min":63,"x_max":511,"o":"m 246 -11 q 146 2 192 -11 q 63 38 100 15 l 63 142 q 139 102 97 118 q 233 86 181 86 q 369 132 328 86 q 411 285 411 178 l 411 926 l 511 926 l 511 276 q 470 96 511 158 q 367 11 429 33 q 246 -11 306 -11 z "},"Ĵ":{"ha":629,"x_min":63,"x_max":622,"o":"m 246 -11 q 146 2 192 -11 q 63 38 100 15 l 63 142 q 139 102 97 118 q 233 86 181 86 q 369 132 328 86 q 411 285 411 178 l 411 926 l 511 926 l 511 276 q 470 96 511 158 q 367 11 429 33 q 246 -11 306 -11 z "},"K":{"ha":851,"x_min":118,"x_max":817,"o":"m 207 296 l 207 426 l 657 926 l 785 926 l 207 296 m 118 0 l 118 926 l 218 926 l 218 0 l 118 0 m 363 522 l 817 0 l 678 0 l 288 454 l 363 522 z "},"Ķ":{"ha":851,"x_min":118,"x_max":817,"o":"m 207 296 l 207 426 l 657 926 l 785 926 l 207 296 m 118 0 l 118 926 l 218 926 l 218 0 l 118 0 m 363 522 l 817 0 l 678 0 l 288 454 l 363 522 z "},"L":{"ha":726,"x_min":118,"x_max":692,"o":"m 118 0 l 118 926 l 218 926 l 218 97 l 692 97 l 692 0 l 118 0 z "},"Ǉ":{"ha":1356,"x_min":118,"x_max":1238,"o":"m 118 0 l 118 926 l 218 926 l 218 97 l 692 97 l 692 0 l 118 0 m 972 -11 q 872 2 918 -11 q 789 38 826 15 l 789 142 q 865 102 824 118 q 960 86 907 86 q 1096 132 1054 86 q 1138 285 1138 178 l 1138 926 l 1238 926 l 1238 276 q 1197 96 1238 158 q 1094 11 1156 33 q 972 -11 1032 -11 z "},"Ĺ":{"ha":726,"x_min":118,"x_max":692,"o":"m 118 0 l 118 926 l 218 926 l 218 97 l 692 97 l 692 0 l 118 0 m 149 1017 l 228 1176 l 331 1176 l 215 1017 l 149 1017 z "},"Ľ":{"ha":747,"x_min":118,"x_max":692,"o":"m 118 0 l 118 926 l 218 926 l 218 97 l 692 97 l 692 0 l 118 0 z "},"Ļ":{"ha":726,"x_min":118,"x_max":692,"o":"m 118 0 l 118 926 l 218 926 l 218 97 l 692 97 l 692 0 l 118 0 z "},"Ŀ":{"ha":726,"x_min":118,"x_max":692,"o":"m 118 0 l 118 926 l 218 926 l 218 97 l 692 97 l 692 0 l 118 0 m 381 404 l 381 515 l 490 515 l 490 404 l 381 404 z "},"Ḷ":{"ha":726,"x_min":118,"x_max":692,"o":"m 118 0 l 118 926 l 218 926 l 218 97 l 692 97 l 692 0 l 118 0 z "},"ǈ":{"ha":1099,"x_min":118,"x_max":988,"o":"m 118 0 l 118 926 l 218 926 l 218 97 l 692 97 l 692 0 l 118 0 m 740 -268 l 740 -175 q 856 -137 831 -172 q 882 -35 882 -103 l 882 693 l 982 693 l 982 -40 q 922 -212 982 -156 q 740 -268 863 -268 m 876 817 l 876 926 l 988 926 l 988 817 l 876 817 z "},"Ḻ":{"ha":726,"x_min":118,"x_max":692,"o":"m 118 0 l 118 926 l 218 926 l 218 97 l 692 97 l 692 0 l 118 0 z "},"Ł":{"ha":724,"x_min":18,"x_max":692,"o":"m 18 349 l 18 438 l 407 700 l 407 611 l 18 349 m 118 0 l 118 926 l 218 926 l 218 97 l 692 97 l 692 0 l 118 0 z "},"M":{"ha":1090,"x_min":118,"x_max":972,"o":"m 118 0 l 118 926 l 226 926 l 569 400 l 501 385 l 864 926 l 972 926 l 972 0 l 872 0 l 872 826 l 917 826 l 535 290 l 182 815 l 218 867 l 218 0 l 118 0 z "},"Ṃ":{"ha":1090,"x_min":118,"x_max":972,"o":"m 118 0 l 118 926 l 226 926 l 569 400 l 501 385 l 864 926 l 972 926 l 972 0 l 872 0 l 872 826 l 917 826 l 535 290 l 182 815 l 218 867 l 218 0 l 118 0 m 490 -179 l 490 -69 l 600 -69 l 600 -179 l 490 -179 z "},"N":{"ha":1003,"x_min":118,"x_max":885,"o":"m 118 0 l 118 926 l 232 926 l 810 111 l 785 72 l 785 926 l 885 926 l 885 0 l 772 0 l 172 846 l 218 889 l 218 0 l 118 0 z "},"Ǌ":{"ha":1632,"x_min":118,"x_max":1514,"o":"m 118 0 l 118 926 l 232 926 l 810 111 l 785 72 l 785 926 l 885 926 l 885 0 l 772 0 l 172 846 l 218 889 l 218 0 l 118 0 m 1249 -11 q 1149 2 1194 -11 q 1065 38 1103 15 l 1065 142 q 1142 102 1100 118 q 1236 86 1183 86 q 1372 132 1331 86 q 1414 285 1414 178 l 1414 926 l 1514 926 l 1514 276 q 1473 96 1514 158 q 1370 11 1432 33 q 1249 -11 1308 -11 z "},"Ń":{"ha":1003,"x_min":118,"x_max":885,"o":"m 118 0 l 118 926 l 232 926 l 810 111 l 785 72 l 785 926 l 885 926 l 885 0 l 772 0 l 172 846 l 218 889 l 218 0 l 118 0 m 478 1017 l 557 1176 l 660 1176 l 544 1017 l 478 1017 z "},"Ň":{"ha":1003,"x_min":118,"x_max":885,"o":"m 118 0 l 118 926 l 232 926 l 810 111 l 785 72 l 785 926 l 885 926 l 885 0 l 772 0 l 172 846 l 218 889 l 218 0 l 118 0 z "},"Ņ":{"ha":1003,"x_min":118,"x_max":885,"o":"m 118 0 l 118 926 l 232 926 l 810 111 l 785 72 l 785 926 l 885 926 l 885 0 l 772 0 l 172 846 l 218 889 l 218 0 l 118 0 z "},"Ṇ":{"ha":1003,"x_min":118,"x_max":885,"o":"m 118 0 l 118 926 l 232 926 l 810 111 l 785 72 l 785 926 l 885 926 l 885 0 l 772 0 l 172 846 l 218 889 l 218 0 l 118 0 z "},"Ŋ":{"ha":1011,"x_min":121,"x_max":886,"o":"m 644 -239 l 644 -146 q 758 -112 732 -144 q 786 -17 785 -79 l 786 40 l 813 -49 l 221 781 l 221 0 l 121 0 l 121 926 l 235 926 l 786 146 l 786 926 l 886 926 l 886 -12 q 826 -183 886 -128 q 644 -239 767 -239 z "},"Ɲ":{"ha":1040,"x_min":14,"x_max":922,"o":"m 256 -40 q 196 -212 256 -156 q 14 -268 136 -268 l 14 -175 q 130 -137 104 -172 q 156 -35 156 -103 l 156 926 l 269 926 l 847 111 l 822 72 l 822 926 l 922 926 l 922 0 l 810 0 l 210 846 l 256 889 l 256 -40 z "},"ǋ":{"ha":1375,"x_min":118,"x_max":1264,"o":"m 118 0 l 118 926 l 232 926 l 810 111 l 785 72 l 785 926 l 885 926 l 885 0 l 772 0 l 172 846 l 218 889 l 218 0 l 118 0 m 1017 -268 l 1017 -175 q 1133 -137 1107 -172 q 1158 -35 1158 -103 l 1158 693 l 1258 693 l 1258 -40 q 1199 -212 1258 -156 q 1017 -268 1139 -268 m 1153 817 l 1153 926 l 1264 926 l 1264 817 l 1153 817 z "},"Ṉ":{"ha":1003,"x_min":118,"x_max":885,"o":"m 118 0 l 118 926 l 232 926 l 810 111 l 785 72 l 785 926 l 885 926 l 885 0 l 772 0 l 172 846 l 218 889 l 218 0 l 118 0 z "},"Ñ":{"ha":1003,"x_min":118,"x_max":885,"o":"m 118 0 l 118 926 l 232 926 l 810 111 l 785 72 l 785 926 l 885 926 l 885 0 l 772 0 l 172 846 l 218 889 l 218 0 l 118 0 z "},"O":{"ha":999,"x_min":83,"x_max":915,"o":"m 499 -14 q 188 106 292 -14 q 83 463 83 226 q 188 819 83 699 q 499 939 292 939 q 810 819 706 939 q 915 463 915 699 q 810 106 915 226 q 499 -14 706 -14 m 499 81 q 738 172 664 81 q 813 463 813 264 q 738 752 813 660 q 499 844 664 844 q 260 752 335 844 q 186 463 186 660 q 260 172 186 264 q 499 81 335 81 z "},"Ó":{"ha":999,"x_min":83,"x_max":915,"o":"m 499 -14 q 188 106 292 -14 q 83 463 83 226 q 188 819 83 699 q 499 939 292 939 q 810 819 706 939 q 915 463 915 699 q 810 106 915 226 q 499 -14 706 -14 m 499 81 q 738 172 664 81 q 813 463 813 264 q 738 752 813 660 q 499 844 664 844 q 260 752 335 844 q 186 463 186 660 q 260 172 186 264 q 499 81 335 81 m 485 1017 l 564 1176 l 667 1176 l 551 1017 l 485 1017 z "},"Ŏ":{"ha":999,"x_min":83,"x_max":915,"o":"m 499 -14 q 188 106 292 -14 q 83 463 83 226 q 188 819 83 699 q 499 939 292 939 q 810 819 706 939 q 915 463 915 699 q 810 106 915 226 q 499 -14 706 -14 m 499 81 q 738 172 664 81 q 813 463 813 264 q 738 752 813 660 q 499 844 664 844 q 260 752 335 844 q 186 463 186 660 q 260 172 186 264 q 499 81 335 81 z "},"Ǒ":{"ha":999,"x_min":83,"x_max":915,"o":"m 499 -14 q 188 106 292 -14 q 83 463 83 226 q 188 819 83 699 q 499 939 292 939 q 810 819 706 939 q 915 463 915 699 q 810 106 915 226 q 499 -14 706 -14 m 499 81 q 738 172 664 81 q 813 463 813 264 q 738 752 813 660 q 499 844 664 844 q 260 752 335 844 q 186 463 186 660 q 260 172 186 264 q 499 81 335 81 z "},"Ô":{"ha":999,"x_min":83,"x_max":915,"o":"m 499 -14 q 188 106 292 -14 q 83 463 83 226 q 188 819 83 699 q 499 939 292 939 q 810 819 706 939 q 915 463 915 699 q 810 106 915 226 q 499 -14 706 -14 m 499 81 q 738 172 664 81 q 813 463 813 264 q 738 752 813 660 q 499 844 664 844 q 260 752 335 844 q 186 463 186 660 q 260 172 186 264 q 499 81 335 81 z "},"Ố":{"ha":999,"x_min":83,"x_max":915,"o":"m 499 -14 q 188 106 292 -14 q 83 463 83 226 q 188 819 83 699 q 499 939 292 939 q 810 819 706 939 q 915 463 915 699 q 810 106 915 226 q 499 -14 706 -14 m 499 81 q 738 172 664 81 q 813 463 813 264 q 738 752 813 660 q 499 844 664 844 q 260 752 335 844 q 186 463 186 660 q 260 172 186 264 q 499 81 335 81 z "},"Ộ":{"ha":999,"x_min":83,"x_max":915,"o":"m 499 -14 q 188 106 292 -14 q 83 463 83 226 q 188 819 83 699 q 499 939 292 939 q 810 819 706 939 q 915 463 915 699 q 810 106 915 226 q 499 -14 706 -14 m 499 81 q 738 172 664 81 q 813 463 813 264 q 738 752 813 660 q 499 844 664 844 q 260 752 335 844 q 186 463 186 660 q 260 172 186 264 q 499 81 335 81 z "},"Ồ":{"ha":999,"x_min":83,"x_max":915,"o":"m 499 -14 q 188 106 292 -14 q 83 463 83 226 q 188 819 83 699 q 499 939 292 939 q 810 819 706 939 q 915 463 915 699 q 810 106 915 226 q 499 -14 706 -14 m 499 81 q 738 172 664 81 q 813 463 813 264 q 738 752 813 660 q 499 844 664 844 q 260 752 335 844 q 186 463 186 660 q 260 172 186 264 q 499 81 335 81 z "},"Ổ":{"ha":999,"x_min":83,"x_max":915,"o":"m 499 -14 q 188 106 292 -14 q 83 463 83 226 q 188 819 83 699 q 499 939 292 939 q 810 819 706 939 q 915 463 915 699 q 810 106 915 226 q 499 -14 706 -14 m 499 81 q 738 172 664 81 q 813 463 813 264 q 738 752 813 660 q 499 844 664 844 q 260 752 335 844 q 186 463 186 660 q 260 172 186 264 q 499 81 335 81 z "},"Ỗ":{"ha":999,"x_min":83,"x_max":915,"o":"m 499 -14 q 188 106 292 -14 q 83 463 83 226 q 188 819 83 699 q 499 939 292 939 q 810 819 706 939 q 915 463 915 699 q 810 106 915 226 q 499 -14 706 -14 m 499 81 q 738 172 664 81 q 813 463 813 264 q 738 752 813 660 q 499 844 664 844 q 260 752 335 844 q 186 463 186 660 q 260 172 186 264 q 499 81 335 81 z "},"Ȍ":{"ha":999,"x_min":83,"x_max":915,"o":"m 499 -14 q 188 106 292 -14 q 83 463 83 226 q 188 819 83 699 q 499 939 292 939 q 810 819 706 939 q 915 463 915 699 q 810 106 915 226 q 499 -14 706 -14 m 499 81 q 738 172 664 81 q 813 463 813 264 q 738 752 813 660 q 499 844 664 844 q 260 752 335 844 q 186 463 186 660 q 260 172 186 264 q 499 81 335 81 z "},"Ö":{"ha":999,"x_min":83,"x_max":915,"o":"m 499 -14 q 188 106 292 -14 q 83 463 83 226 q 188 819 83 699 q 499 939 292 939 q 810 819 706 939 q 915 463 915 699 q 810 106 915 226 q 499 -14 706 -14 m 499 81 q 738 172 664 81 q 813 463 813 264 q 738 752 813 660 q 499 844 664 844 q 260 752 335 844 q 186 463 186 660 q 260 172 186 264 q 499 81 335 81 z "},"Ȫ":{"ha":999,"x_min":83,"x_max":915,"o":"m 499 -14 q 188 106 292 -14 q 83 463 83 226 q 188 819 83 699 q 499 939 292 939 q 810 819 706 939 q 915 463 915 699 q 810 106 915 226 q 499 -14 706 -14 m 499 81 q 738 172 664 81 q 813 463 813 264 q 738 752 813 660 q 499 844 664 844 q 260 752 335 844 q 186 463 186 660 q 260 172 186 264 q 499 81 335 81 z "},"Ȱ":{"ha":999,"x_min":83,"x_max":915,"o":"m 499 -14 q 188 106 292 -14 q 83 463 83 226 q 188 819 83 699 q 499 939 292 939 q 810 819 706 939 q 915 463 915 699 q 810 106 915 226 q 499 -14 706 -14 m 499 81 q 738 172 664 81 q 813 463 813 264 q 738 752 813 660 q 499 844 664 844 q 260 752 335 844 q 186 463 186 660 q 260 172 186 264 q 499 81 335 81 z "},"Ọ":{"ha":999,"x_min":83,"x_max":915,"o":"m 499 -14 q 188 106 292 -14 q 83 463 83 226 q 188 819 83 699 q 499 939 292 939 q 810 819 706 939 q 915 463 915 699 q 810 106 915 226 q 499 -14 706 -14 m 499 81 q 738 172 664 81 q 813 463 813 264 q 738 752 813 660 q 499 844 664 844 q 260 752 335 844 q 186 463 186 660 q 260 172 186 264 q 499 81 335 81 z "},"Ò":{"ha":999,"x_min":83,"x_max":915,"o":"m 499 -14 q 188 106 292 -14 q 83 463 83 226 q 188 819 83 699 q 499 939 292 939 q 810 819 706 939 q 915 463 915 699 q 810 106 915 226 q 499 -14 706 -14 m 499 81 q 738 172 664 81 q 813 463 813 264 q 738 752 813 660 q 499 844 664 844 q 260 752 335 844 q 186 463 186 660 q 260 172 186 264 q 499 81 335 81 m 483 1001 l 368 1161 l 471 1161 l 550 1001 l 483 1001 z "},"Ỏ":{"ha":999,"x_min":83,"x_max":915,"o":"m 499 -14 q 188 106 292 -14 q 83 463 83 226 q 188 819 83 699 q 499 939 292 939 q 810 819 706 939 q 915 463 915 699 q 810 106 915 226 q 499 -14 706 -14 m 499 81 q 738 172 664 81 q 813 463 813 264 q 738 752 813 660 q 499 844 664 844 q 260 752 335 844 q 186 463 186 660 q 260 172 186 264 q 499 81 335 81 z "},"Ơ":{"ha":999,"x_min":83,"x_max":915,"o":"m 499 -14 q 188 106 292 -14 q 83 463 83 226 q 188 819 83 699 q 499 939 292 939 q 810 819 706 939 q 915 463 915 699 q 810 106 915 226 q 499 -14 706 -14 m 499 81 q 738 172 664 81 q 813 463 813 264 q 738 752 813 660 q 499 844 664 844 q 260 752 335 844 q 186 463 186 660 q 260 172 186 264 q 499 81 335 81 z "},"Ớ":{"ha":999,"x_min":83,"x_max":915,"o":"m 499 -14 q 188 106 292 -14 q 83 463 83 226 q 188 819 83 699 q 499 939 292 939 q 810 819 706 939 q 915 463 915 699 q 810 106 915 226 q 499 -14 706 -14 m 499 81 q 738 172 664 81 q 813 463 813 264 q 738 752 813 660 q 499 844 664 844 q 260 752 335 844 q 186 463 186 660 q 260 172 186 264 q 499 81 335 81 m 485 1017 l 564 1176 l 667 1176 l 551 1017 l 485 1017 z "},"Ợ":{"ha":999,"x_min":83,"x_max":915,"o":"m 499 -14 q 188 106 292 -14 q 83 463 83 226 q 188 819 83 699 q 499 939 292 939 q 810 819 706 939 q 915 463 915 699 q 810 106 915 226 q 499 -14 706 -14 m 499 81 q 738 172 664 81 q 813 463 813 264 q 738 752 813 660 q 499 844 664 844 q 260 752 335 844 q 186 463 186 660 q 260 172 186 264 q 499 81 335 81 z "},"Ờ":{"ha":999,"x_min":83,"x_max":915,"o":"m 499 -14 q 188 106 292 -14 q 83 463 83 226 q 188 819 83 699 q 499 939 292 939 q 810 819 706 939 q 915 463 915 699 q 810 106 915 226 q 499 -14 706 -14 m 499 81 q 738 172 664 81 q 813 463 813 264 q 738 752 813 660 q 499 844 664 844 q 260 752 335 844 q 186 463 186 660 q 260 172 186 264 q 499 81 335 81 m 483 1001 l 368 1161 l 471 1161 l 550 1001 l 483 1001 z "},"Ở":{"ha":999,"x_min":83,"x_max":915,"o":"m 499 -14 q 188 106 292 -14 q 83 463 83 226 q 188 819 83 699 q 499 939 292 939 q 810 819 706 939 q 915 463 915 699 q 810 106 915 226 q 499 -14 706 -14 m 499 81 q 738 172 664 81 q 813 463 813 264 q 738 752 813 660 q 499 844 664 844 q 260 752 335 844 q 186 463 186 660 q 260 172 186 264 q 499 81 335 81 z "},"Ỡ":{"ha":999,"x_min":83,"x_max":915,"o":"m 499 -14 q 188 106 292 -14 q 83 463 83 226 q 188 819 83 699 q 499 939 292 939 q 810 819 706 939 q 915 463 915 699 q 810 106 915 226 q 499 -14 706 -14 m 499 81 q 738 172 664 81 q 813 463 813 264 q 738 752 813 660 q 499 844 664 844 q 260 752 335 844 q 186 463 186 660 q 260 172 186 264 q 499 81 335 81 z "},"Ő":{"ha":999,"x_min":83,"x_max":915,"o":"m 499 -14 q 188 106 292 -14 q 83 463 83 226 q 188 819 83 699 q 499 939 292 939 q 810 819 706 939 q 915 463 915 699 q 810 106 915 226 q 499 -14 706 -14 m 499 81 q 738 172 664 81 q 813 463 813 264 q 738 752 813 660 q 499 844 664 844 q 260 752 335 844 q 186 463 186 660 q 260 172 186 264 q 499 81 335 81 z "},"Ȏ":{"ha":999,"x_min":83,"x_max":915,"o":"m 499 -14 q 188 106 292 -14 q 83 463 83 226 q 188 819 83 699 q 499 939 292 939 q 810 819 706 939 q 915 463 915 699 q 810 106 915 226 q 499 -14 706 -14 m 499 81 q 738 172 664 81 q 813 463 813 264 q 738 752 813 660 q 499 844 664 844 q 260 752 335 844 q 186 463 186 660 q 260 172 186 264 q 499 81 335 81 z "},"Ō":{"ha":999,"x_min":83,"x_max":915,"o":"m 499 -14 q 188 106 292 -14 q 83 463 83 226 q 188 819 83 699 q 499 939 292 939 q 810 819 706 939 q 915 463 915 699 q 810 106 915 226 q 499 -14 706 -14 m 499 81 q 738 172 664 81 q 813 463 813 264 q 738 752 813 660 q 499 844 664 844 q 260 752 335 844 q 186 463 186 660 q 260 172 186 264 q 499 81 335 81 z "},"Ṓ":{"ha":999,"x_min":83,"x_max":915,"o":"m 499 -14 q 188 106 292 -14 q 83 463 83 226 q 188 819 83 699 q 499 939 292 939 q 810 819 706 939 q 915 463 915 699 q 810 106 915 226 q 499 -14 706 -14 m 499 81 q 738 172 664 81 q 813 463 813 264 q 738 752 813 660 q 499 844 664 844 q 260 752 335 844 q 186 463 186 660 q 260 172 186 264 q 499 81 335 81 m 485 1158 l 564 1318 l 667 1318 l 551 1158 l 485 1158 z "},"Ṑ":{"ha":999,"x_min":83,"x_max":915,"o":"m 499 -14 q 188 106 292 -14 q 83 463 83 226 q 188 819 83 699 q 499 939 292 939 q 810 819 706 939 q 915 463 915 699 q 810 106 915 226 q 499 -14 706 -14 m 499 81 q 738 172 664 81 q 813 463 813 264 q 738 752 813 660 q 499 844 664 844 q 260 752 335 844 q 186 463 186 660 q 260 172 186 264 q 499 81 335 81 m 483 1143 l 368 1303 l 471 1303 l 550 1143 l 483 1143 z "},"Ǫ":{"ha":999,"x_min":83,"x_max":915,"o":"m 499 -14 q 188 106 292 -14 q 83 463 83 226 q 188 819 83 699 q 499 939 292 939 q 810 819 706 939 q 915 463 915 699 q 810 106 915 226 q 499 -14 706 -14 m 499 81 q 738 172 664 81 q 813 463 813 264 q 738 752 813 660 q 499 844 664 844 q 260 752 335 844 q 186 463 186 660 q 260 172 186 264 q 499 81 335 81 z "},"Ø":{"ha":999,"x_min":79,"x_max":951,"o":"m 79 0 l 860 926 l 951 926 l 169 0 l 79 0 m 499 -14 q 188 106 292 -14 q 83 463 83 226 q 188 819 83 699 q 499 939 292 939 q 810 819 706 939 q 915 463 915 699 q 810 106 915 226 q 499 -14 706 -14 m 499 81 q 738 172 664 81 q 813 463 813 264 q 738 752 813 660 q 499 844 664 844 q 260 752 335 844 q 186 463 186 660 q 260 172 186 264 q 499 81 335 81 z "},"Ǿ":{"ha":999,"x_min":79,"x_max":951,"o":"m 79 0 l 860 926 l 951 926 l 169 0 l 79 0 m 499 -14 q 188 106 292 -14 q 83 463 83 226 q 188 819 83 699 q 499 939 292 939 q 810 819 706 939 q 915 463 915 699 q 810 106 915 226 q 499 -14 706 -14 m 499 81 q 738 172 664 81 q 813 463 813 264 q 738 752 813 660 q 499 844 664 844 q 260 752 335 844 q 186 463 186 660 q 260 172 186 264 q 499 81 335 81 m 475 1017 l 554 1176 l 657 1176 l 542 1017 l 475 1017 z "},"Õ":{"ha":999,"x_min":83,"x_max":915,"o":"m 499 -14 q 188 106 292 -14 q 83 463 83 226 q 188 819 83 699 q 499 939 292 939 q 810 819 706 939 q 915 463 915 699 q 810 106 915 226 q 499 -14 706 -14 m 499 81 q 738 172 664 81 q 813 463 813 264 q 738 752 813 660 q 499 844 664 844 q 260 752 335 844 q 186 463 186 660 q 260 172 186 264 q 499 81 335 81 z "},"Ṍ":{"ha":999,"x_min":83,"x_max":915,"o":"m 499 -14 q 188 106 292 -14 q 83 463 83 226 q 188 819 83 699 q 499 939 292 939 q 810 819 706 939 q 915 463 915 699 q 810 106 915 226 q 499 -14 706 -14 m 499 81 q 738 172 664 81 q 813 463 813 264 q 738 752 813 660 q 499 844 664 844 q 260 752 335 844 q 186 463 186 660 q 260 172 186 264 q 499 81 335 81 m 485 1271 l 564 1431 l 667 1431 l 551 1271 l 485 1271 z "},"Ṏ":{"ha":999,"x_min":83,"x_max":915,"o":"m 499 -14 q 188 106 292 -14 q 83 463 83 226 q 188 819 83 699 q 499 939 292 939 q 810 819 706 939 q 915 463 915 699 q 810 106 915 226 q 499 -14 706 -14 m 499 81 q 738 172 664 81 q 813 463 813 264 q 738 752 813 660 q 499 844 664 844 q 260 752 335 844 q 186 463 186 660 q 260 172 186 264 q 499 81 335 81 z "},"Ȭ":{"ha":999,"x_min":83,"x_max":915,"o":"m 499 -14 q 188 106 292 -14 q 83 463 83 226 q 188 819 83 699 q 499 939 292 939 q 810 819 706 939 q 915 463 915 699 q 810 106 915 226 q 499 -14 706 -14 m 499 81 q 738 172 664 81 q 813 463 813 264 q 738 752 813 660 q 499 844 664 844 q 260 752 335 844 q 186 463 186 660 q 260 172 186 264 q 499 81 335 81 z "},"Œ":{"ha":1503,"x_min":83,"x_max":1399,"o":"m 499 -14 q 188 106 292 -14 q 83 463 83 226 q 188 819 83 699 q 499 939 292 939 q 810 819 706 939 q 915 463 915 699 q 810 106 915 226 q 499 -14 706 -14 m 499 81 q 738 172 664 81 q 813 463 813 264 q 738 752 813 660 q 499 844 664 844 q 260 752 335 844 q 186 463 186 660 q 260 172 186 264 q 499 81 335 81 m 814 0 l 814 926 l 1399 926 l 1399 832 l 914 832 l 914 513 l 1340 513 l 1340 415 l 914 415 l 914 94 l 1399 94 l 1399 0 l 814 0 z "},"P":{"ha":851,"x_min":118,"x_max":768,"o":"m 218 354 l 218 0 l 118 0 l 118 926 l 447 926 q 685 853 603 926 q 768 640 768 779 q 685 428 768 501 q 447 354 603 354 l 218 354 m 218 450 l 435 450 q 588 479 539 450 q 653 552 638 508 q 668 640 668 596 q 653 728 668 685 q 588 801 638 772 q 435 831 539 831 l 218 831 l 218 450 z "},"Þ":{"ha":792,"x_min":119,"x_max":719,"o":"m 119 0 l 119 926 l 219 926 l 219 786 l 400 786 q 637 712 554 786 q 719 499 719 638 q 637 286 719 360 q 400 213 554 213 l 219 213 l 219 0 l 119 0 m 219 308 l 386 308 q 539 338 489 308 q 604 410 589 367 q 619 499 619 454 q 604 587 619 543 q 539 660 589 631 q 386 689 489 689 l 219 689 l 219 308 z "},"Q":{"ha":999,"x_min":83,"x_max":915,"o":"m 499 -14 q 188 106 292 -14 q 83 463 83 226 q 499 939 83 939 q 810 819 706 939 q 915 463 915 699 q 499 -14 915 -14 m 499 81 q 739 175 665 86 q 813 463 813 264 q 738 752 813 660 q 499 844 664 844 q 260 752 335 844 q 186 463 186 660 q 260 172 186 264 q 499 81 335 81 m 832 -39 q 867 -34 850 -39 q 914 -11 885 -29 l 914 -100 q 858 -121 883 -117 q 821 -125 833 -125 q 708 -84 757 -125 q 626 22 660 -43 q 558 138 594 85 q 444 192 521 192 q 355 168 392 192 q 289 113 318 144 l 289 213 q 352 253 311 231 q 456 276 393 276 q 615 210 553 276 q 714 72 676 144 q 774 -14 746 11 q 832 -39 801 -39 z "},"R":{"ha":876,"x_min":118,"x_max":814,"o":"m 118 0 l 118 926 l 499 926 q 703 858 633 926 q 772 657 772 790 q 699 458 772 536 q 506 379 625 379 l 547 407 l 814 0 l 696 0 l 421 425 l 471 374 l 218 374 l 218 0 l 118 0 m 218 468 l 453 468 q 620 515 568 468 q 672 650 672 561 q 633 783 672 733 q 488 832 594 832 l 218 832 l 218 468 z "},"Ŕ":{"ha":876,"x_min":118,"x_max":814,"o":"m 118 0 l 118 926 l 499 926 q 703 858 633 926 q 772 657 772 790 q 699 458 772 536 q 506 379 625 379 l 547 407 l 814 0 l 696 0 l 421 425 l 471 374 l 218 374 l 218 0 l 118 0 m 218 468 l 453 468 q 620 515 568 468 q 672 650 672 561 q 633 783 672 733 q 488 832 594 832 l 218 832 l 218 468 m 386 1017 l 465 1176 l 568 1176 l 453 1017 l 386 1017 z "},"Ř":{"ha":876,"x_min":118,"x_max":814,"o":"m 118 0 l 118 926 l 499 926 q 703 858 633 926 q 772 657 772 790 q 699 458 772 536 q 506 379 625 379 l 547 407 l 814 0 l 696 0 l 421 425 l 471 374 l 218 374 l 218 0 l 118 0 m 218 468 l 453 468 q 620 515 568 468 q 672 650 672 561 q 633 783 672 733 q 488 832 594 832 l 218 832 l 218 468 z "},"Ŗ":{"ha":876,"x_min":118,"x_max":814,"o":"m 118 0 l 118 926 l 499 926 q 703 858 633 926 q 772 657 772 790 q 699 458 772 536 q 506 379 625 379 l 547 407 l 814 0 l 696 0 l 421 425 l 471 374 l 218 374 l 218 0 l 118 0 m 218 468 l 453 468 q 620 515 568 468 q 672 650 672 561 q 633 783 672 733 q 488 832 594 832 l 218 832 l 218 468 z "},"Ȑ":{"ha":876,"x_min":118,"x_max":814,"o":"m 118 0 l 118 926 l 499 926 q 703 858 633 926 q 772 657 772 790 q 699 458 772 536 q 506 379 625 379 l 547 407 l 814 0 l 696 0 l 421 425 l 471 374 l 218 374 l 218 0 l 118 0 m 218 468 l 453 468 q 620 515 568 468 q 672 650 672 561 q 633 783 672 733 q 488 832 594 832 l 218 832 l 218 468 z "},"Ȓ":{"ha":876,"x_min":118,"x_max":814,"o":"m 118 0 l 118 926 l 499 926 q 703 858 633 926 q 772 657 772 790 q 699 458 772 536 q 506 379 625 379 l 547 407 l 814 0 l 696 0 l 421 425 l 471 374 l 218 374 l 218 0 l 118 0 m 218 468 l 453 468 q 620 515 568 468 q 672 650 672 561 q 633 783 672 733 q 488 832 594 832 l 218 832 l 218 468 z "},"Ṟ":{"ha":876,"x_min":118,"x_max":814,"o":"m 118 0 l 118 926 l 499 926 q 703 858 633 926 q 772 657 772 790 q 699 458 772 536 q 506 379 625 379 l 547 407 l 814 0 l 696 0 l 421 425 l 471 374 l 218 374 l 218 0 l 118 0 m 218 468 l 453 468 q 620 515 568 468 q 672 650 672 561 q 633 783 672 733 q 488 832 594 832 l 218 832 l 218 468 z "},"S":{"ha":771,"x_min":90,"x_max":688,"o":"m 381 -14 q 217 8 275 -14 q 90 65 158 29 l 90 174 q 210 107 135 136 q 385 78 285 78 q 538 123 490 78 q 586 238 586 168 q 518 363 586 325 q 367 433 450 401 q 244 483 303 456 q 146 560 185 510 q 107 703 107 611 q 169 860 107 779 q 390 940 231 940 q 521 923 472 940 q 633 875 569 906 l 633 772 q 530 826 579 803 q 396 849 481 849 q 251 806 294 849 q 208 710 208 764 q 265 589 208 625 q 414 522 322 553 q 541 470 478 500 q 646 388 604 440 q 688 249 688 336 q 622 71 688 156 q 381 -14 557 -14 z "},"Ś":{"ha":771,"x_min":90,"x_max":688,"o":"m 381 -14 q 217 8 275 -14 q 90 65 158 29 l 90 174 q 210 107 135 136 q 385 78 285 78 q 538 123 490 78 q 586 238 586 168 q 518 363 586 325 q 367 433 450 401 q 244 483 303 456 q 146 560 185 510 q 107 703 107 611 q 169 860 107 779 q 390 940 231 940 q 521 923 472 940 q 633 875 569 906 l 633 772 q 530 826 579 803 q 396 849 481 849 q 251 806 294 849 q 208 710 208 764 q 265 589 208 625 q 414 522 322 553 q 541 470 478 500 q 646 388 604 440 q 688 249 688 336 q 622 71 688 156 q 381 -14 557 -14 m 363 1017 l 442 1176 l 544 1176 l 429 1017 l 363 1017 z "},"Ṥ":{"ha":771,"x_min":90,"x_max":688,"o":"m 381 -14 q 217 8 275 -14 q 90 65 158 29 l 90 174 q 210 107 135 136 q 385 78 285 78 q 538 123 490 78 q 586 238 586 168 q 518 363 586 325 q 367 433 450 401 q 244 483 303 456 q 146 560 185 510 q 107 703 107 611 q 169 860 107 779 q 390 940 231 940 q 521 923 472 940 q 633 875 569 906 l 633 772 q 530 826 579 803 q 396 849 481 849 q 251 806 294 849 q 208 710 208 764 q 265 589 208 625 q 414 522 322 553 q 541 470 478 500 q 646 388 604 440 q 688 249 688 336 q 622 71 688 156 q 381 -14 557 -14 m 404 1017 l 483 1176 l 586 1176 l 471 1017 l 404 1017 z "},"Š":{"ha":771,"x_min":90,"x_max":688,"o":"m 381 -14 q 217 8 275 -14 q 90 65 158 29 l 90 174 q 210 107 135 136 q 385 78 285 78 q 538 123 490 78 q 586 238 586 168 q 518 363 586 325 q 367 433 450 401 q 244 483 303 456 q 146 560 185 510 q 107 703 107 611 q 169 860 107 779 q 390 940 231 940 q 521 923 472 940 q 633 875 569 906 l 633 772 q 530 826 579 803 q 396 849 481 849 q 251 806 294 849 q 208 710 208 764 q 265 589 208 625 q 414 522 322 553 q 541 470 478 500 q 646 388 604 440 q 688 249 688 336 q 622 71 688 156 q 381 -14 557 -14 z "},"Ṧ":{"ha":771,"x_min":90,"x_max":688,"o":"m 381 -14 q 217 8 275 -14 q 90 65 158 29 l 90 174 q 210 107 135 136 q 385 78 285 78 q 538 123 490 78 q 586 238 586 168 q 518 363 586 325 q 367 433 450 401 q 244 483 303 456 q 146 560 185 510 q 107 703 107 611 q 169 860 107 779 q 390 940 231 940 q 521 923 472 940 q 633 875 569 906 l 633 772 q 530 826 579 803 q 396 849 481 849 q 251 806 294 849 q 208 710 208 764 q 265 589 208 625 q 414 522 322 553 q 541 470 478 500 q 646 388 604 440 q 688 249 688 336 q 622 71 688 156 q 381 -14 557 -14 z "},"Ş":{"ha":771,"x_min":90,"x_max":688,"o":"m 381 -14 q 217 8 275 -14 q 90 65 158 29 l 90 174 q 210 107 135 136 q 385 78 285 78 q 538 123 490 78 q 586 238 586 168 q 518 363 586 325 q 367 433 450 401 q 244 483 303 456 q 146 560 185 510 q 107 703 107 611 q 169 860 107 779 q 390 940 231 940 q 521 923 472 940 q 633 875 569 906 l 633 772 q 530 826 579 803 q 396 849 481 849 q 251 806 294 849 q 208 710 208 764 q 265 589 208 625 q 414 522 322 553 q 541 470 478 500 q 646 388 604 440 q 688 249 688 336 q 622 71 688 156 q 381 -14 557 -14 z "},"Ŝ":{"ha":771,"x_min":90,"x_max":688,"o":"m 381 -14 q 217 8 275 -14 q 90 65 158 29 l 90 174 q 210 107 135 136 q 385 78 285 78 q 538 123 490 78 q 586 238 586 168 q 518 363 586 325 q 367 433 450 401 q 244 483 303 456 q 146 560 185 510 q 107 703 107 611 q 169 860 107 779 q 390 940 231 940 q 521 923 472 940 q 633 875 569 906 l 633 772 q 530 826 579 803 q 396 849 481 849 q 251 806 294 849 q 208 710 208 764 q 265 589 208 625 q 414 522 322 553 q 541 470 478 500 q 646 388 604 440 q 688 249 688 336 q 622 71 688 156 q 381 -14 557 -14 z "},"Ș":{"ha":771,"x_min":90,"x_max":688,"o":"m 381 -14 q 217 8 275 -14 q 90 65 158 29 l 90 174 q 210 107 135 136 q 385 78 285 78 q 538 123 490 78 q 586 238 586 168 q 518 363 586 325 q 367 433 450 401 q 244 483 303 456 q 146 560 185 510 q 107 703 107 611 q 169 860 107 779 q 390 940 231 940 q 521 923 472 940 q 633 875 569 906 l 633 772 q 530 826 579 803 q 396 849 481 849 q 251 806 294 849 q 208 710 208 764 q 265 589 208 625 q 414 522 322 553 q 541 470 478 500 q 646 388 604 440 q 688 249 688 336 q 622 71 688 156 q 381 -14 557 -14 z "},"Ṡ":{"ha":771,"x_min":90,"x_max":688,"o":"m 381 -14 q 217 8 275 -14 q 90 65 158 29 l 90 174 q 210 107 135 136 q 385 78 285 78 q 538 123 490 78 q 586 238 586 168 q 518 363 586 325 q 367 433 450 401 q 244 483 303 456 q 146 560 185 510 q 107 703 107 611 q 169 860 107 779 q 390 940 231 940 q 521 923 472 940 q 633 875 569 906 l 633 772 q 530 826 579 803 q 396 849 481 849 q 251 806 294 849 q 208 710 208 764 q 265 589 208 625 q 414 522 322 553 q 541 470 478 500 q 646 388 604 440 q 688 249 688 336 q 622 71 688 156 q 381 -14 557 -14 z "},"Ṣ":{"ha":771,"x_min":90,"x_max":688,"o":"m 381 -14 q 217 8 275 -14 q 90 65 158 29 l 90 174 q 210 107 135 136 q 385 78 285 78 q 538 123 490 78 q 586 238 586 168 q 518 363 586 325 q 367 433 450 401 q 244 483 303 456 q 146 560 185 510 q 107 703 107 611 q 169 860 107 779 q 390 940 231 940 q 521 923 472 940 q 633 875 569 906 l 633 772 q 530 826 579 803 q 396 849 481 849 q 251 806 294 849 q 208 710 208 764 q 265 589 208 625 q 414 522 322 553 q 541 470 478 500 q 646 388 604 440 q 688 249 688 336 q 622 71 688 156 q 381 -14 557 -14 z "},"Ṩ":{"ha":771,"x_min":90,"x_max":688,"o":"m 381 -14 q 217 8 275 -14 q 90 65 158 29 l 90 174 q 210 107 135 136 q 385 78 285 78 q 538 123 490 78 q 586 238 586 168 q 518 363 586 325 q 367 433 450 401 q 244 483 303 456 q 146 560 185 510 q 107 703 107 611 q 169 860 107 779 q 390 940 231 940 q 521 923 472 940 q 633 875 569 906 l 633 772 q 530 826 579 803 q 396 849 481 849 q 251 806 294 849 q 208 710 208 764 q 265 589 208 625 q 414 522 322 553 q 541 470 478 500 q 646 388 604 440 q 688 249 688 336 q 622 71 688 156 q 381 -14 557 -14 z "},"ẞ":{"ha":981,"x_min":118,"x_max":897,"o":"m 118 0 l 118 631 q 201 849 118 758 q 453 940 283 940 q 698 880 626 940 q 822 722 769 819 l 822 693 l 556 571 l 556 631 q 800 515 703 593 q 897 290 897 436 q 869 147 897 217 q 775 32 842 78 q 590 -14 708 -14 q 478 8 533 -14 q 369 65 422 29 l 369 174 q 461 107 404 136 q 594 78 518 78 q 748 134 700 78 q 796 279 796 190 q 717 461 796 400 q 497 550 639 522 l 497 625 l 754 747 l 732 710 q 644 813 711 767 q 458 860 578 860 q 278 799 339 860 q 218 640 218 739 l 218 0 l 118 0 z "},"Ə":{"ha":996,"x_min":81,"x_max":913,"o":"m 481 933 q 796 815 679 933 q 913 454 913 696 q 801 101 913 217 q 497 -15 689 -15 q 176 124 272 -15 q 83 472 81 263 l 863 472 l 856 381 l 149 381 l 188 394 q 267 154 192 232 q 497 76 342 76 q 735 158 658 76 q 811 472 811 239 q 722 749 811 657 q 475 842 632 842 q 272 810 365 842 q 126 744 179 779 l 126 847 q 284 908 193 883 q 481 933 375 933 z "},"T":{"ha":810,"x_min":28,"x_max":782,"o":"m 356 0 l 356 832 l 28 832 l 28 926 l 782 926 l 782 832 l 456 832 l 456 0 l 356 0 z "},"Ŧ":{"ha":810,"x_min":28,"x_max":782,"o":"m 356 0 l 356 832 l 28 832 l 28 926 l 782 926 l 782 832 l 456 832 l 456 0 l 356 0 m 236 426 l 236 500 l 575 500 l 575 426 l 236 426 z "},"Ť":{"ha":789,"x_min":17,"x_max":771,"o":"m 344 0 l 344 829 l 17 829 l 17 926 l 771 926 l 771 829 l 444 829 l 444 0 l 344 0 m 365 1006 l 253 1174 l 331 1174 l 394 1075 l 457 1174 l 535 1174 l 422 1006 l 365 1006 z "},"Ţ":{"ha":810,"x_min":28,"x_max":782,"o":"m 356 0 l 356 832 l 28 832 l 28 926 l 782 926 l 782 832 l 456 832 l 456 0 l 356 0 z "},"Ṯ":{"ha":810,"x_min":28,"x_max":782,"o":"m 356 0 l 356 832 l 28 832 l 28 926 l 782 926 l 782 832 l 456 832 l 456 0 l 356 0 z "},"U":{"ha":961,"x_min":118,"x_max":843,"o":"m 481 -14 q 213 88 308 -14 q 118 378 118 189 l 118 926 l 218 926 l 218 372 q 285 152 218 224 q 481 81 351 81 q 746 372 746 81 l 746 926 l 843 926 l 843 378 q 748 88 843 189 q 481 -14 653 -14 z "},"Ú":{"ha":961,"x_min":118,"x_max":843,"o":"m 481 -14 q 213 88 308 -14 q 118 378 118 189 l 118 926 l 218 926 l 218 372 q 285 152 218 224 q 481 81 351 81 q 746 372 746 81 l 746 926 l 843 926 l 843 378 q 748 88 843 189 q 481 -14 653 -14 m 456 1017 l 535 1176 l 638 1176 l 522 1017 l 456 1017 z "},"Ŭ":{"ha":961,"x_min":118,"x_max":843,"o":"m 481 -14 q 213 88 308 -14 q 118 378 118 189 l 118 926 l 218 926 l 218 372 q 285 152 218 224 q 481 81 351 81 q 746 372 746 81 l 746 926 l 843 926 l 843 378 q 748 88 843 189 q 481 -14 653 -14 z "},"Ǔ":{"ha":961,"x_min":118,"x_max":843,"o":"m 481 -14 q 213 88 308 -14 q 118 378 118 189 l 118 926 l 218 926 l 218 372 q 285 152 218 224 q 481 81 351 81 q 746 372 746 81 l 746 926 l 843 926 l 843 378 q 748 88 843 189 q 481 -14 653 -14 z "},"Û":{"ha":961,"x_min":118,"x_max":843,"o":"m 481 -14 q 213 88 308 -14 q 118 378 118 189 l 118 926 l 218 926 l 218 372 q 285 152 218 224 q 481 81 351 81 q 746 372 746 81 l 746 926 l 843 926 l 843 378 q 748 88 843 189 q 481 -14 653 -14 z "},"Ȕ":{"ha":961,"x_min":118,"x_max":843,"o":"m 481 -14 q 213 88 308 -14 q 118 378 118 189 l 118 926 l 218 926 l 218 372 q 285 152 218 224 q 481 81 351 81 q 746 372 746 81 l 746 926 l 843 926 l 843 378 q 748 88 843 189 q 481 -14 653 -14 z "},"Ü":{"ha":961,"x_min":118,"x_max":843,"o":"m 481 -14 q 213 88 308 -14 q 118 378 118 189 l 118 926 l 218 926 l 218 372 q 285 152 218 224 q 481 81 351 81 q 746 372 746 81 l 746 926 l 843 926 l 843 378 q 748 88 843 189 q 481 -14 653 -14 z "},"Ụ":{"ha":961,"x_min":118,"x_max":843,"o":"m 481 -14 q 213 88 308 -14 q 118 378 118 189 l 118 926 l 218 926 l 218 372 q 285 152 218 224 q 481 81 351 81 q 746 372 746 81 l 746 926 l 843 926 l 843 378 q 748 88 843 189 q 481 -14 653 -14 z "},"Ù":{"ha":961,"x_min":118,"x_max":843,"o":"m 481 -14 q 213 88 308 -14 q 118 378 118 189 l 118 926 l 218 926 l 218 372 q 285 152 218 224 q 481 81 351 81 q 746 372 746 81 l 746 926 l 843 926 l 843 378 q 748 88 843 189 q 481 -14 653 -14 m 454 1001 l 339 1161 l 442 1161 l 521 1001 l 454 1001 z "},"Ủ":{"ha":961,"x_min":118,"x_max":843,"o":"m 481 -14 q 213 88 308 -14 q 118 378 118 189 l 118 926 l 218 926 l 218 372 q 285 152 218 224 q 481 81 351 81 q 746 372 746 81 l 746 926 l 843 926 l 843 378 q 748 88 843 189 q 481 -14 653 -14 z "},"Ư":{"ha":1031,"x_min":118,"x_max":964,"o":"m 481 -14 q 213 88 308 -14 q 118 378 118 189 l 118 926 l 218 926 l 218 372 q 285 152 218 224 q 481 81 351 81 q 746 372 746 81 l 746 926 l 843 926 l 843 378 q 748 88 843 189 q 481 -14 653 -14 z "},"Ứ":{"ha":1031,"x_min":118,"x_max":964,"o":"m 481 -14 q 213 88 308 -14 q 118 378 118 189 l 118 926 l 218 926 l 218 372 q 285 152 218 224 q 481 81 351 81 q 746 372 746 81 l 746 926 l 843 926 l 843 378 q 748 88 843 189 q 481 -14 653 -14 m 456 1017 l 535 1176 l 638 1176 l 522 1017 l 456 1017 z "},"Ự":{"ha":1031,"x_min":118,"x_max":964,"o":"m 481 -14 q 213 88 308 -14 q 118 378 118 189 l 118 926 l 218 926 l 218 372 q 285 152 218 224 q 481 81 351 81 q 746 372 746 81 l 746 926 l 843 926 l 843 378 q 748 88 843 189 q 481 -14 653 -14 z "},"Ừ":{"ha":1031,"x_min":118,"x_max":964,"o":"m 481 -14 q 213 88 308 -14 q 118 378 118 189 l 118 926 l 218 926 l 218 372 q 285 152 218 224 q 481 81 351 81 q 746 372 746 81 l 746 926 l 843 926 l 843 378 q 748 88 843 189 q 481 -14 653 -14 m 454 1001 l 339 1161 l 442 1161 l 521 1001 l 454 1001 z "},"Ử":{"ha":1031,"x_min":118,"x_max":964,"o":"m 481 -14 q 213 88 308 -14 q 118 378 118 189 l 118 926 l 218 926 l 218 372 q 285 152 218 224 q 481 81 351 81 q 746 372 746 81 l 746 926 l 843 926 l 843 378 q 748 88 843 189 q 481 -14 653 -14 z "},"Ữ":{"ha":1031,"x_min":118,"x_max":964,"o":"m 481 -14 q 213 88 308 -14 q 118 378 118 189 l 118 926 l 218 926 l 218 372 q 285 152 218 224 q 481 81 351 81 q 746 372 746 81 l 746 926 l 843 926 l 843 378 q 748 88 843 189 q 481 -14 653 -14 z "},"Ű":{"ha":961,"x_min":118,"x_max":843,"o":"m 481 -14 q 213 88 308 -14 q 118 378 118 189 l 118 926 l 218 926 l 218 372 q 285 152 218 224 q 481 81 351 81 q 746 372 746 81 l 746 926 l 843 926 l 843 378 q 748 88 843 189 q 481 -14 653 -14 z "},"Ȗ":{"ha":961,"x_min":118,"x_max":843,"o":"m 481 -14 q 213 88 308 -14 q 118 378 118 189 l 118 926 l 218 926 l 218 372 q 285 152 218 224 q 481 81 351 81 q 746 372 746 81 l 746 926 l 843 926 l 843 378 q 748 88 843 189 q 481 -14 653 -14 z "},"Ū":{"ha":961,"x_min":118,"x_max":843,"o":"m 481 -14 q 213 88 308 -14 q 118 378 118 189 l 118 926 l 218 926 l 218 372 q 285 152 218 224 q 481 81 351 81 q 746 372 746 81 l 746 926 l 843 926 l 843 378 q 748 88 843 189 q 481 -14 653 -14 z "},"Ṻ":{"ha":961,"x_min":118,"x_max":843,"o":"m 481 -14 q 213 88 308 -14 q 118 378 118 189 l 118 926 l 218 926 l 218 372 q 285 152 218 224 q 481 81 351 81 q 746 372 746 81 l 746 926 l 843 926 l 843 378 q 748 88 843 189 q 481 -14 653 -14 z "},"Ų":{"ha":961,"x_min":118,"x_max":843,"o":"m 481 -14 q 213 88 308 -14 q 118 378 118 189 l 118 926 l 218 926 l 218 372 q 285 152 218 224 q 481 81 351 81 q 746 372 746 81 l 746 926 l 843 926 l 843 378 q 748 88 843 189 q 481 -14 653 -14 z "},"Ů":{"ha":961,"x_min":118,"x_max":843,"o":"m 481 -14 q 213 88 308 -14 q 118 378 118 189 l 118 926 l 218 926 l 218 372 q 285 152 218 224 q 481 81 351 81 q 746 372 746 81 l 746 926 l 843 926 l 843 378 q 748 88 843 189 q 481 -14 653 -14 z "},"Ũ":{"ha":961,"x_min":118,"x_max":843,"o":"m 481 -14 q 213 88 308 -14 q 118 378 118 189 l 118 926 l 218 926 l 218 372 q 285 152 218 224 q 481 81 351 81 q 746 372 746 81 l 746 926 l 843 926 l 843 378 q 748 88 843 189 q 481 -14 653 -14 z "},"Ṹ":{"ha":961,"x_min":118,"x_max":843,"o":"m 481 -14 q 213 88 308 -14 q 118 378 118 189 l 118 926 l 218 926 l 218 372 q 285 152 218 224 q 481 81 351 81 q 746 372 746 81 l 746 926 l 843 926 l 843 378 q 748 88 843 189 q 481 -14 653 -14 m 456 1271 l 535 1431 l 638 1431 l 522 1271 l 456 1271 z "},"V":{"ha":865,"x_min":28,"x_max":838,"o":"m 383 0 l 28 926 l 135 926 l 456 85 l 419 85 l 735 924 l 838 926 l 482 0 l 383 0 z "},"W":{"ha":1356,"x_min":35,"x_max":1321,"o":"m 332 0 l 35 926 l 140 926 l 406 86 l 375 86 l 628 926 l 728 926 l 989 74 l 950 74 l 1215 926 l 1321 926 l 1022 0 l 921 0 l 661 821 l 694 821 l 435 0 l 332 0 z "},"Ẃ":{"ha":1356,"x_min":35,"x_max":1321,"o":"m 332 0 l 35 926 l 140 926 l 406 86 l 375 86 l 628 926 l 728 926 l 989 74 l 950 74 l 1215 926 l 1321 926 l 1022 0 l 921 0 l 661 821 l 694 821 l 435 0 l 332 0 m 654 1017 l 733 1176 l 836 1176 l 721 1017 l 654 1017 z "},"Ŵ":{"ha":1356,"x_min":35,"x_max":1321,"o":"m 332 0 l 35 926 l 140 926 l 406 86 l 375 86 l 628 926 l 728 926 l 989 74 l 950 74 l 1215 926 l 1321 926 l 1022 0 l 921 0 l 661 821 l 694 821 l 435 0 l 332 0 z "},"Ẅ":{"ha":1356,"x_min":35,"x_max":1321,"o":"m 332 0 l 35 926 l 140 926 l 406 86 l 375 86 l 628 926 l 728 926 l 989 74 l 950 74 l 1215 926 l 1321 926 l 1022 0 l 921 0 l 661 821 l 694 821 l 435 0 l 332 0 z "},"Ẁ":{"ha":1356,"x_min":35,"x_max":1321,"o":"m 332 0 l 35 926 l 140 926 l 406 86 l 375 86 l 628 926 l 728 926 l 989 74 l 950 74 l 1215 926 l 1321 926 l 1022 0 l 921 0 l 661 821 l 694 821 l 435 0 l 332 0 m 653 1001 l 538 1161 l 640 1161 l 719 1001 l 653 1001 z "},"X":{"ha":818,"x_min":17,"x_max":796,"o":"m 796 0 l 676 0 l 25 926 l 144 926 l 796 0 m 396 539 l 668 926 l 790 926 l 460 456 l 396 539 m 436 424 l 139 0 l 17 0 l 354 482 l 436 424 z "},"Y":{"ha":831,"x_min":17,"x_max":807,"o":"m 363 0 l 363 425 l 17 926 l 138 926 l 431 493 l 399 501 l 686 926 l 807 926 l 446 401 l 463 465 l 463 0 l 363 0 z "},"Ý":{"ha":831,"x_min":17,"x_max":807,"o":"m 363 0 l 363 425 l 17 926 l 138 926 l 431 493 l 399 501 l 686 926 l 807 926 l 446 401 l 463 465 l 463 0 l 363 0 m 399 1017 l 478 1176 l 581 1176 l 465 1017 l 399 1017 z "},"Ŷ":{"ha":831,"x_min":17,"x_max":807,"o":"m 363 0 l 363 425 l 17 926 l 138 926 l 431 493 l 399 501 l 686 926 l 807 926 l 446 401 l 463 465 l 463 0 l 363 0 z "},"Ÿ":{"ha":831,"x_min":17,"x_max":807,"o":"m 363 0 l 363 425 l 17 926 l 138 926 l 431 493 l 399 501 l 686 926 l 807 926 l 446 401 l 463 465 l 463 0 l 363 0 z "},"Ẏ":{"ha":831,"x_min":17,"x_max":807,"o":"m 363 0 l 363 425 l 17 926 l 138 926 l 431 493 l 399 501 l 686 926 l 807 926 l 446 401 l 463 465 l 463 0 l 363 0 z "},"Ỵ":{"ha":831,"x_min":17,"x_max":807,"o":"m 363 0 l 363 425 l 17 926 l 138 926 l 431 493 l 399 501 l 686 926 l 807 926 l 446 401 l 463 465 l 463 0 l 363 0 z "},"Ỳ":{"ha":831,"x_min":17,"x_max":807,"o":"m 363 0 l 363 425 l 17 926 l 138 926 l 431 493 l 399 501 l 686 926 l 807 926 l 446 401 l 463 465 l 463 0 l 363 0 m 397 1001 l 282 1161 l 385 1161 l 464 1001 l 397 1001 z "},"Ỷ":{"ha":831,"x_min":17,"x_max":807,"o":"m 363 0 l 363 425 l 17 926 l 138 926 l 431 493 l 399 501 l 686 926 l 807 926 l 446 401 l 463 465 l 463 0 l 363 0 z "},"Ȳ":{"ha":831,"x_min":17,"x_max":807,"o":"m 363 0 l 363 425 l 17 926 l 138 926 l 431 493 l 399 501 l 686 926 l 807 926 l 446 401 l 463 465 l 463 0 l 363 0 z "},"Ỹ":{"ha":831,"x_min":17,"x_max":807,"o":"m 363 0 l 363 425 l 17 926 l 138 926 l 431 493 l 399 501 l 686 926 l 807 926 l 446 401 l 463 465 l 463 0 l 363 0 z "},"Z":{"ha":846,"x_min":89,"x_max":749,"o":"m 89 0 l 89 88 l 664 878 l 683 832 l 103 832 l 103 926 l 749 926 l 749 842 l 186 57 l 174 94 l 749 94 l 749 0 l 89 0 z "},"Ź":{"ha":846,"x_min":89,"x_max":749,"o":"m 89 0 l 89 88 l 664 878 l 683 832 l 103 832 l 103 926 l 749 926 l 749 842 l 186 57 l 174 94 l 749 94 l 749 0 l 89 0 m 399 1017 l 478 1176 l 581 1176 l 465 1017 l 399 1017 z "},"Ž":{"ha":846,"x_min":89,"x_max":749,"o":"m 89 0 l 89 88 l 664 878 l 683 832 l 103 832 l 103 926 l 749 926 l 749 842 l 186 57 l 174 94 l 749 94 l 749 0 l 89 0 z "},"Ż":{"ha":846,"x_min":89,"x_max":749,"o":"m 89 0 l 89 88 l 664 878 l 683 832 l 103 832 l 103 926 l 749 926 l 749 842 l 186 57 l 174 94 l 749 94 l 749 0 l 89 0 z "},"a":{"ha":769,"x_min":83,"x_max":658,"o":"m 350 -21 q 228 -3 289 -21 q 125 61 167 15 q 83 190 83 107 q 155 373 83 319 q 339 426 226 426 q 477 410 424 426 q 571 369 531 394 l 590 278 q 498 318 558 300 q 365 336 438 336 q 183 206 183 336 q 244 98 183 128 q 374 68 306 68 q 510 81 464 68 q 557 142 557 94 l 557 460 q 375 615 557 615 q 257 599 319 615 q 151 549 194 583 l 151 649 q 267 690 194 675 q 407 706 339 706 q 540 681 483 706 q 627 608 596 657 q 658 483 658 558 l 658 147 q 565 8 658 36 q 350 -21 471 -21 z "},"á":{"ha":769,"x_min":83,"x_max":658,"o":"m 350 -21 q 228 -3 289 -21 q 125 61 167 15 q 83 190 83 107 q 155 373 83 319 q 339 426 226 426 q 477 410 424 426 q 571 369 531 394 l 590 278 q 498 318 558 300 q 365 336 438 336 q 183 206 183 336 q 244 98 183 128 q 374 68 306 68 q 510 81 464 68 q 557 142 557 94 l 557 460 q 375 615 557 615 q 257 599 319 615 q 151 549 194 583 l 151 649 q 267 690 194 675 q 407 706 339 706 q 540 681 483 706 q 627 608 596 657 q 658 483 658 558 l 658 147 q 565 8 658 36 q 350 -21 471 -21 z "},"ă":{"ha":769,"x_min":83,"x_max":658,"o":"m 350 -21 q 228 -3 289 -21 q 125 61 167 15 q 83 190 83 107 q 155 373 83 319 q 339 426 226 426 q 477 410 424 426 q 571 369 531 394 l 590 278 q 498 318 558 300 q 365 336 438 336 q 183 206 183 336 q 244 98 183 128 q 374 68 306 68 q 510 81 464 68 q 557 142 557 94 l 557 460 q 375 615 557 615 q 257 599 319 615 q 151 549 194 583 l 151 649 q 267 690 194 675 q 407 706 339 706 q 540 681 483 706 q 627 608 596 657 q 658 483 658 558 l 658 147 q 565 8 658 36 q 350 -21 471 -21 z "},"ắ":{"ha":769,"x_min":83,"x_max":658,"o":"m 350 -21 q 228 -3 289 -21 q 125 61 167 15 q 83 190 83 107 q 155 373 83 319 q 339 426 226 426 q 477 410 424 426 q 571 369 531 394 l 590 278 q 498 318 558 300 q 365 336 438 336 q 183 206 183 336 q 244 98 183 128 q 374 68 306 68 q 510 81 464 68 q 557 142 557 94 l 557 460 q 375 615 557 615 q 257 599 319 615 q 151 549 194 583 l 151 649 q 267 690 194 675 q 407 706 339 706 q 540 681 483 706 q 627 608 596 657 q 658 483 658 558 l 658 147 q 565 8 658 36 q 350 -21 471 -21 z "},"ặ":{"ha":742,"x_min":83,"x_max":658,"o":"m 335 -179 l 335 -69 l 444 -69 l 444 -179 l 335 -179 m 378 749 q 232 893 232 749 l 299 893 q 378 815 299 815 q 457 893 457 815 l 524 893 q 378 749 524 749 m 350 -21 q 228 -3 289 -21 q 125 61 167 15 q 83 190 83 107 q 155 373 83 319 q 339 426 226 426 q 477 410 424 426 q 571 369 531 394 l 590 278 q 498 318 558 300 q 365 336 438 336 q 183 206 183 336 q 244 98 183 128 q 374 68 306 68 q 510 81 464 68 q 557 142 557 94 l 557 460 q 375 615 557 615 q 257 599 319 615 q 151 549 194 583 l 151 649 q 267 690 194 675 q 407 706 339 706 q 540 681 483 706 q 627 608 596 657 q 658 483 658 558 l 658 147 q 565 8 658 36 q 350 -21 471 -21 z "},"ằ":{"ha":769,"x_min":83,"x_max":658,"o":"m 350 -21 q 228 -3 289 -21 q 125 61 167 15 q 83 190 83 107 q 155 373 83 319 q 339 426 226 426 q 477 410 424 426 q 571 369 531 394 l 590 278 q 498 318 558 300 q 365 336 438 336 q 183 206 183 336 q 244 98 183 128 q 374 68 306 68 q 510 81 464 68 q 557 142 557 94 l 557 460 q 375 615 557 615 q 257 599 319 615 q 151 549 194 583 l 151 649 q 267 690 194 675 q 407 706 339 706 q 540 681 483 706 q 627 608 596 657 q 658 483 658 558 l 658 147 q 565 8 658 36 q 350 -21 471 -21 z "},"ẳ":{"ha":769,"x_min":83,"x_max":658,"o":"m 350 -21 q 228 -3 289 -21 q 125 61 167 15 q 83 190 83 107 q 155 373 83 319 q 339 426 226 426 q 477 410 424 426 q 571 369 531 394 l 590 278 q 498 318 558 300 q 365 336 438 336 q 183 206 183 336 q 244 98 183 128 q 374 68 306 68 q 510 81 464 68 q 557 142 557 94 l 557 460 q 375 615 557 615 q 257 599 319 615 q 151 549 194 583 l 151 649 q 267 690 194 675 q 407 706 339 706 q 540 681 483 706 q 627 608 596 657 q 658 483 658 558 l 658 147 q 565 8 658 36 q 350 -21 471 -21 z "},"ẵ":{"ha":769,"x_min":83,"x_max":658,"o":"m 350 -21 q 228 -3 289 -21 q 125 61 167 15 q 83 190 83 107 q 155 373 83 319 q 339 426 226 426 q 477 410 424 426 q 571 369 531 394 l 590 278 q 498 318 558 300 q 365 336 438 336 q 183 206 183 336 q 244 98 183 128 q 374 68 306 68 q 510 81 464 68 q 557 142 557 94 l 557 460 q 375 615 557 615 q 257 599 319 615 q 151 549 194 583 l 151 649 q 267 690 194 675 q 407 706 339 706 q 540 681 483 706 q 627 608 596 657 q 658 483 658 558 l 658 147 q 565 8 658 36 q 350 -21 471 -21 z "},"ǎ":{"ha":769,"x_min":83,"x_max":658,"o":"m 350 -21 q 228 -3 289 -21 q 125 61 167 15 q 83 190 83 107 q 155 373 83 319 q 339 426 226 426 q 477 410 424 426 q 571 369 531 394 l 590 278 q 498 318 558 300 q 365 336 438 336 q 183 206 183 336 q 244 98 183 128 q 374 68 306 68 q 510 81 464 68 q 557 142 557 94 l 557 460 q 375 615 557 615 q 257 599 319 615 q 151 549 194 583 l 151 649 q 267 690 194 675 q 407 706 339 706 q 540 681 483 706 q 627 608 596 657 q 658 483 658 558 l 658 147 q 565 8 658 36 q 350 -21 471 -21 z "},"â":{"ha":769,"x_min":83,"x_max":658,"o":"m 350 -21 q 228 -3 289 -21 q 125 61 167 15 q 83 190 83 107 q 155 373 83 319 q 339 426 226 426 q 477 410 424 426 q 571 369 531 394 l 590 278 q 498 318 558 300 q 365 336 438 336 q 183 206 183 336 q 244 98 183 128 q 374 68 306 68 q 510 81 464 68 q 557 142 557 94 l 557 460 q 375 615 557 615 q 257 599 319 615 q 151 549 194 583 l 151 649 q 267 690 194 675 q 407 706 339 706 q 540 681 483 706 q 627 608 596 657 q 658 483 658 558 l 658 147 q 565 8 658 36 q 350 -21 471 -21 z "},"ấ":{"ha":769,"x_min":83,"x_max":706,"o":"m 350 -21 q 228 -3 289 -21 q 125 61 167 15 q 83 190 83 107 q 155 373 83 319 q 339 426 226 426 q 477 410 424 426 q 571 369 531 394 l 590 278 q 498 318 558 300 q 365 336 438 336 q 183 206 183 336 q 244 98 183 128 q 374 68 306 68 q 510 81 464 68 q 557 142 557 94 l 557 460 q 375 615 557 615 q 257 599 319 615 q 151 549 194 583 l 151 649 q 267 690 194 675 q 407 706 339 706 q 540 681 483 706 q 627 608 596 657 q 658 483 658 558 l 658 147 q 565 8 658 36 q 350 -21 471 -21 z "},"ậ":{"ha":742,"x_min":83,"x_max":658,"o":"m 335 -179 l 335 -69 l 444 -69 l 444 -179 l 335 -179 m 350 -21 q 228 -3 289 -21 q 125 61 167 15 q 83 190 83 107 q 155 373 83 319 q 339 426 226 426 q 477 410 424 426 q 571 369 531 394 l 590 278 q 498 318 558 300 q 365 336 438 336 q 183 206 183 336 q 244 98 183 128 q 374 68 306 68 q 510 81 464 68 q 557 142 557 94 l 557 460 q 375 615 557 615 q 257 599 319 615 q 151 549 194 583 l 151 649 q 267 690 194 675 q 407 706 339 706 q 540 681 483 706 q 627 608 596 657 q 658 483 658 558 l 658 147 q 565 8 658 36 q 350 -21 471 -21 z "},"ầ":{"ha":769,"x_min":72,"x_max":658,"o":"m 350 -21 q 228 -3 289 -21 q 125 61 167 15 q 83 190 83 107 q 155 373 83 319 q 339 426 226 426 q 477 410 424 426 q 571 369 531 394 l 590 278 q 498 318 558 300 q 365 336 438 336 q 183 206 183 336 q 244 98 183 128 q 374 68 306 68 q 510 81 464 68 q 557 142 557 94 l 557 460 q 375 615 557 615 q 257 599 319 615 q 151 549 194 583 l 151 649 q 267 690 194 675 q 407 706 339 706 q 540 681 483 706 q 627 608 596 657 q 658 483 658 558 l 658 147 q 565 8 658 36 q 350 -21 471 -21 z "},"ẩ":{"ha":769,"x_min":83,"x_max":676,"o":"m 350 -21 q 228 -3 289 -21 q 125 61 167 15 q 83 190 83 107 q 155 373 83 319 q 339 426 226 426 q 477 410 424 426 q 571 369 531 394 l 590 278 q 498 318 558 300 q 365 336 438 336 q 183 206 183 336 q 244 98 183 128 q 374 68 306 68 q 510 81 464 68 q 557 142 557 94 l 557 460 q 375 615 557 615 q 257 599 319 615 q 151 549 194 583 l 151 649 q 267 690 194 675 q 407 706 339 706 q 540 681 483 706 q 627 608 596 657 q 658 483 658 558 l 658 147 q 565 8 658 36 q 350 -21 471 -21 z "},"ẫ":{"ha":769,"x_min":83,"x_max":658,"o":"m 350 -21 q 228 -3 289 -21 q 125 61 167 15 q 83 190 83 107 q 155 373 83 319 q 339 426 226 426 q 477 410 424 426 q 571 369 531 394 l 590 278 q 498 318 558 300 q 365 336 438 336 q 183 206 183 336 q 244 98 183 128 q 374 68 306 68 q 510 81 464 68 q 557 142 557 94 l 557 460 q 375 615 557 615 q 257 599 319 615 q 151 549 194 583 l 151 649 q 267 690 194 675 q 407 706 339 706 q 540 681 483 706 q 627 608 596 657 q 658 483 658 558 l 658 147 q 565 8 658 36 q 350 -21 471 -21 z "},"ȁ":{"ha":769,"x_min":83,"x_max":658,"o":"m 350 -21 q 228 -3 289 -21 q 125 61 167 15 q 83 190 83 107 q 155 373 83 319 q 339 426 226 426 q 477 410 424 426 q 571 369 531 394 l 590 278 q 498 318 558 300 q 365 336 438 336 q 183 206 183 336 q 244 98 183 128 q 374 68 306 68 q 510 81 464 68 q 557 142 557 94 l 557 460 q 375 615 557 615 q 257 599 319 615 q 151 549 194 583 l 151 649 q 267 690 194 675 q 407 706 339 706 q 540 681 483 706 q 627 608 596 657 q 658 483 658 558 l 658 147 q 565 8 658 36 q 350 -21 471 -21 z "},"ä":{"ha":769,"x_min":83,"x_max":658,"o":"m 350 -21 q 228 -3 289 -21 q 125 61 167 15 q 83 190 83 107 q 155 373 83 319 q 339 426 226 426 q 477 410 424 426 q 571 369 531 394 l 590 278 q 498 318 558 300 q 365 336 438 336 q 183 206 183 336 q 244 98 183 128 q 374 68 306 68 q 510 81 464 68 q 557 142 557 94 l 557 460 q 375 615 557 615 q 257 599 319 615 q 151 549 194 583 l 151 649 q 267 690 194 675 q 407 706 339 706 q 540 681 483 706 q 627 608 596 657 q 658 483 658 558 l 658 147 q 565 8 658 36 q 350 -21 471 -21 z "},"ạ":{"ha":742,"x_min":83,"x_max":658,"o":"m 335 -179 l 335 -69 l 444 -69 l 444 -179 l 335 -179 m 350 -21 q 228 -3 289 -21 q 125 61 167 15 q 83 190 83 107 q 155 373 83 319 q 339 426 226 426 q 477 410 424 426 q 571 369 531 394 l 590 278 q 498 318 558 300 q 365 336 438 336 q 183 206 183 336 q 244 98 183 128 q 374 68 306 68 q 510 81 464 68 q 557 142 557 94 l 557 460 q 375 615 557 615 q 257 599 319 615 q 151 549 194 583 l 151 649 q 267 690 194 675 q 407 706 339 706 q 540 681 483 706 q 627 608 596 657 q 658 483 658 558 l 658 147 q 565 8 658 36 q 350 -21 471 -21 z "},"à":{"ha":769,"x_min":83,"x_max":658,"o":"m 350 -21 q 228 -3 289 -21 q 125 61 167 15 q 83 190 83 107 q 155 373 83 319 q 339 426 226 426 q 477 410 424 426 q 571 369 531 394 l 590 278 q 498 318 558 300 q 365 336 438 336 q 183 206 183 336 q 244 98 183 128 q 374 68 306 68 q 510 81 464 68 q 557 142 557 94 l 557 460 q 375 615 557 615 q 257 599 319 615 q 151 549 194 583 l 151 649 q 267 690 194 675 q 407 706 339 706 q 540 681 483 706 q 627 608 596 657 q 658 483 658 558 l 658 147 q 565 8 658 36 q 350 -21 471 -21 z "},"ả":{"ha":769,"x_min":83,"x_max":658,"o":"m 350 -21 q 228 -3 289 -21 q 125 61 167 15 q 83 190 83 107 q 155 373 83 319 q 339 426 226 426 q 477 410 424 426 q 571 369 531 394 l 590 278 q 498 318 558 300 q 365 336 438 336 q 183 206 183 336 q 244 98 183 128 q 374 68 306 68 q 510 81 464 68 q 557 142 557 94 l 557 460 q 375 615 557 615 q 257 599 319 615 q 151 549 194 583 l 151 649 q 267 690 194 675 q 407 706 339 706 q 540 681 483 706 q 627 608 596 657 q 658 483 658 558 l 658 147 q 565 8 658 36 q 350 -21 471 -21 m 369 781 l 369 853 q 422 886 422 854 q 356 922 422 922 q 318 919 340 922 l 318 979 q 340 982 329 981 q 361 983 350 983 q 447 964 404 983 q 489 889 489 944 q 415 814 489 828 l 415 781 l 369 781 z "},"ȃ":{"ha":769,"x_min":83,"x_max":658,"o":"m 350 -21 q 228 -3 289 -21 q 125 61 167 15 q 83 190 83 107 q 155 373 83 319 q 339 426 226 426 q 477 410 424 426 q 571 369 531 394 l 590 278 q 498 318 558 300 q 365 336 438 336 q 183 206 183 336 q 244 98 183 128 q 374 68 306 68 q 510 81 464 68 q 557 142 557 94 l 557 460 q 375 615 557 615 q 257 599 319 615 q 151 549 194 583 l 151 649 q 267 690 194 675 q 407 706 339 706 q 540 681 483 706 q 627 608 596 657 q 658 483 658 558 l 658 147 q 565 8 658 36 q 350 -21 471 -21 z "},"ā":{"ha":769,"x_min":83,"x_max":658,"o":"m 350 -21 q 228 -3 289 -21 q 125 61 167 15 q 83 190 83 107 q 155 373 83 319 q 339 426 226 426 q 477 410 424 426 q 571 369 531 394 l 590 278 q 498 318 558 300 q 365 336 438 336 q 183 206 183 336 q 244 98 183 128 q 374 68 306 68 q 510 81 464 68 q 557 142 557 94 l 557 460 q 375 615 557 615 q 257 599 319 615 q 151 549 194 583 l 151 649 q 267 690 194 675 q 407 706 339 706 q 540 681 483 706 q 627 608 596 657 q 658 483 658 558 l 658 147 q 565 8 658 36 q 350 -21 471 -21 z "},"ą":{"ha":769,"x_min":83,"x_max":658,"o":"m 350 -21 q 228 -3 289 -21 q 125 61 167 15 q 83 190 83 107 q 155 373 83 319 q 339 426 226 426 q 477 410 424 426 q 571 369 531 394 l 590 278 q 498 318 558 300 q 365 336 438 336 q 183 206 183 336 q 244 98 183 128 q 374 68 306 68 q 510 81 464 68 q 557 142 557 94 l 557 460 q 375 615 557 615 q 257 599 319 615 q 151 549 194 583 l 151 649 q 267 690 194 675 q 407 706 339 706 q 540 681 483 706 q 627 608 596 657 q 658 483 658 558 l 658 147 q 565 8 658 36 q 350 -21 471 -21 z "},"å":{"ha":769,"x_min":83,"x_max":658,"o":"m 350 -21 q 228 -3 289 -21 q 125 61 167 15 q 83 190 83 107 q 155 373 83 319 q 339 426 226 426 q 477 410 424 426 q 571 369 531 394 l 590 278 q 498 318 558 300 q 365 336 438 336 q 183 206 183 336 q 244 98 183 128 q 374 68 306 68 q 510 81 464 68 q 557 142 557 94 l 557 460 q 375 615 557 615 q 257 599 319 615 q 151 549 194 583 l 151 649 q 267 690 194 675 q 407 706 339 706 q 540 681 483 706 q 627 608 596 657 q 658 483 658 558 l 658 147 q 565 8 658 36 q 350 -21 471 -21 z "},"ǻ":{"ha":769,"x_min":83,"x_max":658,"o":"m 350 -21 q 228 -3 289 -21 q 125 61 167 15 q 83 190 83 107 q 155 373 83 319 q 339 426 226 426 q 477 410 424 426 q 571 369 531 394 l 590 278 q 498 318 558 300 q 365 336 438 336 q 183 206 183 336 q 244 98 183 128 q 374 68 306 68 q 510 81 464 68 q 557 142 557 94 l 557 460 q 375 615 557 615 q 257 599 319 615 q 151 549 194 583 l 151 649 q 267 690 194 675 q 407 706 339 706 q 540 681 483 706 q 627 608 596 657 q 658 483 658 558 l 658 147 q 565 8 658 36 q 350 -21 471 -21 z "},"ã":{"ha":769,"x_min":83,"x_max":658,"o":"m 350 -21 q 228 -3 289 -21 q 125 61 167 15 q 83 190 83 107 q 155 373 83 319 q 339 426 226 426 q 477 410 424 426 q 571 369 531 394 l 590 278 q 498 318 558 300 q 365 336 438 336 q 183 206 183 336 q 244 98 183 128 q 374 68 306 68 q 510 81 464 68 q 557 142 557 94 l 557 460 q 375 615 557 615 q 257 599 319 615 q 151 549 194 583 l 151 649 q 267 690 194 675 q 407 706 339 706 q 540 681 483 706 q 627 608 596 657 q 658 483 658 558 l 658 147 q 565 8 658 36 q 350 -21 471 -21 z "},"æ":{"ha":1240,"x_min":83,"x_max":1167,"o":"m 646 86 q 538 15 604 50 q 374 -21 472 -21 q 164 28 244 -21 q 83 190 83 78 q 170 376 83 325 q 376 426 257 426 q 482 415 433 426 q 571 378 531 403 l 590 278 q 498 318 558 300 q 365 336 438 336 q 183 199 183 336 q 243 97 183 125 q 374 68 303 68 q 502 90 439 68 q 600 153 565 113 l 646 86 m 557 338 l 557 460 q 375 615 557 615 q 257 599 319 615 q 151 549 194 583 l 151 649 q 267 690 194 675 q 407 706 339 706 q 540 681 483 706 q 627 608 596 657 q 658 483 658 558 l 658 329 q 717 137 658 203 q 883 71 776 71 q 1019 88 960 71 q 1121 131 1078 104 l 1121 28 q 1010 -8 1071 4 q 878 -21 950 -21 q 643 67 729 -21 q 557 338 557 154 m 557 347 q 638 616 557 526 q 861 706 719 706 q 1097 597 1028 706 q 1164 329 1167 489 l 607 329 l 614 421 l 1099 421 l 1060 407 q 1007 563 1056 511 q 861 614 958 614 q 708 555 758 614 q 658 329 658 496 l 557 347 z "},"ǽ":{"ha":1240,"x_min":83,"x_max":1167,"o":"m 646 86 q 538 15 604 50 q 374 -21 472 -21 q 164 28 244 -21 q 83 190 83 78 q 170 376 83 325 q 376 426 257 426 q 482 415 433 426 q 571 378 531 403 l 590 278 q 498 318 558 300 q 365 336 438 336 q 183 199 183 336 q 243 97 183 125 q 374 68 303 68 q 502 90 439 68 q 600 153 565 113 l 646 86 m 557 338 l 557 460 q 375 615 557 615 q 257 599 319 615 q 151 549 194 583 l 151 649 q 267 690 194 675 q 407 706 339 706 q 540 681 483 706 q 627 608 596 657 q 658 483 658 558 l 658 329 q 717 137 658 203 q 883 71 776 71 q 1019 88 960 71 q 1121 131 1078 104 l 1121 28 q 1010 -8 1071 4 q 878 -21 950 -21 q 643 67 729 -21 q 557 338 557 154 m 557 347 q 638 616 557 526 q 861 706 719 706 q 1097 597 1028 706 q 1164 329 1167 489 l 607 329 l 614 421 l 1099 421 l 1060 407 q 1007 563 1056 511 q 861 614 958 614 q 708 555 758 614 q 658 329 658 496 l 557 347 z "},"b":{"ha":790,"x_min":111,"x_max":714,"o":"m 385 -21 q 250 -9 313 -21 q 149 33 188 3 q 111 118 111 64 l 111 986 l 211 986 l 211 614 l 176 649 q 284 687 217 669 q 397 704 351 704 q 636 610 558 704 q 714 356 714 517 q 660 116 714 197 q 531 6 607 35 q 385 -21 454 -22 m 375 71 q 565 157 522 71 q 608 356 608 243 q 560 541 608 469 q 397 613 511 613 q 303 601 353 613 q 211 564 254 589 l 211 142 q 268 83 211 96 q 375 71 325 71 z "},"c":{"ha":683,"x_min":76,"x_max":607,"o":"m 401 -11 q 252 17 328 -11 q 126 122 176 44 q 76 347 76 199 q 126 572 76 494 q 252 678 176 650 q 401 706 328 706 q 506 696 454 706 q 607 667 558 686 l 607 571 q 513 599 561 589 q 413 610 464 610 q 233 547 289 610 q 176 347 176 485 q 233 147 176 208 q 413 85 289 85 q 513 94 464 85 q 607 124 561 104 l 607 26 q 506 -1 558 8 q 401 -11 454 -11 z "},"ć":{"ha":683,"x_min":76,"x_max":607,"o":"m 401 -11 q 252 17 328 -11 q 126 122 176 44 q 76 347 76 199 q 126 572 76 494 q 252 678 176 650 q 401 706 328 706 q 506 696 454 706 q 607 667 558 686 l 607 571 q 513 599 561 589 q 413 610 464 610 q 233 547 289 610 q 176 347 176 485 q 233 147 176 208 q 413 85 289 85 q 513 94 464 85 q 607 124 561 104 l 607 26 q 506 -1 558 8 q 401 -11 454 -11 z "},"č":{"ha":683,"x_min":76,"x_max":607,"o":"m 401 -11 q 252 17 328 -11 q 126 122 176 44 q 76 347 76 199 q 126 572 76 494 q 252 678 176 650 q 401 706 328 706 q 506 696 454 706 q 607 667 558 686 l 607 571 q 513 599 561 589 q 413 610 464 610 q 233 547 289 610 q 176 347 176 485 q 233 147 176 208 q 413 85 289 85 q 513 94 464 85 q 607 124 561 104 l 607 26 q 506 -1 558 8 q 401 -11 454 -11 z "},"ç":{"ha":683,"x_min":76,"x_max":607,"o":"m 401 -11 q 252 17 328 -11 q 126 122 176 44 q 76 347 76 199 q 126 572 76 494 q 252 678 176 650 q 401 706 328 706 q 506 696 454 706 q 607 667 558 686 l 607 571 q 513 599 561 589 q 413 610 464 610 q 233 547 289 610 q 176 347 176 485 q 233 147 176 208 q 413 85 289 85 q 513 94 464 85 q 607 124 561 104 l 607 26 q 506 -1 558 8 q 401 -11 454 -11 z "},"ḉ":{"ha":683,"x_min":76,"x_max":607,"o":"m 401 -11 q 252 17 328 -11 q 126 122 176 44 q 76 347 76 199 q 126 572 76 494 q 252 678 176 650 q 401 706 328 706 q 506 696 454 706 q 607 667 558 686 l 607 571 q 513 599 561 589 q 413 610 464 610 q 233 547 289 610 q 176 347 176 485 q 233 147 176 208 q 413 85 289 85 q 513 94 464 85 q 607 124 561 104 l 607 26 q 506 -1 558 8 q 401 -11 454 -11 z "},"ĉ":{"ha":683,"x_min":76,"x_max":607,"o":"m 401 -11 q 252 17 328 -11 q 126 122 176 44 q 76 347 76 199 q 126 572 76 494 q 252 678 176 650 q 401 706 328 706 q 506 696 454 706 q 607 667 558 686 l 607 571 q 513 599 561 589 q 413 610 464 610 q 233 547 289 610 q 176 347 176 485 q 233 147 176 208 q 413 85 289 85 q 513 94 464 85 q 607 124 561 104 l 607 26 q 506 -1 558 8 q 401 -11 454 -11 z "},"ċ":{"ha":683,"x_min":76,"x_max":607,"o":"m 401 -11 q 252 17 328 -11 q 126 122 176 44 q 76 347 76 199 q 126 572 76 494 q 252 678 176 650 q 401 706 328 706 q 506 696 454 706 q 607 667 558 686 l 607 571 q 513 599 561 589 q 413 610 464 610 q 233 547 289 610 q 176 347 176 485 q 233 147 176 208 q 413 85 289 85 q 513 94 464 85 q 607 124 561 104 l 607 26 q 506 -1 558 8 q 401 -11 454 -11 z "},"d":{"ha":790,"x_min":76,"x_max":679,"o":"m 399 -21 q 258 6 333 -22 q 131 116 183 35 q 76 356 78 197 q 155 610 76 517 q 393 704 233 704 q 506 687 439 704 q 614 649 574 669 l 579 614 l 579 986 l 679 986 l 679 119 q 633 37 679 67 q 521 -6 586 7 q 399 -21 456 -19 m 400 71 q 526 88 472 71 q 579 129 579 104 l 579 564 q 486 601 536 589 q 393 613 436 613 q 231 541 279 613 q 182 356 182 469 q 223 157 182 243 q 400 71 264 71 z "},"ð":{"ha":788,"x_min":76,"x_max":711,"o":"m 396 -21 q 155 76 233 -21 q 76 344 76 172 q 159 615 76 525 q 393 706 242 706 q 511 678 461 706 q 600 606 561 651 l 619 514 q 527 586 588 558 q 394 614 467 614 q 223 536 269 614 q 176 344 176 458 q 225 147 176 222 q 394 71 274 71 q 546 127 483 71 q 611 376 608 183 q 556 603 611 497 q 417 798 501 710 q 242 953 332 886 l 242 957 l 400 957 q 521 831 447 911 q 653 636 594 750 q 711 376 711 522 q 632 87 711 194 q 396 -21 553 -21 m 240 763 l 228 842 l 619 906 l 631 826 l 240 763 z "},"ď":{"ha":790,"x_min":76,"x_max":958,"o":"m 399 -21 q 258 6 333 -22 q 131 116 183 35 q 76 356 78 197 q 155 610 76 517 q 393 704 233 704 q 506 687 439 704 q 614 649 574 669 l 579 614 l 579 986 l 679 986 l 679 119 q 633 37 679 67 q 521 -6 586 7 q 399 -21 456 -19 m 400 71 q 526 88 472 71 q 579 129 579 104 l 579 564 q 486 601 536 589 q 393 613 436 613 q 231 541 279 613 q 182 356 182 469 q 223 157 182 243 q 400 71 264 71 z "},"đ":{"ha":790,"x_min":76,"x_max":769,"o":"m 399 -21 q 258 6 333 -22 q 131 116 183 35 q 76 356 78 197 q 155 610 76 517 q 393 704 233 704 q 506 687 439 704 q 614 649 574 669 l 579 614 l 579 986 l 679 986 l 679 119 q 633 37 679 67 q 521 -6 586 7 q 399 -21 456 -19 m 400 71 q 526 88 472 71 q 579 129 579 104 l 579 564 q 486 601 536 589 q 393 613 436 613 q 231 541 279 613 q 182 356 182 469 q 223 157 182 243 q 400 71 264 71 m 431 801 l 431 875 l 769 875 l 769 801 l 431 801 z "},"ḏ":{"ha":790,"x_min":76,"x_max":679,"o":"m 399 -21 q 258 6 333 -22 q 131 116 183 35 q 76 356 78 197 q 155 610 76 517 q 393 704 233 704 q 506 687 439 704 q 614 649 574 669 l 579 614 l 579 986 l 679 986 l 679 119 q 633 37 679 67 q 521 -6 586 7 q 399 -21 456 -19 m 400 71 q 526 88 472 71 q 579 129 579 104 l 579 564 q 486 601 536 589 q 393 613 436 613 q 231 541 279 613 q 182 356 182 469 q 223 157 182 243 q 400 71 264 71 z "},"ǆ":{"ha":1422,"x_min":76,"x_max":1360,"o":"m 399 -21 q 258 6 333 -22 q 131 116 183 35 q 76 356 78 197 q 155 610 76 517 q 393 704 233 704 q 506 687 439 704 q 614 649 574 669 l 579 614 l 579 986 l 679 986 l 679 119 q 633 37 679 67 q 521 -6 586 7 q 399 -21 456 -19 m 400 71 q 526 88 472 71 q 579 129 579 104 l 579 564 q 486 601 536 589 q 393 613 436 613 q 231 541 279 613 q 182 356 182 469 q 223 157 182 243 q 400 71 264 71 z "},"e":{"ha":760,"x_min":76,"x_max":686,"o":"m 397 -21 q 163 72 249 -21 q 76 347 76 164 q 158 616 76 526 q 381 706 239 706 q 617 597 547 706 q 683 329 686 489 l 126 329 l 133 421 l 618 421 l 579 407 q 526 563 575 511 q 381 614 478 614 q 228 555 278 614 q 178 329 178 496 q 237 137 178 203 q 403 71 296 71 q 538 88 479 71 q 640 131 597 104 l 640 28 q 530 -8 590 4 q 397 -21 469 -21 z "},"é":{"ha":760,"x_min":76,"x_max":686,"o":"m 397 -21 q 163 72 249 -21 q 76 347 76 164 q 158 616 76 526 q 381 706 239 706 q 617 597 547 706 q 683 329 686 489 l 126 329 l 133 421 l 618 421 l 579 407 q 526 563 575 511 q 381 614 478 614 q 228 555 278 614 q 178 329 178 496 q 237 137 178 203 q 403 71 296 71 q 538 88 479 71 q 640 131 597 104 l 640 28 q 530 -8 590 4 q 397 -21 469 -21 z "},"ĕ":{"ha":760,"x_min":76,"x_max":686,"o":"m 397 -21 q 163 72 249 -21 q 76 347 76 164 q 158 616 76 526 q 381 706 239 706 q 617 597 547 706 q 683 329 686 489 l 126 329 l 133 421 l 618 421 l 579 407 q 526 563 575 511 q 381 614 478 614 q 228 555 278 614 q 178 329 178 496 q 237 137 178 203 q 403 71 296 71 q 538 88 479 71 q 640 131 597 104 l 640 28 q 530 -8 590 4 q 397 -21 469 -21 z "},"ě":{"ha":760,"x_min":76,"x_max":686,"o":"m 397 -21 q 163 72 249 -21 q 76 347 76 164 q 158 616 76 526 q 381 706 239 706 q 617 597 547 706 q 683 329 686 489 l 126 329 l 133 421 l 618 421 l 579 407 q 526 563 575 511 q 381 614 478 614 q 228 555 278 614 q 178 329 178 496 q 237 137 178 203 q 403 71 296 71 q 538 88 479 71 q 640 131 597 104 l 640 28 q 530 -8 590 4 q 397 -21 469 -21 z "},"ḝ":{"ha":760,"x_min":76,"x_max":686,"o":"m 397 -21 q 163 72 249 -21 q 76 347 76 164 q 158 616 76 526 q 381 706 239 706 q 617 597 547 706 q 683 329 686 489 l 126 329 l 133 421 l 618 421 l 579 407 q 526 563 575 511 q 381 614 478 614 q 228 555 278 614 q 178 329 178 496 q 237 137 178 203 q 403 71 296 71 q 538 88 479 71 q 640 131 597 104 l 640 28 q 530 -8 590 4 q 397 -21 469 -21 z "},"ê":{"ha":760,"x_min":76,"x_max":686,"o":"m 397 -21 q 163 72 249 -21 q 76 347 76 164 q 158 616 76 526 q 381 706 239 706 q 617 597 547 706 q 683 329 686 489 l 126 329 l 133 421 l 618 421 l 579 407 q 526 563 575 511 q 381 614 478 614 q 228 555 278 614 q 178 329 178 496 q 237 137 178 203 q 403 71 296 71 q 538 88 479 71 q 640 131 597 104 l 640 28 q 530 -8 590 4 q 397 -21 469 -21 z "},"ế":{"ha":760,"x_min":76,"x_max":694,"o":"m 397 -21 q 163 72 249 -21 q 76 347 76 164 q 158 616 76 526 q 381 706 239 706 q 617 597 547 706 q 683 329 686 489 l 126 329 l 133 421 l 618 421 l 579 407 q 526 563 575 511 q 381 614 478 614 q 228 555 278 614 q 178 329 178 496 q 237 137 178 203 q 403 71 296 71 q 538 88 479 71 q 640 131 597 104 l 640 28 q 530 -8 590 4 q 397 -21 469 -21 z "},"ệ":{"ha":760,"x_min":76,"x_max":686,"o":"m 397 -21 q 163 72 249 -21 q 76 347 76 164 q 158 616 76 526 q 381 706 239 706 q 617 597 547 706 q 683 329 686 489 l 126 329 l 133 421 l 618 421 l 579 407 q 526 563 575 511 q 381 614 478 614 q 228 555 278 614 q 178 329 178 496 q 237 137 178 203 q 403 71 296 71 q 538 88 479 71 q 640 131 597 104 l 640 28 q 530 -8 590 4 q 397 -21 469 -21 m 338 -179 l 338 -69 l 447 -69 l 447 -179 l 338 -179 z "},"ề":{"ha":760,"x_min":61,"x_max":686,"o":"m 397 -21 q 163 72 249 -21 q 76 347 76 164 q 158 616 76 526 q 381 706 239 706 q 617 597 547 706 q 683 329 686 489 l 126 329 l 133 421 l 618 421 l 579 407 q 526 563 575 511 q 381 614 478 614 q 228 555 278 614 q 178 329 178 496 q 237 137 178 203 q 403 71 296 71 q 538 88 479 71 q 640 131 597 104 l 640 28 q 530 -8 590 4 q 397 -21 469 -21 z "},"ể":{"ha":760,"x_min":76,"x_max":686,"o":"m 397 -21 q 163 72 249 -21 q 76 347 76 164 q 158 616 76 526 q 381 706 239 706 q 617 597 547 706 q 683 329 686 489 l 126 329 l 133 421 l 618 421 l 579 407 q 526 563 575 511 q 381 614 478 614 q 228 555 278 614 q 178 329 178 496 q 237 137 178 203 q 403 71 296 71 q 538 88 479 71 q 640 131 597 104 l 640 28 q 530 -8 590 4 q 397 -21 469 -21 z "},"ễ":{"ha":760,"x_min":76,"x_max":686,"o":"m 397 -21 q 163 72 249 -21 q 76 347 76 164 q 158 616 76 526 q 381 706 239 706 q 617 597 547 706 q 683 329 686 489 l 126 329 l 133 421 l 618 421 l 579 407 q 526 563 575 511 q 381 614 478 614 q 228 555 278 614 q 178 329 178 496 q 237 137 178 203 q 403 71 296 71 q 538 88 479 71 q 640 131 597 104 l 640 28 q 530 -8 590 4 q 397 -21 469 -21 z "},"ȅ":{"ha":760,"x_min":76,"x_max":686,"o":"m 397 -21 q 163 72 249 -21 q 76 347 76 164 q 158 616 76 526 q 381 706 239 706 q 617 597 547 706 q 683 329 686 489 l 126 329 l 133 421 l 618 421 l 579 407 q 526 563 575 511 q 381 614 478 614 q 228 555 278 614 q 178 329 178 496 q 237 137 178 203 q 403 71 296 71 q 538 88 479 71 q 640 131 597 104 l 640 28 q 530 -8 590 4 q 397 -21 469 -21 z "},"ë":{"ha":760,"x_min":76,"x_max":686,"o":"m 397 -21 q 163 72 249 -21 q 76 347 76 164 q 158 616 76 526 q 381 706 239 706 q 617 597 547 706 q 683 329 686 489 l 126 329 l 133 421 l 618 421 l 579 407 q 526 563 575 511 q 381 614 478 614 q 228 555 278 614 q 178 329 178 496 q 237 137 178 203 q 403 71 296 71 q 538 88 479 71 q 640 131 597 104 l 640 28 q 530 -8 590 4 q 397 -21 469 -21 z "},"ė":{"ha":760,"x_min":76,"x_max":686,"o":"m 397 -21 q 163 72 249 -21 q 76 347 76 164 q 158 616 76 526 q 381 706 239 706 q 617 597 547 706 q 683 329 686 489 l 126 329 l 133 421 l 618 421 l 579 407 q 526 563 575 511 q 381 614 478 614 q 228 555 278 614 q 178 329 178 496 q 237 137 178 203 q 403 71 296 71 q 538 88 479 71 q 640 131 597 104 l 640 28 q 530 -8 590 4 q 397 -21 469 -21 z "},"ẹ":{"ha":760,"x_min":76,"x_max":686,"o":"m 397 -21 q 163 72 249 -21 q 76 347 76 164 q 158 616 76 526 q 381 706 239 706 q 617 597 547 706 q 683 329 686 489 l 126 329 l 133 421 l 618 421 l 579 407 q 526 563 575 511 q 381 614 478 614 q 228 555 278 614 q 178 329 178 496 q 237 137 178 203 q 403 71 296 71 q 538 88 479 71 q 640 131 597 104 l 640 28 q 530 -8 590 4 q 397 -21 469 -21 m 338 -179 l 338 -69 l 447 -69 l 447 -179 l 338 -179 z "},"è":{"ha":760,"x_min":76,"x_max":686,"o":"m 397 -21 q 163 72 249 -21 q 76 347 76 164 q 158 616 76 526 q 381 706 239 706 q 617 597 547 706 q 683 329 686 489 l 126 329 l 133 421 l 618 421 l 579 407 q 526 563 575 511 q 381 614 478 614 q 228 555 278 614 q 178 329 178 496 q 237 137 178 203 q 403 71 296 71 q 538 88 479 71 q 640 131 597 104 l 640 28 q 530 -8 590 4 q 397 -21 469 -21 z "},"ẻ":{"ha":760,"x_min":76,"x_max":686,"o":"m 397 -21 q 163 72 249 -21 q 76 347 76 164 q 158 616 76 526 q 381 706 239 706 q 617 597 547 706 q 683 329 686 489 l 126 329 l 133 421 l 618 421 l 579 407 q 526 563 575 511 q 381 614 478 614 q 228 555 278 614 q 178 329 178 496 q 237 137 178 203 q 403 71 296 71 q 538 88 479 71 q 640 131 597 104 l 640 28 q 530 -8 590 4 q 397 -21 469 -21 m 358 781 l 358 853 q 411 886 411 854 q 344 922 411 922 q 307 919 329 922 l 307 979 q 328 982 318 981 q 350 983 339 983 q 435 964 393 983 q 478 889 478 944 q 404 814 478 828 l 404 781 l 358 781 z "},"ȇ":{"ha":760,"x_min":76,"x_max":686,"o":"m 397 -21 q 163 72 249 -21 q 76 347 76 164 q 158 616 76 526 q 381 706 239 706 q 617 597 547 706 q 683 329 686 489 l 126 329 l 133 421 l 618 421 l 579 407 q 526 563 575 511 q 381 614 478 614 q 228 555 278 614 q 178 329 178 496 q 237 137 178 203 q 403 71 296 71 q 538 88 479 71 q 640 131 597 104 l 640 28 q 530 -8 590 4 q 397 -21 469 -21 z "},"ē":{"ha":760,"x_min":76,"x_max":686,"o":"m 397 -21 q 163 72 249 -21 q 76 347 76 164 q 158 616 76 526 q 381 706 239 706 q 617 597 547 706 q 683 329 686 489 l 126 329 l 133 421 l 618 421 l 579 407 q 526 563 575 511 q 381 614 478 614 q 228 555 278 614 q 178 329 178 496 q 237 137 178 203 q 403 71 296 71 q 538 88 479 71 q 640 131 597 104 l 640 28 q 530 -8 590 4 q 397 -21 469 -21 z "},"ḗ":{"ha":760,"x_min":76,"x_max":686,"o":"m 397 -21 q 163 72 249 -21 q 76 347 76 164 q 158 616 76 526 q 381 706 239 706 q 617 597 547 706 q 683 329 686 489 l 126 329 l 133 421 l 618 421 l 579 407 q 526 563 575 511 q 381 614 478 614 q 228 555 278 614 q 178 329 178 496 q 237 137 178 203 q 403 71 296 71 q 538 88 479 71 q 640 131 597 104 l 640 28 q 530 -8 590 4 q 397 -21 469 -21 z "},"ḕ":{"ha":760,"x_min":76,"x_max":686,"o":"m 397 -21 q 163 72 249 -21 q 76 347 76 164 q 158 616 76 526 q 381 706 239 706 q 617 597 547 706 q 683 329 686 489 l 126 329 l 133 421 l 618 421 l 579 407 q 526 563 575 511 q 381 614 478 614 q 228 555 278 614 q 178 329 178 496 q 237 137 178 203 q 403 71 296 71 q 538 88 479 71 q 640 131 597 104 l 640 28 q 530 -8 590 4 q 397 -21 469 -21 z "},"ę":{"ha":760,"x_min":76,"x_max":686,"o":"m 397 -21 q 163 72 249 -21 q 76 347 76 164 q 158 616 76 526 q 381 706 239 706 q 617 597 547 706 q 683 329 686 489 l 126 329 l 133 421 l 618 421 l 579 407 q 526 563 575 511 q 381 614 478 614 q 228 555 278 614 q 178 329 178 496 q 237 137 178 203 q 403 71 296 71 q 538 88 479 71 q 640 131 597 104 l 640 28 q 530 -8 590 4 q 397 -21 469 -21 z "},"ẽ":{"ha":760,"x_min":76,"x_max":686,"o":"m 397 -21 q 163 72 249 -21 q 76 347 76 164 q 158 616 76 526 q 381 706 239 706 q 617 597 547 706 q 683 329 686 489 l 126 329 l 133 421 l 618 421 l 579 407 q 526 563 575 511 q 381 614 478 614 q 228 555 278 614 q 178 329 178 496 q 237 137 178 203 q 403 71 296 71 q 538 88 479 71 q 640 131 597 104 l 640 28 q 530 -8 590 4 q 397 -21 469 -21 z "},"ə":{"ha":760,"x_min":75,"x_max":683,"o":"m 363 714 q 597 622 511 714 q 683 346 683 529 q 602 77 683 167 q 379 -12 521 -12 q 143 96 213 -12 q 76 364 74 204 l 633 364 l 626 272 l 142 272 l 181 286 q 233 131 185 182 q 379 79 282 79 q 532 138 482 79 q 582 364 582 197 q 523 556 582 490 q 357 622 464 622 q 222 606 281 622 q 119 563 163 589 l 119 665 q 230 701 169 689 q 363 714 290 714 z "},"f":{"ha":521,"x_min":56,"x_max":465,"o":"m 175 0 l 175 601 l 56 601 l 56 693 l 175 693 l 175 731 q 219 911 175 858 q 317 974 264 964 q 399 985 371 985 q 465 976 436 985 l 465 888 q 443 891 456 889 q 415 893 431 893 q 321 873 367 893 q 275 732 275 853 l 275 693 l 465 693 l 465 601 l 275 601 l 275 0 l 175 0 z "},"g":{"ha":790,"x_min":76,"x_max":679,"o":"m 393 -21 q 155 73 233 -21 q 76 328 76 167 q 131 567 78 486 q 264 677 185 649 q 419 704 343 706 q 598 665 517 704 q 679 532 679 625 l 679 -29 q 656 -140 679 -83 q 567 -236 632 -197 q 378 -275 503 -275 q 267 -264 317 -275 q 181 -243 218 -253 l 181 -149 q 261 -169 214 -158 q 367 -181 308 -181 q 543 -132 507 -181 q 579 -32 579 -83 l 579 69 l 614 35 q 506 -3 574 14 q 393 -21 439 -21 m 393 71 q 486 83 436 71 q 579 119 536 94 l 579 518 q 532 594 579 576 q 422 613 485 613 q 226 526 269 613 q 182 328 182 440 q 231 142 182 214 q 393 71 279 71 z "},"ğ":{"ha":790,"x_min":76,"x_max":679,"o":"m 393 -21 q 155 73 233 -21 q 76 328 76 167 q 131 567 78 486 q 264 677 185 649 q 419 704 343 706 q 598 665 517 704 q 679 532 679 625 l 679 -29 q 656 -140 679 -83 q 567 -236 632 -197 q 378 -275 503 -275 q 267 -264 317 -275 q 181 -243 218 -253 l 181 -149 q 261 -169 214 -158 q 367 -181 308 -181 q 543 -132 507 -181 q 579 -32 579 -83 l 579 69 l 614 35 q 506 -3 574 14 q 393 -21 439 -21 m 393 71 q 486 83 436 71 q 579 119 536 94 l 579 518 q 532 594 579 576 q 422 613 485 613 q 226 526 269 613 q 182 328 182 440 q 231 142 182 214 q 393 71 279 71 z "},"ǧ":{"ha":790,"x_min":76,"x_max":679,"o":"m 393 -21 q 155 73 233 -21 q 76 328 76 167 q 131 567 78 486 q 264 677 185 649 q 419 704 343 706 q 598 665 517 704 q 679 532 679 625 l 679 -29 q 656 -140 679 -83 q 567 -236 632 -197 q 378 -275 503 -275 q 267 -264 317 -275 q 181 -243 218 -253 l 181 -149 q 261 -169 214 -158 q 367 -181 308 -181 q 543 -132 507 -181 q 579 -32 579 -83 l 579 69 l 614 35 q 506 -3 574 14 q 393 -21 439 -21 m 393 71 q 486 83 436 71 q 579 119 536 94 l 579 518 q 532 594 579 576 q 422 613 485 613 q 226 526 269 613 q 182 328 182 440 q 231 142 182 214 q 393 71 279 71 z "},"ĝ":{"ha":790,"x_min":76,"x_max":679,"o":"m 393 -21 q 155 73 233 -21 q 76 328 76 167 q 131 567 78 486 q 264 677 185 649 q 419 704 343 706 q 598 665 517 704 q 679 532 679 625 l 679 -29 q 656 -140 679 -83 q 567 -236 632 -197 q 378 -275 503 -275 q 267 -264 317 -275 q 181 -243 218 -253 l 181 -149 q 261 -169 214 -158 q 367 -181 308 -181 q 543 -132 507 -181 q 579 -32 579 -83 l 579 69 l 614 35 q 506 -3 574 14 q 393 -21 439 -21 m 393 71 q 486 83 436 71 q 579 119 536 94 l 579 518 q 532 594 579 576 q 422 613 485 613 q 226 526 269 613 q 182 328 182 440 q 231 142 182 214 q 393 71 279 71 z "},"ģ":{"ha":790,"x_min":76,"x_max":679,"o":"m 393 -21 q 155 73 233 -21 q 76 328 76 167 q 131 567 78 486 q 264 677 185 649 q 419 704 343 706 q 598 665 517 704 q 679 532 679 625 l 679 -29 q 656 -140 679 -83 q 567 -236 632 -197 q 378 -275 503 -275 q 267 -264 317 -275 q 181 -243 218 -253 l 181 -149 q 261 -169 214 -158 q 367 -181 308 -181 q 543 -132 507 -181 q 579 -32 579 -83 l 579 69 l 614 35 q 506 -3 574 14 q 393 -21 439 -21 m 393 71 q 486 83 436 71 q 579 119 536 94 l 579 518 q 532 594 579 576 q 422 613 485 613 q 226 526 269 613 q 182 328 182 440 q 231 142 182 214 q 393 71 279 71 z "},"ġ":{"ha":790,"x_min":76,"x_max":679,"o":"m 393 -21 q 155 73 233 -21 q 76 328 76 167 q 131 567 78 486 q 264 677 185 649 q 419 704 343 706 q 598 665 517 704 q 679 532 679 625 l 679 -29 q 656 -140 679 -83 q 567 -236 632 -197 q 378 -275 503 -275 q 267 -264 317 -275 q 181 -243 218 -253 l 181 -149 q 261 -169 214 -158 q 367 -181 308 -181 q 543 -132 507 -181 q 579 -32 579 -83 l 579 69 l 614 35 q 506 -3 574 14 q 393 -21 439 -21 m 393 71 q 486 83 436 71 q 579 119 536 94 l 579 518 q 532 594 579 576 q 422 613 485 613 q 226 526 269 613 q 182 328 182 440 q 231 142 182 214 q 393 71 279 71 z "},"ḡ":{"ha":790,"x_min":76,"x_max":679,"o":"m 393 -21 q 155 73 233 -21 q 76 328 76 167 q 131 567 78 486 q 264 677 185 649 q 419 704 343 706 q 598 665 517 704 q 679 532 679 625 l 679 -29 q 656 -140 679 -83 q 567 -236 632 -197 q 378 -275 503 -275 q 267 -264 317 -275 q 181 -243 218 -253 l 181 -149 q 261 -169 214 -158 q 367 -181 308 -181 q 543 -132 507 -181 q 579 -32 579 -83 l 579 69 l 614 35 q 506 -3 574 14 q 393 -21 439 -21 m 393 71 q 486 83 436 71 q 579 119 536 94 l 579 518 q 532 594 579 576 q 422 613 485 613 q 226 526 269 613 q 182 328 182 440 q 231 142 182 214 q 393 71 279 71 z "},"h":{"ha":799,"x_min":111,"x_max":688,"o":"m 111 0 l 111 1000 l 211 1000 l 211 615 l 200 642 q 311 688 253 671 q 421 706 369 706 q 618 634 549 706 q 688 411 688 563 l 688 0 l 588 0 l 588 411 q 410 614 588 614 q 312 600 361 614 q 211 558 263 586 l 211 0 l 111 0 z "},"ħ":{"ha":799,"x_min":-14,"x_max":688,"o":"m 111 0 l 111 1000 l 211 1000 l 211 615 l 200 642 q 311 688 253 671 q 421 706 369 706 q 618 634 549 706 q 688 411 688 563 l 688 0 l 588 0 l 588 411 q 410 614 588 614 q 312 600 361 614 q 211 558 263 586 l 211 0 l 111 0 m -14 801 l -14 875 l 325 875 l 325 801 l -14 801 z "},"ḫ":{"ha":799,"x_min":111,"x_max":688,"o":"m 111 0 l 111 1000 l 211 1000 l 211 615 l 200 642 q 311 688 253 671 q 421 706 369 706 q 618 634 549 706 q 688 411 688 563 l 688 0 l 588 0 l 588 411 q 410 614 588 614 q 312 600 361 614 q 211 558 263 586 l 211 0 l 111 0 z "},"ĥ":{"ha":799,"x_min":3,"x_max":688,"o":"m 111 0 l 111 1000 l 211 1000 l 211 615 l 200 642 q 311 688 253 671 q 421 706 369 706 q 618 634 549 706 q 688 411 688 563 l 688 0 l 588 0 l 588 411 q 410 614 588 614 q 312 600 361 614 q 211 558 263 586 l 211 0 l 111 0 z "},"i":{"ha":333,"x_min":111,"x_max":222,"o":"m 117 0 l 117 693 l 217 693 l 217 0 l 117 0 m 111 817 l 111 926 l 222 926 l 222 817 l 111 817 z "},"ı":{"ha":322,"x_min":111,"x_max":211,"o":"m 111 0 l 111 693 l 211 693 l 211 0 l 111 0 z "},"í":{"ha":375,"x_min":138,"x_max":335,"o":"m 138 0 l 138 693 l 238 693 l 238 0 l 138 0 m 154 783 l 232 943 l 335 943 l 219 783 l 154 783 z "},"ĭ":{"ha":322,"x_min":-26,"x_max":349,"o":"m 111 0 l 111 693 l 211 693 l 211 0 l 111 0 z "},"ǐ":{"ha":322,"x_min":21,"x_max":301,"o":"m 111 0 l 111 693 l 211 693 l 211 0 l 111 0 z "},"î":{"ha":375,"x_min":46,"x_max":328,"o":"m 138 0 l 138 693 l 238 693 l 238 0 l 138 0 m 46 783 l 158 950 l 215 950 l 328 783 l 250 783 l 188 881 l 124 783 l 46 783 z "},"ȉ":{"ha":322,"x_min":-40,"x_max":326,"o":"m 111 0 l 111 693 l 211 693 l 211 0 l 111 0 z "},"ï":{"ha":375,"x_min":29,"x_max":344,"o":"m 138 0 l 138 693 l 238 693 l 238 0 l 138 0 m 29 783 l 29 893 l 139 893 l 139 783 l 29 783 m 235 783 l 235 893 l 344 893 l 344 783 l 235 783 z "},"ḯ":{"ha":322,"x_min":3,"x_max":318,"o":"m 111 0 l 111 693 l 211 693 l 211 0 l 111 0 z "},"ị":{"ha":375,"x_min":132,"x_max":243,"o":"m 138 0 l 138 693 l 238 693 l 238 0 l 138 0 m 132 -179 l 132 -69 l 242 -69 l 242 -179 l 132 -179 m 132 817 l 132 926 l 243 926 l 243 817 l 132 817 z "},"ì":{"ha":375,"x_min":39,"x_max":238,"o":"m 138 0 l 138 693 l 238 693 l 238 0 l 138 0 m 154 783 l 39 943 l 142 943 l 221 783 l 154 783 z "},"ỉ":{"ha":375,"x_min":111,"x_max":282,"o":"m 138 0 l 138 693 l 238 693 l 238 0 l 138 0 m 163 783 l 163 856 q 203 867 192 857 q 215 888 215 878 q 198 915 215 906 q 149 925 181 925 q 111 921 128 925 l 111 982 q 133 984 122 983 q 154 985 143 985 q 240 966 197 985 q 282 890 282 947 q 265 843 282 864 q 208 817 247 822 l 208 783 l 163 783 z "},"ȋ":{"ha":322,"x_min":-26,"x_max":349,"o":"m 111 0 l 111 693 l 211 693 l 211 0 l 111 0 z "},"ĳ":{"ha":706,"x_min":111,"x_max":594,"o":"m 117 0 l 117 693 l 217 693 l 217 0 l 117 0 m 111 817 l 111 926 l 222 926 l 222 817 l 111 817 m 347 -268 l 347 -175 q 463 -137 438 -172 q 489 -35 489 -103 l 489 693 l 589 693 l 589 -40 q 529 -212 589 -156 q 347 -268 469 -268 m 483 817 l 483 926 l 594 926 l 594 817 l 483 817 z "},"ī":{"ha":375,"x_min":25,"x_max":349,"o":"m 138 0 l 138 693 l 238 693 l 238 0 l 138 0 m 25 800 l 25 874 l 349 874 l 349 800 l 25 800 z "},"į":{"ha":333,"x_min":7,"x_max":222,"o":"m 129 -240 q 7 -125 7 -240 q 39 -49 7 -90 q 121 14 71 -7 l 217 0 q 125 -57 161 -26 q 89 -118 89 -87 q 101 -154 89 -143 q 136 -165 114 -165 q 184 -151 164 -165 q 213 -128 204 -136 l 213 -215 q 176 -233 196 -225 q 129 -240 156 -240 m 117 0 l 117 693 l 217 693 l 217 0 l 117 0 m 111 817 l 111 926 l 222 926 l 222 817 l 111 817 z "},"ĩ":{"ha":322,"x_min":-53,"x_max":372,"o":"m 111 0 l 111 693 l 211 693 l 211 0 l 111 0 z "},"j":{"ha":372,"x_min":14,"x_max":261,"o":"m 14 -268 l 14 -175 q 130 -137 104 -172 q 156 -35 156 -103 l 156 693 l 256 693 l 256 -40 q 196 -212 256 -156 q 14 -268 136 -268 m 150 817 l 150 926 l 261 926 l 261 817 l 150 817 z "},"ȷ":{"ha":349,"x_min":4,"x_max":246,"o":"m 4 -268 l 4 -175 q 120 -137 94 -172 q 146 -35 146 -103 l 146 693 l 246 693 l 246 -40 q 186 -212 246 -156 q 4 -268 126 -268 z "},"ĵ":{"ha":349,"x_min":4,"x_max":336,"o":"m 4 -268 l 4 -175 q 120 -137 94 -172 q 146 -35 146 -103 l 146 693 l 246 693 l 246 -40 q 186 -212 246 -156 q 4 -268 126 -268 m 56 783 l 167 950 l 225 950 l 336 783 l 258 783 l 196 881 l 133 783 l 56 783 z "},"k":{"ha":710,"x_min":111,"x_max":668,"o":"m 189 415 l 493 693 l 618 693 l 211 333 l 189 415 m 211 0 l 111 0 l 111 957 l 211 957 l 211 0 m 239 432 l 668 0 l 535 0 l 171 368 l 239 432 z "},"ķ":{"ha":763,"x_min":128,"x_max":713,"o":"m 128 0 l 128 957 l 228 957 l 228 353 l 540 693 l 675 693 l 379 375 l 713 0 l 581 0 l 314 304 l 228 211 l 228 0 l 128 0 m 294 -268 l 294 -193 q 342 -138 333 -178 q 351 -68 351 -99 l 435 -68 q 388 -213 435 -168 q 294 -268 342 -258 z "},"ĸ":{"ha":763,"x_min":128,"x_max":713,"o":"m 128 0 l 128 693 l 228 693 l 228 353 l 540 693 l 675 693 l 379 375 l 713 0 l 581 0 l 314 304 l 228 211 l 228 0 l 128 0 z "},"l":{"ha":322,"x_min":111,"x_max":211,"o":"m 211 0 l 111 0 l 111 957 l 211 957 l 211 0 z "},"ĺ":{"ha":322,"x_min":111,"x_max":318,"o":"m 211 0 l 111 0 l 111 957 l 211 957 l 211 0 m 136 1047 l 215 1207 l 318 1207 l 203 1047 l 136 1047 z "},"ľ":{"ha":375,"x_min":140,"x_max":426,"o":"m 140 0 l 140 957 l 240 957 l 240 0 l 140 0 m 288 758 l 288 833 q 335 888 326 847 q 343 957 343 928 l 426 957 q 380 814 426 858 q 288 758 333 769 z "},"ļ":{"ha":322,"x_min":92,"x_max":231,"o":"m 211 0 l 111 0 l 111 957 l 211 957 l 211 0 z "},"ŀ":{"ha":322,"x_min":96,"x_max":211,"o":"m 211 0 l 111 0 l 111 957 l 211 957 l 211 0 m 96 288 l 96 399 l 206 399 l 206 288 l 96 288 z "},"ḷ":{"ha":322,"x_min":106,"x_max":215,"o":"m 211 0 l 111 0 l 111 957 l 211 957 l 211 0 m 106 -179 l 106 -69 l 215 -69 l 215 -179 l 106 -179 z "},"ǉ":{"ha":694,"x_min":111,"x_max":583,"o":"m 211 0 l 111 0 l 111 957 l 211 957 l 211 0 m 336 -268 l 336 -175 q 452 -137 426 -172 q 478 -35 478 -103 l 478 693 l 578 693 l 578 -40 q 518 -212 578 -156 q 336 -268 458 -268 m 472 817 l 472 926 l 583 926 l 583 817 l 472 817 z "},"ḻ":{"ha":322,"x_min":-1,"x_max":324,"o":"m 211 0 l 111 0 l 111 957 l 211 957 l 211 0 z "},"ł":{"ha":375,"x_min":49,"x_max":349,"o":"m 140 0 l 140 471 l 49 410 l 49 499 l 140 560 l 140 957 l 240 957 l 240 628 l 349 700 l 349 611 l 240 539 l 240 0 l 140 0 z "},"m":{"ha":1226,"x_min":111,"x_max":1115,"o":"m 679 451 l 679 0 l 579 0 l 579 451 q 549 558 579 500 q 393 615 518 615 q 211 588 307 615 l 211 0 l 111 0 l 111 638 q 203 676 156 661 q 302 698 251 690 q 404 706 353 706 q 617 639 556 706 q 679 451 679 572 m 547 610 q 689 683 615 661 q 840 706 763 706 q 1053 639 992 706 q 1115 451 1115 572 l 1115 0 l 1015 0 l 1015 451 q 985 558 1015 500 q 829 615 954 615 q 740 603 786 615 q 647 560 694 590 l 547 610 z "},"ṃ":{"ha":1226,"x_min":111,"x_max":1115,"o":"m 679 451 l 679 0 l 579 0 l 579 451 q 549 558 579 500 q 393 615 518 615 q 211 588 307 615 l 211 0 l 111 0 l 111 638 q 203 676 156 661 q 302 698 251 690 q 404 706 353 706 q 617 639 556 706 q 679 451 679 572 m 547 610 q 689 683 615 661 q 840 706 763 706 q 1053 639 992 706 q 1115 451 1115 572 l 1115 0 l 1015 0 l 1015 451 q 985 558 1015 500 q 829 615 954 615 q 740 603 786 615 q 647 560 694 590 l 547 610 m 558 -179 l 558 -69 l 668 -69 l 668 -179 l 558 -179 z "},"n":{"ha":790,"x_min":111,"x_max":679,"o":"m 111 638 q 203 676 156 661 q 302 698 251 690 q 404 706 353 706 q 617 639 556 706 q 679 451 679 572 l 679 0 l 579 0 l 579 451 q 549 558 579 500 q 393 615 518 615 q 304 608 350 615 q 211 588 258 601 l 211 0 l 111 0 l 111 638 z "},"ń":{"ha":790,"x_min":111,"x_max":679,"o":"m 111 638 q 203 676 156 661 q 302 698 251 690 q 404 706 353 706 q 617 639 556 706 q 679 451 679 572 l 679 0 l 579 0 l 579 451 q 549 558 579 500 q 393 615 518 615 q 304 608 350 615 q 211 588 258 601 l 211 0 l 111 0 l 111 638 z "},"ŉ":{"ha":807,"x_min":44,"x_max":682,"o":"m 114 0 l 114 638 q 173 662 131 646 q 276 692 215 678 q 407 706 336 706 q 610 639 539 706 q 682 451 682 572 l 682 0 l 582 0 l 582 451 q 552 553 582 500 q 397 606 522 606 q 297 597 343 606 q 214 578 250 589 l 214 0 l 114 0 m 44 722 l 44 797 q 92 852 83 813 q 101 922 101 892 l 185 922 q 138 778 185 822 q 44 722 90 733 z "},"ň":{"ha":790,"x_min":111,"x_max":679,"o":"m 111 638 q 203 676 156 661 q 302 698 251 690 q 404 706 353 706 q 617 639 556 706 q 679 451 679 572 l 679 0 l 579 0 l 579 451 q 549 558 579 500 q 393 615 518 615 q 304 608 350 615 q 211 588 258 601 l 211 0 l 111 0 l 111 638 z "},"ņ":{"ha":790,"x_min":111,"x_max":679,"o":"m 111 638 q 203 676 156 661 q 302 698 251 690 q 404 706 353 706 q 617 639 556 706 q 679 451 679 572 l 679 0 l 579 0 l 579 451 q 549 558 579 500 q 393 615 518 615 q 304 608 350 615 q 211 588 258 601 l 211 0 l 111 0 l 111 638 z "},"ṅ":{"ha":790,"x_min":111,"x_max":679,"o":"m 111 638 q 203 676 156 661 q 302 698 251 690 q 404 706 353 706 q 617 639 556 706 q 679 451 679 572 l 679 0 l 579 0 l 579 451 q 549 558 579 500 q 393 615 518 615 q 304 608 350 615 q 211 588 258 601 l 211 0 l 111 0 l 111 638 z "},"ṇ":{"ha":790,"x_min":111,"x_max":679,"o":"m 111 638 q 203 676 156 661 q 302 698 251 690 q 404 706 353 706 q 617 639 556 706 q 679 451 679 572 l 679 0 l 579 0 l 579 451 q 549 558 579 500 q 393 615 518 615 q 304 608 350 615 q 211 588 258 601 l 211 0 l 111 0 l 111 638 m 342 -179 l 342 -69 l 451 -69 l 451 -179 l 342 -179 z "},"ŋ":{"ha":807,"x_min":114,"x_max":682,"o":"m 114 0 l 114 638 q 219 678 139 650 q 407 706 300 706 q 610 639 539 706 q 682 451 682 572 l 682 -12 q 656 -139 682 -89 q 576 -214 629 -189 q 440 -239 522 -239 l 440 -146 q 556 -109 531 -144 q 582 -6 582 -74 l 582 451 q 552 553 582 500 q 397 606 522 606 q 297 597 343 606 q 214 578 250 589 l 214 0 l 114 0 z "},"ɲ":{"ha":790,"x_min":-31,"x_max":679,"o":"m 111 6 l 111 638 q 203 676 156 661 q 302 698 251 690 q 404 706 353 706 q 617 639 556 706 q 679 451 679 572 l 679 0 l 579 0 l 579 451 q 549 558 579 500 q 393 615 518 615 q 304 608 350 615 q 211 588 258 601 l 211 0 q 151 -171 211 -114 q -31 -228 92 -228 l -31 -135 q 85 -98 60 -133 q 111 6 111 -62 z "},"ǌ":{"ha":1163,"x_min":111,"x_max":1051,"o":"m 111 638 q 203 676 156 661 q 302 698 251 690 q 404 706 353 706 q 617 639 556 706 q 679 451 679 572 l 679 0 l 579 0 l 579 451 q 549 558 579 500 q 393 615 518 615 q 304 608 350 615 q 211 588 258 601 l 211 0 l 111 0 l 111 638 m 804 -268 l 804 -175 q 920 -137 894 -172 q 946 -35 946 -103 l 946 693 l 1046 693 l 1046 -40 q 986 -212 1046 -156 q 804 -268 926 -268 m 940 817 l 940 926 l 1051 926 l 1051 817 l 940 817 z "},"ṉ":{"ha":790,"x_min":111,"x_max":679,"o":"m 111 638 q 203 676 156 661 q 302 698 251 690 q 404 706 353 706 q 617 639 556 706 q 679 451 679 572 l 679 0 l 579 0 l 579 451 q 549 558 579 500 q 393 615 518 615 q 304 608 350 615 q 211 588 258 601 l 211 0 l 111 0 l 111 638 z "},"ñ":{"ha":790,"x_min":111,"x_max":679,"o":"m 111 638 q 203 676 156 661 q 302 698 251 690 q 404 706 353 706 q 617 639 556 706 q 679 451 679 572 l 679 0 l 579 0 l 579 451 q 549 558 579 500 q 393 615 518 615 q 304 608 350 615 q 211 588 258 601 l 211 0 l 111 0 l 111 638 z "},"o":{"ha":790,"x_min":76,"x_max":714,"o":"m 396 -21 q 155 76 233 -21 q 76 344 76 172 q 159 615 76 525 q 393 706 242 706 q 638 606 561 706 q 714 344 714 506 q 631 76 714 174 q 396 -21 549 -21 m 394 71 q 567 151 521 71 q 614 344 614 231 q 565 540 614 467 q 394 614 517 614 q 223 536 269 614 q 176 344 176 458 q 225 147 176 222 q 394 71 274 71 z "},"ó":{"ha":790,"x_min":76,"x_max":714,"o":"m 396 -21 q 155 76 233 -21 q 76 344 76 172 q 159 615 76 525 q 393 706 242 706 q 638 606 561 706 q 714 344 714 506 q 631 76 714 174 q 396 -21 549 -21 m 394 71 q 567 151 521 71 q 614 344 614 231 q 565 540 614 467 q 394 614 517 614 q 223 536 269 614 q 176 344 176 458 q 225 147 176 222 q 394 71 274 71 z "},"ŏ":{"ha":790,"x_min":76,"x_max":714,"o":"m 396 -21 q 155 76 233 -21 q 76 344 76 172 q 159 615 76 525 q 393 706 242 706 q 638 606 561 706 q 714 344 714 506 q 631 76 714 174 q 396 -21 549 -21 m 394 71 q 567 151 521 71 q 614 344 614 231 q 565 540 614 467 q 394 614 517 614 q 223 536 269 614 q 176 344 176 458 q 225 147 176 222 q 394 71 274 71 z "},"ǒ":{"ha":790,"x_min":76,"x_max":714,"o":"m 396 -21 q 155 76 233 -21 q 76 344 76 172 q 159 615 76 525 q 393 706 242 706 q 638 606 561 706 q 714 344 714 506 q 631 76 714 174 q 396 -21 549 -21 m 394 71 q 567 151 521 71 q 614 344 614 231 q 565 540 614 467 q 394 614 517 614 q 223 536 269 614 q 176 344 176 458 q 225 147 176 222 q 394 71 274 71 z "},"ô":{"ha":790,"x_min":76,"x_max":714,"o":"m 396 -21 q 155 76 233 -21 q 76 344 76 172 q 159 615 76 525 q 393 706 242 706 q 638 606 561 706 q 714 344 714 506 q 631 76 714 174 q 396 -21 549 -21 m 394 71 q 567 151 521 71 q 614 344 614 231 q 565 540 614 467 q 394 614 517 614 q 223 536 269 614 q 176 344 176 458 q 225 147 176 222 q 394 71 274 71 z "},"ố":{"ha":790,"x_min":76,"x_max":714,"o":"m 396 -21 q 155 76 233 -21 q 76 344 76 172 q 159 615 76 525 q 393 706 242 706 q 638 606 561 706 q 714 344 714 506 q 631 76 714 174 q 396 -21 549 -21 m 394 71 q 567 151 521 71 q 614 344 614 231 q 565 540 614 467 q 394 614 517 614 q 223 536 269 614 q 176 344 176 458 q 225 147 176 222 q 394 71 274 71 z "},"ộ":{"ha":790,"x_min":76,"x_max":714,"o":"m 396 -21 q 155 76 233 -21 q 76 344 76 172 q 159 615 76 525 q 393 706 242 706 q 638 606 561 706 q 714 344 714 506 q 631 76 714 174 q 396 -21 549 -21 m 394 71 q 567 151 521 71 q 614 344 614 231 q 565 540 614 467 q 394 614 517 614 q 223 536 269 614 q 176 344 176 458 q 225 147 176 222 q 394 71 274 71 m 343 -179 l 343 -69 l 453 -69 l 453 -179 l 343 -179 z "},"ồ":{"ha":790,"x_min":67,"x_max":714,"o":"m 396 -21 q 155 76 233 -21 q 76 344 76 172 q 159 615 76 525 q 393 706 242 706 q 638 606 561 706 q 714 344 714 506 q 631 76 714 174 q 396 -21 549 -21 m 394 71 q 567 151 521 71 q 614 344 614 231 q 565 540 614 467 q 394 614 517 614 q 223 536 269 614 q 176 344 176 458 q 225 147 176 222 q 394 71 274 71 z "},"ổ":{"ha":790,"x_min":76,"x_max":714,"o":"m 396 -21 q 155 76 233 -21 q 76 344 76 172 q 159 615 76 525 q 393 706 242 706 q 638 606 561 706 q 714 344 714 506 q 631 76 714 174 q 396 -21 549 -21 m 394 71 q 567 151 521 71 q 614 344 614 231 q 565 540 614 467 q 394 614 517 614 q 223 536 269 614 q 176 344 176 458 q 225 147 176 222 q 394 71 274 71 z "},"ỗ":{"ha":790,"x_min":76,"x_max":714,"o":"m 396 -21 q 155 76 233 -21 q 76 344 76 172 q 159 615 76 525 q 393 706 242 706 q 638 606 561 706 q 714 344 714 506 q 631 76 714 174 q 396 -21 549 -21 m 394 71 q 567 151 521 71 q 614 344 614 231 q 565 540 614 467 q 394 614 517 614 q 223 536 269 614 q 176 344 176 458 q 225 147 176 222 q 394 71 274 71 z "},"ȍ":{"ha":790,"x_min":76,"x_max":714,"o":"m 396 -21 q 155 76 233 -21 q 76 344 76 172 q 159 615 76 525 q 393 706 242 706 q 638 606 561 706 q 714 344 714 506 q 631 76 714 174 q 396 -21 549 -21 m 394 71 q 567 151 521 71 q 614 344 614 231 q 565 540 614 467 q 394 614 517 614 q 223 536 269 614 q 176 344 176 458 q 225 147 176 222 q 394 71 274 71 z "},"ö":{"ha":790,"x_min":76,"x_max":714,"o":"m 396 -21 q 155 76 233 -21 q 76 344 76 172 q 159 615 76 525 q 393 706 242 706 q 638 606 561 706 q 714 344 714 506 q 631 76 714 174 q 396 -21 549 -21 m 394 71 q 567 151 521 71 q 614 344 614 231 q 565 540 614 467 q 394 614 517 614 q 223 536 269 614 q 176 344 176 458 q 225 147 176 222 q 394 71 274 71 z "},"ȫ":{"ha":790,"x_min":76,"x_max":714,"o":"m 396 -21 q 155 76 233 -21 q 76 344 76 172 q 159 615 76 525 q 393 706 242 706 q 638 606 561 706 q 714 344 714 506 q 631 76 714 174 q 396 -21 549 -21 m 394 71 q 567 151 521 71 q 614 344 614 231 q 565 540 614 467 q 394 614 517 614 q 223 536 269 614 q 176 344 176 458 q 225 147 176 222 q 394 71 274 71 z "},"ȱ":{"ha":790,"x_min":76,"x_max":714,"o":"m 396 -21 q 155 76 233 -21 q 76 344 76 172 q 159 615 76 525 q 393 706 242 706 q 638 606 561 706 q 714 344 714 506 q 631 76 714 174 q 396 -21 549 -21 m 394 71 q 567 151 521 71 q 614 344 614 231 q 565 540 614 467 q 394 614 517 614 q 223 536 269 614 q 176 344 176 458 q 225 147 176 222 q 394 71 274 71 z "},"ọ":{"ha":790,"x_min":76,"x_max":714,"o":"m 396 -21 q 155 76 233 -21 q 76 344 76 172 q 159 615 76 525 q 393 706 242 706 q 638 606 561 706 q 714 344 714 506 q 631 76 714 174 q 396 -21 549 -21 m 394 71 q 567 151 521 71 q 614 344 614 231 q 565 540 614 467 q 394 614 517 614 q 223 536 269 614 q 176 344 176 458 q 225 147 176 222 q 394 71 274 71 m 343 -179 l 343 -69 l 453 -69 l 453 -179 l 343 -179 z "},"ò":{"ha":790,"x_min":76,"x_max":714,"o":"m 396 -21 q 155 76 233 -21 q 76 344 76 172 q 159 615 76 525 q 393 706 242 706 q 638 606 561 706 q 714 344 714 506 q 631 76 714 174 q 396 -21 549 -21 m 394 71 q 567 151 521 71 q 614 344 614 231 q 565 540 614 467 q 394 614 517 614 q 223 536 269 614 q 176 344 176 458 q 225 147 176 222 q 394 71 274 71 z "},"ỏ":{"ha":790,"x_min":76,"x_max":714,"o":"m 396 -21 q 155 76 233 -21 q 76 344 76 172 q 159 615 76 525 q 393 706 242 706 q 638 606 561 706 q 714 344 714 506 q 631 76 714 174 q 396 -21 549 -21 m 394 71 q 567 151 521 71 q 614 344 614 231 q 565 540 614 467 q 394 614 517 614 q 223 536 269 614 q 176 344 176 458 q 225 147 176 222 q 394 71 274 71 m 364 781 l 364 853 q 417 886 417 854 q 350 922 417 922 q 313 919 335 922 l 313 979 q 334 982 324 981 q 356 983 344 983 q 441 964 399 983 q 483 889 483 944 q 410 814 483 828 l 410 781 l 364 781 z "},"ơ":{"ha":790,"x_min":76,"x_max":714,"o":"m 396 -21 q 155 76 233 -21 q 76 344 76 172 q 159 615 76 525 q 393 706 242 706 q 638 606 561 706 q 714 344 714 506 q 631 76 714 174 q 396 -21 549 -21 m 394 71 q 567 151 521 71 q 614 344 614 231 q 565 540 614 467 q 394 614 517 614 q 223 536 269 614 q 176 344 176 458 q 225 147 176 222 q 394 71 274 71 m 490 621 l 488 693 q 558 721 526 693 q 590 788 590 749 l 590 824 l 665 824 l 665 785 q 612 664 665 707 q 490 621 558 621 z "},"ớ":{"ha":790,"x_min":76,"x_max":714,"o":"m 396 -21 q 155 76 233 -21 q 76 344 76 172 q 159 615 76 525 q 393 706 242 706 q 638 606 561 706 q 714 344 714 506 q 631 76 714 174 q 396 -21 549 -21 m 394 71 q 567 151 521 71 q 614 344 614 231 q 565 540 614 467 q 394 614 517 614 q 223 536 269 614 q 176 344 176 458 q 225 147 176 222 q 394 71 274 71 m 490 621 l 488 693 q 558 721 526 693 q 590 788 590 749 l 590 824 l 665 824 l 665 785 q 612 664 665 707 q 490 621 558 621 z "},"ợ":{"ha":790,"x_min":76,"x_max":714,"o":"m 396 -21 q 155 76 233 -21 q 76 344 76 172 q 159 615 76 525 q 393 706 242 706 q 638 606 561 706 q 714 344 714 506 q 631 76 714 174 q 396 -21 549 -21 m 394 71 q 567 151 521 71 q 614 344 614 231 q 565 540 614 467 q 394 614 517 614 q 223 536 269 614 q 176 344 176 458 q 225 147 176 222 q 394 71 274 71 m 490 621 l 488 693 q 558 721 526 693 q 590 788 590 749 l 590 824 l 665 824 l 665 785 q 612 664 665 707 q 490 621 558 621 m 343 -179 l 343 -69 l 453 -69 l 453 -179 l 343 -179 z "},"ờ":{"ha":790,"x_min":76,"x_max":714,"o":"m 396 -21 q 155 76 233 -21 q 76 344 76 172 q 159 615 76 525 q 393 706 242 706 q 638 606 561 706 q 714 344 714 506 q 631 76 714 174 q 396 -21 549 -21 m 394 71 q 567 151 521 71 q 614 344 614 231 q 565 540 614 467 q 394 614 517 614 q 223 536 269 614 q 176 344 176 458 q 225 147 176 222 q 394 71 274 71 m 490 621 l 488 693 q 558 721 526 693 q 590 788 590 749 l 590 824 l 665 824 l 665 785 q 612 664 665 707 q 490 621 558 621 z "},"ở":{"ha":790,"x_min":76,"x_max":714,"o":"m 396 -21 q 155 76 233 -21 q 76 344 76 172 q 159 615 76 525 q 393 706 242 706 q 638 606 561 706 q 714 344 714 506 q 631 76 714 174 q 396 -21 549 -21 m 394 71 q 567 151 521 71 q 614 344 614 231 q 565 540 614 467 q 394 614 517 614 q 223 536 269 614 q 176 344 176 458 q 225 147 176 222 q 394 71 274 71 m 490 621 l 488 693 q 558 721 526 693 q 590 788 590 749 l 590 824 l 665 824 l 665 785 q 612 664 665 707 q 490 621 558 621 m 364 781 l 364 853 q 417 886 417 854 q 350 922 417 922 q 313 919 335 922 l 313 979 q 334 982 324 981 q 356 983 344 983 q 441 964 399 983 q 483 889 483 944 q 410 814 483 828 l 410 781 l 364 781 z "},"ỡ":{"ha":790,"x_min":76,"x_max":714,"o":"m 396 -21 q 155 76 233 -21 q 76 344 76 172 q 159 615 76 525 q 393 706 242 706 q 638 606 561 706 q 714 344 714 506 q 631 76 714 174 q 396 -21 549 -21 m 394 71 q 567 151 521 71 q 614 344 614 231 q 565 540 614 467 q 394 614 517 614 q 223 536 269 614 q 176 344 176 458 q 225 147 176 222 q 394 71 274 71 m 490 621 l 488 693 q 558 721 526 693 q 590 788 590 749 l 590 824 l 665 824 l 665 785 q 612 664 665 707 q 490 621 558 621 z "},"ő":{"ha":790,"x_min":76,"x_max":714,"o":"m 396 -21 q 155 76 233 -21 q 76 344 76 172 q 159 615 76 525 q 393 706 242 706 q 638 606 561 706 q 714 344 714 506 q 631 76 714 174 q 396 -21 549 -21 m 394 71 q 567 151 521 71 q 614 344 614 231 q 565 540 614 467 q 394 614 517 614 q 223 536 269 614 q 176 344 176 458 q 225 147 176 222 q 394 71 274 71 z "},"ȏ":{"ha":790,"x_min":76,"x_max":714,"o":"m 396 -21 q 155 76 233 -21 q 76 344 76 172 q 159 615 76 525 q 393 706 242 706 q 638 606 561 706 q 714 344 714 506 q 631 76 714 174 q 396 -21 549 -21 m 394 71 q 567 151 521 71 q 614 344 614 231 q 565 540 614 467 q 394 614 517 614 q 223 536 269 614 q 176 344 176 458 q 225 147 176 222 q 394 71 274 71 z "},"ō":{"ha":790,"x_min":76,"x_max":714,"o":"m 396 -21 q 155 76 233 -21 q 76 344 76 172 q 159 615 76 525 q 393 706 242 706 q 638 606 561 706 q 714 344 714 506 q 631 76 714 174 q 396 -21 549 -21 m 394 71 q 567 151 521 71 q 614 344 614 231 q 565 540 614 467 q 394 614 517 614 q 223 536 269 614 q 176 344 176 458 q 225 147 176 222 q 394 71 274 71 z "},"ṓ":{"ha":790,"x_min":76,"x_max":714,"o":"m 396 -21 q 155 76 233 -21 q 76 344 76 172 q 159 615 76 525 q 393 706 242 706 q 638 606 561 706 q 714 344 714 506 q 631 76 714 174 q 396 -21 549 -21 m 394 71 q 567 151 521 71 q 614 344 614 231 q 565 540 614 467 q 394 614 517 614 q 223 536 269 614 q 176 344 176 458 q 225 147 176 222 q 394 71 274 71 z "},"ṑ":{"ha":790,"x_min":76,"x_max":714,"o":"m 396 -21 q 155 76 233 -21 q 76 344 76 172 q 159 615 76 525 q 393 706 242 706 q 638 606 561 706 q 714 344 714 506 q 631 76 714 174 q 396 -21 549 -21 m 394 71 q 567 151 521 71 q 614 344 614 231 q 565 540 614 467 q 394 614 517 614 q 223 536 269 614 q 176 344 176 458 q 225 147 176 222 q 394 71 274 71 z "},"ǫ":{"ha":790,"x_min":76,"x_max":714,"o":"m 396 -21 q 155 76 233 -21 q 76 344 76 172 q 159 615 76 525 q 393 706 242 706 q 638 606 561 706 q 714 344 714 506 q 631 76 714 174 q 396 -21 549 -21 m 394 71 q 567 151 521 71 q 614 344 614 231 q 565 540 614 467 q 394 614 517 614 q 223 536 269 614 q 176 344 176 458 q 225 147 176 222 q 394 71 274 71 z "},"ø":{"ha":797,"x_min":51,"x_max":744,"o":"m 160 0 l 51 0 l 636 693 l 744 693 l 160 0 m 396 -21 q 155 76 233 -21 q 76 344 76 172 q 159 615 76 525 q 393 706 242 706 q 638 606 561 706 q 714 344 714 506 q 631 76 714 174 q 396 -21 549 -21 m 394 71 q 567 151 521 71 q 614 344 614 231 q 565 540 614 467 q 394 614 517 614 q 223 536 269 614 q 176 344 176 458 q 225 147 176 222 q 394 71 274 71 z "},"ǿ":{"ha":797,"x_min":51,"x_max":744,"o":"m 160 0 l 51 0 l 636 693 l 744 693 l 160 0 m 396 -21 q 155 76 233 -21 q 76 344 76 172 q 159 615 76 525 q 393 706 242 706 q 638 606 561 706 q 714 344 714 506 q 631 76 714 174 q 396 -21 549 -21 m 394 71 q 567 151 521 71 q 614 344 614 231 q 565 540 614 467 q 394 614 517 614 q 223 536 269 614 q 176 344 176 458 q 225 147 176 222 q 394 71 274 71 z "},"õ":{"ha":790,"x_min":76,"x_max":714,"o":"m 396 -21 q 155 76 233 -21 q 76 344 76 172 q 159 615 76 525 q 393 706 242 706 q 638 606 561 706 q 714 344 714 506 q 631 76 714 174 q 396 -21 549 -21 m 394 71 q 567 151 521 71 q 614 344 614 231 q 565 540 614 467 q 394 614 517 614 q 223 536 269 614 q 176 344 176 458 q 225 147 176 222 q 394 71 274 71 z "},"ṍ":{"ha":790,"x_min":76,"x_max":714,"o":"m 396 -21 q 155 76 233 -21 q 76 344 76 172 q 159 615 76 525 q 393 706 242 706 q 638 606 561 706 q 714 344 714 506 q 631 76 714 174 q 396 -21 549 -21 m 394 71 q 567 151 521 71 q 614 344 614 231 q 565 540 614 467 q 394 614 517 614 q 223 536 269 614 q 176 344 176 458 q 225 147 176 222 q 394 71 274 71 z "},"ṏ":{"ha":790,"x_min":76,"x_max":714,"o":"m 396 -21 q 155 76 233 -21 q 76 344 76 172 q 159 615 76 525 q 393 706 242 706 q 638 606 561 706 q 714 344 714 506 q 631 76 714 174 q 396 -21 549 -21 m 394 71 q 567 151 521 71 q 614 344 614 231 q 565 540 614 467 q 394 614 517 614 q 223 536 269 614 q 176 344 176 458 q 225 147 176 222 q 394 71 274 71 z "},"ȭ":{"ha":790,"x_min":76,"x_max":714,"o":"m 396 -21 q 155 76 233 -21 q 76 344 76 172 q 159 615 76 525 q 393 706 242 706 q 638 606 561 706 q 714 344 714 506 q 631 76 714 174 q 396 -21 549 -21 m 394 71 q 567 151 521 71 q 614 344 614 231 q 565 540 614 467 q 394 614 517 614 q 223 536 269 614 q 176 344 176 458 q 225 147 176 222 q 394 71 274 71 z "},"œ":{"ha":1300,"x_min":76,"x_max":1225,"o":"m 396 -21 q 155 76 233 -21 q 76 344 76 172 q 159 615 76 525 q 393 706 242 706 q 638 606 561 706 q 714 344 714 506 q 631 76 714 174 q 396 -21 549 -21 m 394 71 q 567 151 521 71 q 614 344 614 231 q 565 540 614 467 q 394 614 517 614 q 223 536 269 614 q 176 344 176 458 q 225 147 176 222 q 394 71 274 71 m 938 -21 q 703 72 789 -21 q 617 347 617 164 q 698 616 617 526 q 921 706 779 706 q 1157 597 1088 706 q 1224 329 1226 489 l 667 329 l 674 421 l 1158 421 l 1119 407 q 1067 563 1115 511 q 921 614 1018 614 q 768 555 818 614 q 718 329 718 496 q 777 137 718 203 q 943 71 836 71 q 1078 88 1019 71 q 1181 131 1138 104 l 1181 28 q 1070 -8 1131 4 q 938 -21 1010 -21 z "},"p":{"ha":790,"x_min":111,"x_max":714,"o":"m 383 -19 q 277 -2 338 -19 q 176 36 217 15 l 211 71 l 211 -301 l 111 -301 l 111 568 q 158 654 111 625 q 269 694 204 683 q 392 706 335 706 q 615 624 515 706 q 714 329 714 542 q 629 75 714 169 q 383 -19 544 -19 m 383 72 q 553 144 497 72 q 608 329 608 215 q 567 528 608 442 q 390 614 525 614 q 265 597 318 614 q 211 550 211 581 l 211 121 q 297 84 254 96 q 383 72 339 72 z "},"þ":{"ha":790,"x_min":111,"x_max":714,"o":"m 211 -278 l 111 -278 l 111 957 l 211 957 l 211 -278 m 211 121 q 297 84 254 96 q 383 72 339 72 q 553 144 497 72 q 608 329 608 215 q 567 528 608 442 q 390 614 525 614 q 265 597 318 614 q 211 550 211 581 l 111 568 q 158 654 111 625 q 269 694 204 683 q 392 706 335 706 q 615 624 515 706 q 714 329 714 542 q 629 75 714 169 q 383 -19 544 -19 q 277 -2 338 -19 q 176 36 217 15 l 211 121 z "},"q":{"ha":790,"x_min":76,"x_max":679,"o":"m 429 706 q 601 672 524 706 q 679 540 679 639 l 679 -301 l 579 -301 l 579 71 l 614 36 q 513 -2 574 15 q 407 -19 453 -19 q 162 75 247 -19 q 76 329 76 169 q 132 569 78 489 q 267 678 186 650 q 429 706 347 706 m 419 614 q 226 528 269 614 q 182 329 182 442 q 238 144 182 215 q 407 72 293 72 q 493 84 450 72 q 579 121 536 96 l 579 540 q 526 597 579 579 q 419 614 472 614 z "},"r":{"ha":524,"x_min":111,"x_max":475,"o":"m 111 0 l 111 638 q 228 676 136 647 q 431 706 321 706 q 453 703 442 706 q 475 697 464 700 l 475 608 q 383 612 428 614 q 296 603 339 610 q 211 589 253 597 l 211 0 l 111 0 z "},"ŕ":{"ha":524,"x_min":111,"x_max":475,"o":"m 111 0 l 111 638 q 228 676 136 647 q 431 706 321 706 q 453 703 442 706 q 475 697 464 700 l 475 608 q 383 612 428 614 q 296 603 339 610 q 211 589 253 597 l 211 0 l 111 0 z "},"ř":{"ha":524,"x_min":111,"x_max":475,"o":"m 111 0 l 111 638 q 228 676 136 647 q 431 706 321 706 q 453 703 442 706 q 475 697 464 700 l 475 608 q 383 612 428 614 q 296 603 339 610 q 211 589 253 597 l 211 0 l 111 0 z "},"ŗ":{"ha":524,"x_min":67,"x_max":475,"o":"m 111 0 l 111 638 q 228 676 136 647 q 431 706 321 706 q 453 703 442 706 q 475 697 464 700 l 475 608 q 383 612 428 614 q 296 603 339 610 q 211 589 253 597 l 211 0 l 111 0 z "},"ȑ":{"ha":524,"x_min":50,"x_max":475,"o":"m 111 0 l 111 638 q 228 676 136 647 q 431 706 321 706 q 453 703 442 706 q 475 697 464 700 l 475 608 q 383 612 428 614 q 296 603 339 610 q 211 589 253 597 l 211 0 l 111 0 z "},"ȓ":{"ha":524,"x_min":64,"x_max":475,"o":"m 111 0 l 111 638 q 228 676 136 647 q 431 706 321 706 q 453 703 442 706 q 475 697 464 700 l 475 608 q 383 612 428 614 q 296 603 339 610 q 211 589 253 597 l 211 0 l 111 0 z "},"ṟ":{"ha":524,"x_min":-26,"x_max":475,"o":"m 111 0 l 111 638 q 228 676 136 647 q 431 706 321 706 q 453 703 442 706 q 475 697 464 700 l 475 608 q 383 612 428 614 q 296 603 339 610 q 211 589 253 597 l 211 0 l 111 0 z "},"s":{"ha":633,"x_min":76,"x_max":557,"o":"m 307 -21 q 181 -6 232 -21 q 76 38 131 10 l 76 143 q 187 89 140 107 q 300 71 233 71 q 413 101 369 71 q 457 181 457 132 q 410 260 457 239 q 311 304 364 281 q 155 364 231 328 q 79 507 79 400 q 115 622 79 578 q 208 685 151 665 q 321 706 264 706 q 428 689 383 706 q 519 651 472 672 l 519 551 q 425 596 467 578 q 326 614 383 614 q 224 591 269 614 q 179 521 179 568 q 228 439 179 463 q 343 397 278 415 q 439 363 389 383 q 523 303 489 343 q 557 193 557 264 q 477 31 557 82 q 307 -21 397 -21 z "},"ś":{"ha":633,"x_min":76,"x_max":557,"o":"m 307 -21 q 181 -6 232 -21 q 76 38 131 10 l 76 143 q 187 89 140 107 q 300 71 233 71 q 413 101 369 71 q 457 181 457 132 q 410 260 457 239 q 311 304 364 281 q 155 364 231 328 q 79 507 79 400 q 115 622 79 578 q 208 685 151 665 q 321 706 264 706 q 428 689 383 706 q 519 651 472 672 l 519 551 q 425 596 467 578 q 326 614 383 614 q 224 591 269 614 q 179 521 179 568 q 228 439 179 463 q 343 397 278 415 q 439 363 389 383 q 523 303 489 343 q 557 193 557 264 q 477 31 557 82 q 307 -21 397 -21 z "},"ṥ":{"ha":633,"x_min":76,"x_max":557,"o":"m 307 -21 q 181 -6 232 -21 q 76 38 131 10 l 76 143 q 187 89 140 107 q 300 71 233 71 q 413 101 369 71 q 457 181 457 132 q 410 260 457 239 q 311 304 364 281 q 155 364 231 328 q 79 507 79 400 q 115 622 79 578 q 208 685 151 665 q 321 706 264 706 q 428 689 383 706 q 519 651 472 672 l 519 551 q 425 596 467 578 q 326 614 383 614 q 224 591 269 614 q 179 521 179 568 q 228 439 179 463 q 343 397 278 415 q 439 363 389 383 q 523 303 489 343 q 557 193 557 264 q 477 31 557 82 q 307 -21 397 -21 z "},"š":{"ha":633,"x_min":76,"x_max":557,"o":"m 307 -21 q 181 -6 232 -21 q 76 38 131 10 l 76 143 q 187 89 140 107 q 300 71 233 71 q 413 101 369 71 q 457 181 457 132 q 410 260 457 239 q 311 304 364 281 q 155 364 231 328 q 79 507 79 400 q 115 622 79 578 q 208 685 151 665 q 321 706 264 706 q 428 689 383 706 q 519 651 472 672 l 519 551 q 425 596 467 578 q 326 614 383 614 q 224 591 269 614 q 179 521 179 568 q 228 439 179 463 q 343 397 278 415 q 439 363 389 383 q 523 303 489 343 q 557 193 557 264 q 477 31 557 82 q 307 -21 397 -21 z "},"ṧ":{"ha":633,"x_min":76,"x_max":557,"o":"m 307 -21 q 181 -6 232 -21 q 76 38 131 10 l 76 143 q 187 89 140 107 q 300 71 233 71 q 413 101 369 71 q 457 181 457 132 q 410 260 457 239 q 311 304 364 281 q 155 364 231 328 q 79 507 79 400 q 115 622 79 578 q 208 685 151 665 q 321 706 264 706 q 428 689 383 706 q 519 651 472 672 l 519 551 q 425 596 467 578 q 326 614 383 614 q 224 591 269 614 q 179 521 179 568 q 228 439 179 463 q 343 397 278 415 q 439 363 389 383 q 523 303 489 343 q 557 193 557 264 q 477 31 557 82 q 307 -21 397 -21 z "},"ş":{"ha":633,"x_min":76,"x_max":557,"o":"m 307 -21 q 181 -6 232 -21 q 76 38 131 10 l 76 143 q 187 89 140 107 q 300 71 233 71 q 413 101 369 71 q 457 181 457 132 q 410 260 457 239 q 311 304 364 281 q 155 364 231 328 q 79 507 79 400 q 115 622 79 578 q 208 685 151 665 q 321 706 264 706 q 428 689 383 706 q 519 651 472 672 l 519 551 q 425 596 467 578 q 326 614 383 614 q 224 591 269 614 q 179 521 179 568 q 228 439 179 463 q 343 397 278 415 q 439 363 389 383 q 523 303 489 343 q 557 193 557 264 q 477 31 557 82 q 307 -21 397 -21 z "},"ŝ":{"ha":633,"x_min":76,"x_max":557,"o":"m 307 -21 q 181 -6 232 -21 q 76 38 131 10 l 76 143 q 187 89 140 107 q 300 71 233 71 q 413 101 369 71 q 457 181 457 132 q 410 260 457 239 q 311 304 364 281 q 155 364 231 328 q 79 507 79 400 q 115 622 79 578 q 208 685 151 665 q 321 706 264 706 q 428 689 383 706 q 519 651 472 672 l 519 551 q 425 596 467 578 q 326 614 383 614 q 224 591 269 614 q 179 521 179 568 q 228 439 179 463 q 343 397 278 415 q 439 363 389 383 q 523 303 489 343 q 557 193 557 264 q 477 31 557 82 q 307 -21 397 -21 z "},"ș":{"ha":633,"x_min":76,"x_max":557,"o":"m 307 -21 q 181 -6 232 -21 q 76 38 131 10 l 76 143 q 187 89 140 107 q 300 71 233 71 q 413 101 369 71 q 457 181 457 132 q 410 260 457 239 q 311 304 364 281 q 155 364 231 328 q 79 507 79 400 q 115 622 79 578 q 208 685 151 665 q 321 706 264 706 q 428 689 383 706 q 519 651 472 672 l 519 551 q 425 596 467 578 q 326 614 383 614 q 224 591 269 614 q 179 521 179 568 q 228 439 179 463 q 343 397 278 415 q 439 363 389 383 q 523 303 489 343 q 557 193 557 264 q 477 31 557 82 q 307 -21 397 -21 z "},"ṡ":{"ha":633,"x_min":76,"x_max":557,"o":"m 307 -21 q 181 -6 232 -21 q 76 38 131 10 l 76 143 q 187 89 140 107 q 300 71 233 71 q 413 101 369 71 q 457 181 457 132 q 410 260 457 239 q 311 304 364 281 q 155 364 231 328 q 79 507 79 400 q 115 622 79 578 q 208 685 151 665 q 321 706 264 706 q 428 689 383 706 q 519 651 472 672 l 519 551 q 425 596 467 578 q 326 614 383 614 q 224 591 269 614 q 179 521 179 568 q 228 439 179 463 q 343 397 278 415 q 439 363 389 383 q 523 303 489 343 q 557 193 557 264 q 477 31 557 82 q 307 -21 397 -21 z "},"ṣ":{"ha":633,"x_min":76,"x_max":557,"o":"m 307 -21 q 181 -6 232 -21 q 76 38 131 10 l 76 143 q 187 89 140 107 q 300 71 233 71 q 413 101 369 71 q 457 181 457 132 q 410 260 457 239 q 311 304 364 281 q 155 364 231 328 q 79 507 79 400 q 115 622 79 578 q 208 685 151 665 q 321 706 264 706 q 428 689 383 706 q 519 651 472 672 l 519 551 q 425 596 467 578 q 326 614 383 614 q 224 591 269 614 q 179 521 179 568 q 228 439 179 463 q 343 397 278 415 q 439 363 389 383 q 523 303 489 343 q 557 193 557 264 q 477 31 557 82 q 307 -21 397 -21 m 226 -179 l 226 -69 l 336 -69 l 336 -179 l 226 -179 z "},"ṩ":{"ha":633,"x_min":76,"x_max":557,"o":"m 307 -21 q 181 -6 232 -21 q 76 38 131 10 l 76 143 q 187 89 140 107 q 300 71 233 71 q 413 101 369 71 q 457 181 457 132 q 410 260 457 239 q 311 304 364 281 q 155 364 231 328 q 79 507 79 400 q 115 622 79 578 q 208 685 151 665 q 321 706 264 706 q 428 689 383 706 q 519 651 472 672 l 519 551 q 425 596 467 578 q 326 614 383 614 q 224 591 269 614 q 179 521 179 568 q 228 439 179 463 q 343 397 278 415 q 439 363 389 383 q 523 303 489 343 q 557 193 557 264 q 477 31 557 82 q 307 -21 397 -21 m 226 -179 l 226 -69 l 336 -69 l 336 -179 l 226 -179 z "},"ß":{"ha":813,"x_min":111,"x_max":736,"o":"m 111 0 l 111 588 q 176 836 111 733 q 397 939 242 939 q 606 883 522 939 q 690 721 690 828 q 672 622 690 664 q 624 552 653 579 q 561 514 594 525 q 675 426 614 497 q 736 240 736 356 q 669 60 736 138 q 463 -18 603 -18 q 346 0 415 -18 l 346 99 q 410 80 379 86 q 467 74 440 74 q 633 246 633 74 q 561 400 633 344 q 410 456 489 456 l 410 543 q 546 590 504 543 q 588 708 588 636 q 531 818 588 786 q 400 850 474 850 q 254 782 297 850 q 211 597 211 714 l 211 0 l 111 0 z "},"t":{"ha":504,"x_min":35,"x_max":435,"o":"m 329 -11 q 206 34 256 -11 q 156 168 156 79 l 156 601 l 35 601 l 35 693 l 156 693 l 156 889 l 256 889 l 256 693 l 435 693 l 435 601 l 256 601 l 256 200 q 274 113 256 142 q 347 83 292 83 q 435 100 399 83 l 435 6 q 385 -6 415 -1 q 329 -11 356 -11 z "},"ŧ":{"ha":479,"x_min":33,"x_max":433,"o":"m 342 -11 q 269 1 314 -11 q 189 54 224 13 q 154 185 154 96 l 154 339 l 51 339 l 51 422 l 154 422 l 154 601 l 33 601 l 33 693 l 154 693 l 154 889 l 254 889 l 254 693 l 433 693 l 433 601 l 254 601 l 254 422 l 413 422 l 413 339 l 254 339 l 254 179 q 354 83 254 83 q 433 100 400 83 l 433 6 q 391 -6 414 -1 q 342 -11 368 -11 z "},"ť":{"ha":525,"x_min":35,"x_max":563,"o":"m 329 -11 q 206 34 256 -11 q 156 168 156 79 l 156 601 l 35 601 l 35 693 l 156 693 l 156 889 l 256 889 l 256 693 l 435 693 l 435 601 l 256 601 l 256 200 q 274 113 256 142 q 347 83 292 83 q 435 100 399 83 l 435 6 q 385 -6 415 -1 q 329 -11 356 -11 z "},"ţ":{"ha":504,"x_min":35,"x_max":435,"o":"m 329 -11 q 206 34 256 -11 q 156 168 156 79 l 156 601 l 35 601 l 35 693 l 156 693 l 156 889 l 256 889 l 256 693 l 435 693 l 435 601 l 256 601 l 256 200 q 274 113 256 142 q 347 83 292 83 q 435 100 399 83 l 435 6 q 385 -6 415 -1 q 329 -11 356 -11 z "},"ẗ":{"ha":504,"x_min":35,"x_max":435,"o":"m 329 -11 q 206 34 256 -11 q 156 168 156 79 l 156 601 l 35 601 l 35 693 l 156 693 l 156 889 l 256 889 l 256 693 l 435 693 l 435 601 l 256 601 l 256 200 q 274 113 256 142 q 347 83 292 83 q 435 100 399 83 l 435 6 q 385 -6 415 -1 q 329 -11 356 -11 z "},"ṭ":{"ha":504,"x_min":35,"x_max":435,"o":"m 329 -11 q 206 34 256 -11 q 156 168 156 79 l 156 601 l 35 601 l 35 693 l 156 693 l 156 889 l 256 889 l 256 693 l 435 693 l 435 601 l 256 601 l 256 200 q 274 113 256 142 q 347 83 292 83 q 435 100 399 83 l 435 6 q 385 -6 415 -1 q 329 -11 356 -11 m 186 -179 l 186 -69 l 296 -69 l 296 -179 l 186 -179 z "},"ṯ":{"ha":504,"x_min":35,"x_max":435,"o":"m 329 -11 q 206 34 256 -11 q 156 168 156 79 l 156 601 l 35 601 l 35 693 l 156 693 l 156 889 l 256 889 l 256 693 l 435 693 l 435 601 l 256 601 l 256 200 q 274 113 256 142 q 347 83 292 83 q 435 100 399 83 l 435 6 q 385 -6 415 -1 q 329 -11 356 -11 z "},"u":{"ha":803,"x_min":111,"x_max":692,"o":"m 401 -21 q 187 51 263 -21 q 111 254 111 122 l 111 693 l 211 693 l 211 276 q 401 72 211 72 q 592 276 592 72 l 592 693 l 692 693 l 692 254 q 616 51 692 122 q 401 -21 540 -21 z "},"ú":{"ha":803,"x_min":111,"x_max":692,"o":"m 401 -21 q 187 51 263 -21 q 111 254 111 122 l 111 693 l 211 693 l 211 276 q 401 72 211 72 q 592 276 592 72 l 592 693 l 692 693 l 692 254 q 616 51 692 122 q 401 -21 540 -21 z "},"ŭ":{"ha":803,"x_min":111,"x_max":692,"o":"m 401 -21 q 187 51 263 -21 q 111 254 111 122 l 111 693 l 211 693 l 211 276 q 401 72 211 72 q 592 276 592 72 l 592 693 l 692 693 l 692 254 q 616 51 692 122 q 401 -21 540 -21 z "},"ǔ":{"ha":803,"x_min":111,"x_max":692,"o":"m 401 -21 q 187 51 263 -21 q 111 254 111 122 l 111 693 l 211 693 l 211 276 q 401 72 211 72 q 592 276 592 72 l 592 693 l 692 693 l 692 254 q 616 51 692 122 q 401 -21 540 -21 z "},"û":{"ha":803,"x_min":111,"x_max":692,"o":"m 401 -21 q 187 51 263 -21 q 111 254 111 122 l 111 693 l 211 693 l 211 276 q 401 72 211 72 q 592 276 592 72 l 592 693 l 692 693 l 692 254 q 616 51 692 122 q 401 -21 540 -21 z "},"ȕ":{"ha":803,"x_min":111,"x_max":692,"o":"m 401 -21 q 187 51 263 -21 q 111 254 111 122 l 111 693 l 211 693 l 211 276 q 401 72 211 72 q 592 276 592 72 l 592 693 l 692 693 l 692 254 q 616 51 692 122 q 401 -21 540 -21 z "},"ü":{"ha":803,"x_min":111,"x_max":692,"o":"m 401 -21 q 187 51 263 -21 q 111 254 111 122 l 111 693 l 211 693 l 211 276 q 401 72 211 72 q 592 276 592 72 l 592 693 l 692 693 l 692 254 q 616 51 692 122 q 401 -21 540 -21 z "},"ụ":{"ha":815,"x_min":114,"x_max":694,"o":"m 404 -12 q 190 67 265 -12 q 114 290 114 147 l 114 693 l 214 693 l 214 286 q 404 81 214 81 q 594 286 594 81 l 594 693 l 694 693 l 694 290 q 619 67 694 147 q 404 -12 543 -12 m 350 -178 l 350 -68 l 460 -68 l 460 -178 l 350 -178 z "},"ù":{"ha":803,"x_min":111,"x_max":692,"o":"m 401 -21 q 187 51 263 -21 q 111 254 111 122 l 111 693 l 211 693 l 211 276 q 401 72 211 72 q 592 276 592 72 l 592 693 l 692 693 l 692 254 q 616 51 692 122 q 401 -21 540 -21 z "},"ủ":{"ha":815,"x_min":114,"x_max":694,"o":"m 404 -12 q 190 67 265 -12 q 114 290 114 147 l 114 693 l 214 693 l 214 286 q 404 81 214 81 q 594 286 594 81 l 594 693 l 694 693 l 694 290 q 619 67 694 147 q 404 -12 543 -12 m 385 783 l 385 856 q 425 867 414 857 q 436 889 436 878 q 419 916 436 907 q 371 925 401 925 q 333 922 353 925 l 333 982 q 376 986 353 986 q 461 967 419 986 q 503 892 503 947 q 485 843 503 864 q 431 817 468 822 l 431 783 l 385 783 z "},"ư":{"ha":803,"x_min":111,"x_max":801,"o":"m 401 -21 q 187 51 263 -21 q 111 254 111 122 l 111 693 l 211 693 l 211 276 q 401 72 211 72 q 592 276 592 72 l 592 693 l 692 693 l 692 254 q 616 51 692 122 q 401 -21 540 -21 m 626 621 l 624 693 q 694 721 663 693 q 726 788 726 749 l 726 824 l 801 824 l 801 785 q 748 664 801 707 q 626 621 694 621 z "},"ứ":{"ha":803,"x_min":111,"x_max":801,"o":"m 401 -21 q 187 51 263 -21 q 111 254 111 122 l 111 693 l 211 693 l 211 276 q 401 72 211 72 q 592 276 592 72 l 592 693 l 692 693 l 692 254 q 616 51 692 122 q 401 -21 540 -21 m 626 621 l 624 693 q 694 721 663 693 q 726 788 726 749 l 726 824 l 801 824 l 801 785 q 748 664 801 707 q 626 621 694 621 z "},"ự":{"ha":803,"x_min":111,"x_max":801,"o":"m 401 -21 q 187 51 263 -21 q 111 254 111 122 l 111 693 l 211 693 l 211 276 q 401 72 211 72 q 592 276 592 72 l 592 693 l 692 693 l 692 254 q 616 51 692 122 q 401 -21 540 -21 m 626 621 l 624 693 q 694 721 663 693 q 726 788 726 749 l 726 824 l 801 824 l 801 785 q 748 664 801 707 q 626 621 694 621 m 346 -179 l 346 -69 l 456 -69 l 456 -179 l 346 -179 z "},"ừ":{"ha":803,"x_min":111,"x_max":801,"o":"m 401 -21 q 187 51 263 -21 q 111 254 111 122 l 111 693 l 211 693 l 211 276 q 401 72 211 72 q 592 276 592 72 l 592 693 l 692 693 l 692 254 q 616 51 692 122 q 401 -21 540 -21 m 626 621 l 624 693 q 694 721 663 693 q 726 788 726 749 l 726 824 l 801 824 l 801 785 q 748 664 801 707 q 626 621 694 621 z "},"ử":{"ha":803,"x_min":111,"x_max":801,"o":"m 401 -21 q 187 51 263 -21 q 111 254 111 122 l 111 693 l 211 693 l 211 276 q 401 72 211 72 q 592 276 592 72 l 592 693 l 692 693 l 692 254 q 616 51 692 122 q 401 -21 540 -21 m 626 621 l 624 693 q 694 721 663 693 q 726 788 726 749 l 726 824 l 801 824 l 801 785 q 748 664 801 707 q 626 621 694 621 m 367 781 l 367 853 q 419 886 419 854 q 353 922 419 922 q 315 919 338 922 l 315 979 q 337 982 326 981 q 358 983 347 983 q 444 964 401 983 q 486 889 486 944 q 413 814 486 828 l 413 781 l 367 781 z "},"ữ":{"ha":803,"x_min":111,"x_max":801,"o":"m 401 -21 q 187 51 263 -21 q 111 254 111 122 l 111 693 l 211 693 l 211 276 q 401 72 211 72 q 592 276 592 72 l 592 693 l 692 693 l 692 254 q 616 51 692 122 q 401 -21 540 -21 m 626 621 l 624 693 q 694 721 663 693 q 726 788 726 749 l 726 824 l 801 824 l 801 785 q 748 664 801 707 q 626 621 694 621 z "},"ű":{"ha":803,"x_min":111,"x_max":692,"o":"m 401 -21 q 187 51 263 -21 q 111 254 111 122 l 111 693 l 211 693 l 211 276 q 401 72 211 72 q 592 276 592 72 l 592 693 l 692 693 l 692 254 q 616 51 692 122 q 401 -21 540 -21 z "},"ȗ":{"ha":803,"x_min":111,"x_max":692,"o":"m 401 -21 q 187 51 263 -21 q 111 254 111 122 l 111 693 l 211 693 l 211 276 q 401 72 211 72 q 592 276 592 72 l 592 693 l 692 693 l 692 254 q 616 51 692 122 q 401 -21 540 -21 z "},"ū":{"ha":803,"x_min":111,"x_max":692,"o":"m 401 -21 q 187 51 263 -21 q 111 254 111 122 l 111 693 l 211 693 l 211 276 q 401 72 211 72 q 592 276 592 72 l 592 693 l 692 693 l 692 254 q 616 51 692 122 q 401 -21 540 -21 z "},"ṻ":{"ha":803,"x_min":111,"x_max":692,"o":"m 401 -21 q 187 51 263 -21 q 111 254 111 122 l 111 693 l 211 693 l 211 276 q 401 72 211 72 q 592 276 592 72 l 592 693 l 692 693 l 692 254 q 616 51 692 122 q 401 -21 540 -21 z "},"ț":{"ha":479,"x_min":33,"x_max":433,"o":"m 342 -11 q 269 1 314 -11 q 189 54 224 13 q 154 185 154 96 l 154 601 l 33 601 l 33 693 l 154 693 l 154 889 l 254 889 l 254 693 l 433 693 l 433 601 l 254 601 l 254 179 q 354 83 254 83 q 433 100 400 83 l 433 6 q 391 -6 414 -1 q 342 -11 368 -11 m 215 -268 l 215 -193 q 263 -138 254 -178 q 272 -68 272 -99 l 354 -68 q 308 -213 354 -168 q 215 -268 261 -258 z "},"ų":{"ha":803,"x_min":111,"x_max":692,"o":"m 401 -21 q 187 51 263 -21 q 111 254 111 122 l 111 693 l 211 693 l 211 276 q 401 72 211 72 q 592 276 592 72 l 592 693 l 692 693 l 692 254 q 616 51 692 122 q 401 -21 540 -21 z "},"ů":{"ha":803,"x_min":111,"x_max":692,"o":"m 401 -21 q 187 51 263 -21 q 111 254 111 122 l 111 693 l 211 693 l 211 276 q 401 72 211 72 q 592 276 592 72 l 592 693 l 692 693 l 692 254 q 616 51 692 122 q 401 -21 540 -21 z "},"ũ":{"ha":803,"x_min":111,"x_max":692,"o":"m 401 -21 q 187 51 263 -21 q 111 254 111 122 l 111 693 l 211 693 l 211 276 q 401 72 211 72 q 592 276 592 72 l 592 693 l 692 693 l 692 254 q 616 51 692 122 q 401 -21 540 -21 z "},"ṹ":{"ha":803,"x_min":111,"x_max":692,"o":"m 401 -21 q 187 51 263 -21 q 111 254 111 122 l 111 693 l 211 693 l 211 276 q 401 72 211 72 q 592 276 592 72 l 592 693 l 692 693 l 692 254 q 616 51 692 122 q 401 -21 540 -21 z "},"v":{"ha":786,"x_min":49,"x_max":738,"o":"m 342 0 l 49 693 l 156 693 l 411 86 l 389 81 l 638 693 l 738 693 l 443 0 l 342 0 z "},"w":{"ha":1106,"x_min":49,"x_max":1057,"o":"m 279 0 l 49 693 l 154 693 l 347 75 l 321 64 l 504 693 l 600 693 l 785 81 l 765 81 l 958 693 l 1057 693 l 826 0 l 725 0 l 540 614 l 558 597 l 381 0 l 279 0 z "},"ẃ":{"ha":1106,"x_min":49,"x_max":1057,"o":"m 279 0 l 49 693 l 154 693 l 347 75 l 321 64 l 504 693 l 600 693 l 785 81 l 765 81 l 958 693 l 1057 693 l 826 0 l 725 0 l 540 614 l 558 597 l 381 0 l 279 0 z "},"ŵ":{"ha":1106,"x_min":49,"x_max":1057,"o":"m 279 0 l 49 693 l 154 693 l 347 75 l 321 64 l 504 693 l 600 693 l 785 81 l 765 81 l 958 693 l 1057 693 l 826 0 l 725 0 l 540 614 l 558 597 l 381 0 l 279 0 z "},"ẅ":{"ha":1106,"x_min":49,"x_max":1057,"o":"m 279 0 l 49 693 l 154 693 l 347 75 l 321 64 l 504 693 l 600 693 l 785 81 l 765 81 l 958 693 l 1057 693 l 826 0 l 725 0 l 540 614 l 558 597 l 381 0 l 279 0 z "},"ẁ":{"ha":1106,"x_min":49,"x_max":1057,"o":"m 279 0 l 49 693 l 154 693 l 347 75 l 321 64 l 504 693 l 600 693 l 785 81 l 765 81 l 958 693 l 1057 693 l 826 0 l 725 0 l 540 614 l 558 597 l 381 0 l 279 0 z "},"x":{"ha":739,"x_min":49,"x_max":690,"o":"m 389 303 l 161 0 l 49 0 l 329 378 l 389 303 m 690 0 l 563 0 l 56 693 l 182 693 l 690 0 m 343 388 l 572 693 l 688 693 l 399 303 l 343 388 z "},"y":{"ha":750,"x_min":49,"x_max":701,"o":"m 186 -268 q 148 -264 165 -268 q 121 -256 131 -260 l 121 -164 q 146 -172 131 -168 q 181 -176 161 -176 q 284 -119 251 -176 q 343 19 317 -62 l 343 -21 l 49 693 l 163 693 l 393 101 l 372 101 l 601 693 l 701 693 l 404 -68 q 295 -230 356 -192 q 186 -268 235 -268 z "},"ý":{"ha":750,"x_min":49,"x_max":701,"o":"m 186 -268 q 148 -264 165 -268 q 121 -256 131 -260 l 121 -164 q 146 -172 131 -168 q 181 -176 161 -176 q 284 -119 251 -176 q 343 19 317 -62 l 343 -21 l 49 693 l 163 693 l 393 101 l 372 101 l 601 693 l 701 693 l 404 -68 q 295 -230 356 -192 q 186 -268 235 -268 z "},"ŷ":{"ha":750,"x_min":49,"x_max":701,"o":"m 186 -268 q 148 -264 165 -268 q 121 -256 131 -260 l 121 -164 q 146 -172 131 -168 q 181 -176 161 -176 q 284 -119 251 -176 q 343 19 317 -62 l 343 -21 l 49 693 l 163 693 l 393 101 l 372 101 l 601 693 l 701 693 l 404 -68 q 295 -230 356 -192 q 186 -268 235 -268 z "},"ÿ":{"ha":750,"x_min":49,"x_max":701,"o":"m 186 -268 q 148 -264 165 -268 q 121 -256 131 -260 l 121 -164 q 146 -172 131 -168 q 181 -176 161 -176 q 284 -119 251 -176 q 343 19 317 -62 l 343 -21 l 49 693 l 163 693 l 393 101 l 372 101 l 601 693 l 701 693 l 404 -68 q 295 -230 356 -192 q 186 -268 235 -268 z "},"ẏ":{"ha":750,"x_min":49,"x_max":701,"o":"m 186 -268 q 148 -264 165 -268 q 121 -256 131 -260 l 121 -164 q 146 -172 131 -168 q 181 -176 161 -176 q 284 -119 251 -176 q 343 19 317 -62 l 343 -21 l 49 693 l 163 693 l 393 101 l 372 101 l 601 693 l 701 693 l 404 -68 q 295 -230 356 -192 q 186 -268 235 -268 z "},"ỵ":{"ha":750,"x_min":49,"x_max":701,"o":"m 186 -268 q 148 -264 165 -268 q 121 -256 131 -260 l 121 -164 q 146 -172 131 -168 q 181 -176 161 -176 q 284 -119 251 -176 q 343 19 317 -62 l 343 -21 l 49 693 l 163 693 l 393 101 l 372 101 l 601 693 l 701 693 l 404 -68 q 295 -230 356 -192 q 186 -268 235 -268 m 497 -179 l 497 -69 l 607 -69 l 607 -179 l 497 -179 z "},"ỳ":{"ha":750,"x_min":49,"x_max":701,"o":"m 186 -268 q 148 -264 165 -268 q 121 -256 131 -260 l 121 -164 q 146 -172 131 -168 q 181 -176 161 -176 q 284 -119 251 -176 q 343 19 317 -62 l 343 -21 l 49 693 l 163 693 l 393 101 l 372 101 l 601 693 l 701 693 l 404 -68 q 295 -230 356 -192 q 186 -268 235 -268 z "},"ỷ":{"ha":750,"x_min":49,"x_max":701,"o":"m 186 -268 q 148 -264 165 -268 q 121 -256 131 -260 l 121 -164 q 146 -172 131 -168 q 181 -176 161 -176 q 284 -119 251 -176 q 343 19 317 -62 l 343 -21 l 49 693 l 163 693 l 393 101 l 372 101 l 601 693 l 701 693 l 404 -68 q 295 -230 356 -192 q 186 -268 235 -268 m 347 781 l 347 853 q 400 886 400 854 q 333 922 400 922 q 296 919 318 922 l 296 979 q 317 982 307 981 q 339 983 328 983 q 424 964 382 983 q 467 889 467 944 q 393 814 467 828 l 393 781 l 347 781 z "},"ȳ":{"ha":750,"x_min":49,"x_max":701,"o":"m 186 -268 q 148 -264 165 -268 q 121 -256 131 -260 l 121 -164 q 146 -172 131 -168 q 181 -176 161 -176 q 284 -119 251 -176 q 343 19 317 -62 l 343 -21 l 49 693 l 163 693 l 393 101 l 372 101 l 601 693 l 701 693 l 404 -68 q 295 -230 356 -192 q 186 -268 235 -268 z "},"ỹ":{"ha":750,"x_min":49,"x_max":701,"o":"m 186 -268 q 148 -264 165 -268 q 121 -256 131 -260 l 121 -164 q 146 -172 131 -168 q 181 -176 161 -176 q 284 -119 251 -176 q 343 19 317 -62 l 343 -21 l 49 693 l 163 693 l 393 101 l 372 101 l 601 693 l 701 693 l 404 -68 q 295 -230 356 -192 q 186 -268 235 -268 z "},"z":{"ha":632,"x_min":63,"x_max":569,"o":"m 63 0 l 63 90 l 474 638 l 494 607 l 72 607 l 72 693 l 569 693 l 569 606 l 158 63 l 158 89 l 569 89 l 569 0 l 63 0 z "},"ź":{"ha":632,"x_min":63,"x_max":569,"o":"m 63 0 l 63 90 l 474 638 l 494 607 l 72 607 l 72 693 l 569 693 l 569 606 l 158 63 l 158 89 l 569 89 l 569 0 l 63 0 z "},"ž":{"ha":632,"x_min":63,"x_max":569,"o":"m 63 0 l 63 90 l 474 638 l 494 607 l 72 607 l 72 693 l 569 693 l 569 606 l 158 63 l 158 89 l 569 89 l 569 0 l 63 0 z "},"ż":{"ha":632,"x_min":63,"x_max":569,"o":"m 63 0 l 63 90 l 474 638 l 494 607 l 72 607 l 72 693 l 569 693 l 569 606 l 158 63 l 158 89 l 569 89 l 569 0 l 63 0 z "},"ﬁ":{"ha":825,"x_min":56,"x_max":714,"o":"m 175 0 l 175 601 l 56 601 l 56 693 l 175 693 l 175 731 q 219 911 175 858 q 317 974 264 964 q 399 985 371 985 q 465 976 436 985 l 465 888 q 443 891 456 889 q 415 893 431 893 q 321 873 367 893 q 275 732 275 853 l 275 693 l 465 693 l 465 601 l 275 601 l 275 0 l 175 0 m 608 0 l 608 693 l 708 693 l 708 0 l 608 0 m 603 817 l 603 926 l 714 926 l 714 817 l 603 817 z "},"ﬂ":{"ha":815,"x_min":56,"x_max":704,"o":"m 175 0 l 175 601 l 56 601 l 56 693 l 175 693 l 175 731 q 219 911 175 858 q 317 974 264 964 q 399 985 371 985 q 465 976 436 985 l 465 888 q 443 891 456 889 q 415 893 431 893 q 321 873 367 893 q 275 732 275 853 l 275 693 l 465 693 l 465 601 l 275 601 l 275 0 l 175 0 m 704 0 l 604 0 l 604 957 l 704 957 l 704 0 z "},"ª":{"ha":547,"x_min":106,"x_max":425,"o":"m 267 540 q 203 549 242 540 q 135 583 165 557 q 106 664 106 610 q 151 764 106 738 q 267 790 197 790 q 340 783 310 790 q 369 776 369 776 q 261 883 369 883 q 188 874 219 883 q 144 860 156 864 l 144 914 q 197 930 165 922 q 264 938 228 938 q 425 778 425 938 l 425 661 q 365 561 425 582 q 267 540 304 540 m 267 592 q 336 605 303 592 q 369 663 369 618 l 369 726 q 340 733 369 726 q 278 740 310 740 q 201 728 242 740 q 161 665 161 717 q 196 605 161 618 q 267 592 231 592 z "},"º":{"ha":579,"x_min":106,"x_max":467,"o":"m 286 540 q 165 578 225 540 q 106 739 106 617 q 165 901 106 863 q 286 939 225 939 q 408 901 349 939 q 467 739 467 863 q 408 578 467 617 q 286 540 349 540 m 286 592 q 411 739 411 592 q 286 888 411 888 q 161 739 161 888 q 286 592 161 592 z "},"π":{"ha":864,"x_min":46,"x_max":818,"o":"m 197 0 l 197 601 l 46 601 l 46 693 l 818 693 l 818 601 l 667 601 l 667 0 l 575 0 l 575 601 l 289 601 l 289 0 l 197 0 z "},"₀":{"ha":524,"x_min":64,"x_max":457,"o":"m 261 -217 q 114 -152 164 -217 q 64 39 64 -87 q 114 230 64 165 q 261 294 164 294 q 408 230 358 294 q 457 39 457 165 q 408 -152 457 -87 q 261 -217 358 -217 m 261 -147 q 330 -115 288 -147 q 372 39 372 -83 q 330 193 372 161 q 261 225 288 225 q 191 193 233 225 q 149 39 149 161 q 191 -115 149 -83 q 261 -147 233 -147 z "},"₁":{"ha":325,"x_min":74,"x_max":226,"o":"m 132 -207 l 132 235 l 150 178 l 74 128 l 74 233 l 165 292 l 226 292 l 226 -207 l 132 -207 z "},"₂":{"ha":456,"x_min":74,"x_max":388,"o":"m 74 -207 l 74 -160 q 165 -78 117 -128 q 249 28 214 -29 q 285 142 285 86 q 260 192 285 171 q 194 213 236 213 q 129 199 161 213 q 79 171 97 185 l 79 260 q 137 286 103 275 q 214 297 171 297 q 343 253 306 297 q 381 158 381 208 q 313 -12 381 72 q 176 -153 244 -97 l 163 -125 l 388 -125 l 388 -207 l 74 -207 z "},"₃":{"ha":449,"x_min":74,"x_max":390,"o":"m 207 -212 q 133 -203 167 -212 q 74 -182 100 -194 l 74 -96 q 129 -119 97 -108 q 200 -129 161 -129 q 267 -112 236 -129 q 297 -51 297 -94 q 266 2 297 -14 q 197 18 235 18 l 143 18 l 143 97 l 200 97 q 247 111 224 97 q 271 164 271 125 q 249 199 271 185 q 193 213 228 213 q 133 205 160 213 q 86 186 106 197 l 86 272 q 137 290 108 283 q 200 297 165 297 q 328 254 292 297 q 365 164 365 211 q 333 85 365 108 q 301 63 301 63 q 355 26 319 50 q 390 -65 390 3 q 372 -134 390 -100 q 315 -190 354 -168 q 207 -212 275 -212 z "},"₄":{"ha":456,"x_min":40,"x_max":407,"o":"m 240 -207 l 240 -85 l 40 -85 l 40 0 l 276 292 l 336 292 l 336 -7 l 407 -7 l 407 -85 l 336 -85 l 336 -207 l 240 -207 m 128 -7 l 240 -7 l 240 196 l 310 214 l 128 -7 z "},"₅":{"ha":443,"x_min":76,"x_max":389,"o":"m 231 -212 q 146 -203 181 -212 q 88 -182 111 -194 l 88 -99 q 135 -121 103 -108 q 206 -133 167 -133 q 294 -65 294 -133 q 261 7 294 -8 q 196 22 228 22 q 135 10 160 22 q 110 -1 110 -1 l 76 61 l 101 292 l 357 292 l 357 210 l 175 210 l 161 90 q 201 99 181 96 q 250 103 221 103 q 339 74 289 103 q 389 -54 389 44 q 337 -183 389 -153 q 231 -212 285 -212 z "},"₆":{"ha":469,"x_min":36,"x_max":417,"o":"m 247 -212 q 84 -153 132 -212 q 36 21 36 -94 q 81 205 36 146 q 188 281 125 264 q 306 297 250 297 q 344 294 325 297 q 378 289 363 292 l 378 210 q 347 217 364 214 q 311 219 331 219 q 251 211 289 219 q 178 174 213 203 q 135 79 144 144 q 176 100 149 89 q 247 111 204 111 q 371 69 325 111 q 417 -44 417 28 q 379 -158 417 -103 q 247 -212 342 -212 m 233 -135 q 301 -110 282 -135 q 321 -44 321 -86 q 294 10 321 -14 q 229 33 268 33 q 167 17 193 33 q 132 -8 142 1 q 170 -114 133 -93 q 233 -135 207 -135 z "},"₇":{"ha":438,"x_min":56,"x_max":394,"o":"m 106 -207 l 325 283 l 367 210 l 56 210 l 56 292 l 394 292 l 394 240 l 193 -207 l 106 -207 z "},"₈":{"ha":461,"x_min":60,"x_max":404,"o":"m 232 -212 q 98 -162 136 -212 q 60 -58 60 -111 q 102 37 60 11 q 144 63 144 63 q 111 86 144 63 q 78 169 78 110 q 113 256 78 215 q 232 297 147 297 q 351 256 317 297 q 385 169 385 215 q 353 85 385 108 q 321 63 321 63 q 363 36 321 63 q 404 -58 404 10 q 365 -162 404 -111 q 232 -212 326 -212 m 232 -133 q 292 -110 275 -133 q 308 -58 308 -87 q 285 6 308 -14 q 232 26 261 26 q 178 6 201 26 q 156 -58 156 -14 q 176 -110 156 -87 q 232 -133 197 -133 m 232 97 q 276 117 263 97 q 290 158 290 136 q 273 205 290 193 q 232 217 256 217 q 194 204 214 217 q 175 157 175 192 q 188 117 175 136 q 232 97 200 97 z "},"₉":{"ha":469,"x_min":40,"x_max":421,"o":"m 153 -212 q 79 -203 115 -212 l 79 -125 q 111 -132 94 -129 q 146 -135 128 -135 q 206 -126 167 -135 q 279 -88 244 -118 q 322 6 314 -58 q 281 -15 308 -4 q 210 -26 253 -26 q 86 15 132 -26 q 40 129 40 57 q 78 242 40 188 q 210 297 117 297 q 373 239 325 297 q 421 64 421 181 q 376 -119 421 -61 q 270 -195 332 -178 q 153 -212 208 -212 m 210 51 q 288 67 260 51 q 325 93 315 83 q 289 199 325 178 q 210 219 253 219 q 149 185 161 219 q 136 129 136 150 q 160 75 136 99 q 210 51 185 51 z "},"⁰":{"ha":524,"x_min":64,"x_max":457,"o":"m 261 635 q 114 699 164 635 q 64 890 64 764 q 114 1081 64 1017 q 261 1146 164 1146 q 408 1081 358 1146 q 457 890 457 1017 q 408 699 457 764 q 261 635 358 635 m 261 704 q 330 736 288 704 q 372 890 372 768 q 330 1044 372 1013 q 261 1076 288 1076 q 191 1044 233 1076 q 149 890 149 1013 q 191 736 149 768 q 261 704 233 704 z "},"¹":{"ha":325,"x_min":74,"x_max":226,"o":"m 132 643 l 132 1085 l 150 1028 l 74 978 l 74 1083 l 165 1142 l 226 1142 l 226 643 l 132 643 z "},"²":{"ha":456,"x_min":74,"x_max":388,"o":"m 74 643 l 74 690 q 165 772 117 722 q 249 878 214 821 q 285 992 285 936 q 260 1042 285 1021 q 194 1063 236 1063 q 129 1049 161 1063 q 79 1021 97 1035 l 79 1110 q 137 1136 103 1125 q 214 1147 171 1147 q 343 1103 306 1147 q 381 1008 381 1058 q 313 838 381 922 q 176 697 244 753 l 163 725 l 388 725 l 388 643 l 74 643 z "},"³":{"ha":449,"x_min":74,"x_max":390,"o":"m 207 638 q 133 647 167 638 q 74 668 100 656 l 74 754 q 129 731 97 742 q 200 721 161 721 q 267 738 236 721 q 297 799 297 756 q 266 852 297 836 q 197 868 235 868 l 143 868 l 143 947 l 200 947 q 247 961 224 947 q 271 1014 271 975 q 249 1049 271 1035 q 193 1063 228 1063 q 133 1055 160 1063 q 86 1036 106 1047 l 86 1122 q 137 1140 108 1133 q 200 1147 165 1147 q 328 1104 292 1147 q 365 1014 365 1061 q 333 935 365 958 q 301 913 301 913 q 355 876 319 900 q 390 785 390 853 q 372 716 390 750 q 315 660 354 682 q 207 638 275 638 z "},"⁴":{"ha":456,"x_min":40,"x_max":407,"o":"m 240 643 l 240 765 l 40 765 l 40 850 l 276 1142 l 336 1142 l 336 843 l 407 843 l 407 765 l 336 765 l 336 643 l 240 643 m 128 843 l 240 843 l 240 1046 l 310 1064 l 128 843 z "},"⁵":{"ha":443,"x_min":76,"x_max":389,"o":"m 231 638 q 146 647 181 638 q 88 668 111 656 l 88 751 q 135 729 103 742 q 206 717 167 717 q 294 785 294 717 q 261 857 294 842 q 196 872 228 872 q 135 860 160 872 q 110 849 110 849 l 76 911 l 101 1142 l 357 1142 l 357 1060 l 175 1060 l 161 940 q 201 949 181 946 q 250 953 221 953 q 339 924 289 953 q 389 796 389 894 q 337 667 389 697 q 231 638 285 638 z "},"⁶":{"ha":469,"x_min":36,"x_max":417,"o":"m 247 638 q 84 697 132 638 q 36 871 36 756 q 81 1055 36 996 q 188 1131 125 1114 q 306 1147 250 1147 q 344 1144 325 1147 q 378 1139 363 1142 l 378 1060 q 347 1067 364 1064 q 311 1069 331 1069 q 251 1061 289 1069 q 178 1024 213 1053 q 135 929 144 994 q 176 950 149 939 q 247 961 204 961 q 371 919 325 961 q 417 806 417 878 q 379 692 417 747 q 247 638 342 638 m 233 715 q 301 740 282 715 q 321 806 321 764 q 294 860 321 836 q 229 883 268 883 q 167 867 193 883 q 132 842 142 851 q 170 736 133 757 q 233 715 207 715 z "},"⁷":{"ha":438,"x_min":56,"x_max":394,"o":"m 106 643 l 325 1133 l 367 1060 l 56 1060 l 56 1142 l 394 1142 l 394 1090 l 193 643 l 106 643 z "},"⁸":{"ha":461,"x_min":60,"x_max":404,"o":"m 232 638 q 98 688 136 638 q 60 792 60 739 q 102 887 60 861 q 144 913 144 913 q 111 936 144 913 q 78 1019 78 960 q 113 1106 78 1065 q 232 1147 147 1147 q 351 1106 317 1147 q 385 1019 385 1065 q 353 935 385 958 q 321 913 321 913 q 363 886 321 913 q 404 792 404 860 q 365 688 404 739 q 232 638 326 638 m 232 717 q 292 740 275 717 q 308 792 308 763 q 285 856 308 836 q 232 876 261 876 q 178 856 201 876 q 156 792 156 836 q 176 740 156 763 q 232 717 197 717 m 232 947 q 276 967 263 947 q 290 1008 290 986 q 273 1055 290 1043 q 232 1067 256 1067 q 194 1054 214 1067 q 175 1007 175 1042 q 188 967 175 986 q 232 947 200 947 z "},"⁹":{"ha":469,"x_min":40,"x_max":421,"o":"m 153 638 q 79 647 115 638 l 79 725 q 111 718 94 721 q 146 715 128 715 q 206 724 167 715 q 279 762 244 732 q 322 856 314 792 q 281 835 308 846 q 210 824 253 824 q 86 865 132 824 q 40 979 40 907 q 78 1092 40 1038 q 210 1147 117 1147 q 373 1089 325 1147 q 421 914 421 1031 q 376 731 421 789 q 270 655 332 672 q 153 638 208 638 m 210 901 q 288 917 260 901 q 325 943 315 933 q 289 1049 325 1028 q 210 1069 253 1069 q 149 1035 161 1069 q 136 979 136 1000 q 160 925 136 949 q 210 901 185 901 z "},"⁄":{"ha":700,"x_min":0,"x_max":700,"o":"m 0 -31 l 607 951 l 700 951 l 93 -31 l 0 -31 z "},"½":{"ha":951,"x_min":74,"x_max":882,"o":"m 132 438 l 132 879 l 150 822 l 74 772 l 74 878 l 165 936 l 226 936 l 226 438 l 132 438 m 83 -31 l 690 951 l 783 951 l 176 -31 l 83 -31 m 568 1 l 568 49 q 660 130 611 81 q 744 237 708 179 q 779 350 779 294 q 755 400 779 379 q 689 421 731 421 q 624 407 656 421 q 574 379 592 393 l 574 468 q 631 494 597 483 q 708 506 665 506 q 838 461 800 506 q 875 367 875 417 q 807 196 875 281 q 671 56 739 111 l 657 83 l 882 83 l 882 1 l 568 1 z "},"⅓":{"ha":986,"x_min":74,"x_max":986,"o":"m 132 438 l 132 879 l 150 822 l 74 772 l 74 878 l 165 936 l 226 936 l 226 438 l 132 438 m 167 -31 l 774 951 l 867 951 l 260 -31 l 167 -31 m 803 -4 q 729 5 763 -4 q 669 26 696 14 l 669 113 q 725 90 693 100 q 796 79 757 79 q 863 97 832 79 q 893 157 893 114 q 862 210 893 194 q 793 226 831 226 l 739 226 l 739 306 l 796 306 q 843 319 819 306 q 867 372 867 333 q 845 407 867 393 q 789 421 824 421 q 728 413 756 421 q 682 394 701 406 l 682 481 q 733 499 704 492 q 796 506 761 506 q 924 463 888 506 q 961 372 961 419 q 929 294 961 317 q 897 271 897 271 q 951 235 915 258 q 986 143 986 211 q 968 74 986 108 q 910 18 950 40 q 803 -4 871 -4 z "},"¼":{"ha":1026,"x_min":74,"x_max":957,"o":"m 132 438 l 132 879 l 150 822 l 74 772 l 74 878 l 165 936 l 226 936 l 226 438 l 132 438 m 93 -31 l 700 951 l 793 951 l 186 -31 l 93 -31 m 790 1 l 790 124 l 590 124 l 590 208 l 826 500 l 886 500 l 886 201 l 957 201 l 957 124 l 886 124 l 886 1 l 790 1 m 678 201 l 790 201 l 790 404 l 860 422 l 678 201 z "},"¾":{"ha":1043,"x_min":74,"x_max":974,"o":"m 207 432 q 133 441 167 432 q 74 463 100 450 l 74 549 q 129 526 97 536 q 200 515 161 515 q 267 533 236 515 q 297 593 297 550 q 266 647 297 631 q 197 663 235 663 l 143 663 l 143 742 l 200 742 q 247 756 224 742 q 271 808 271 769 q 249 843 271 829 q 193 857 228 857 q 133 849 160 857 q 86 831 106 842 l 86 917 q 137 935 108 928 q 200 942 165 942 q 328 899 292 942 q 365 808 365 856 q 333 730 365 753 q 301 707 301 707 q 355 671 319 694 q 390 579 390 647 q 372 510 390 544 q 315 454 354 476 q 207 432 275 432 m 194 -31 l 801 951 l 894 951 l 288 -31 l 194 -31 m 807 1 l 807 124 l 607 124 l 607 208 l 843 500 l 903 500 l 903 201 l 974 201 l 974 124 l 903 124 l 903 1 l 807 1 m 694 201 l 807 201 l 807 404 l 876 422 l 694 201 z "},"⅛":{"ha":960,"x_min":74,"x_max":890,"o":"m 132 438 l 132 879 l 150 822 l 74 772 l 74 878 l 165 936 l 226 936 l 226 438 l 132 438 m 97 -31 l 704 951 l 797 951 l 190 -31 l 97 -31 m 718 -4 q 584 47 622 -4 q 546 150 546 97 q 588 245 546 219 q 631 271 631 271 q 597 294 631 271 q 564 378 564 318 q 599 465 564 424 q 718 506 633 506 q 837 465 803 506 q 871 378 871 424 q 839 294 871 317 q 807 271 807 271 q 849 244 807 271 q 890 150 890 218 q 851 47 890 97 q 718 -4 813 -4 m 718 75 q 778 98 761 75 q 794 150 794 121 q 771 215 794 194 q 718 235 747 235 q 665 215 688 235 q 642 150 642 194 q 663 98 642 121 q 718 75 683 75 m 718 306 q 763 325 749 306 q 776 367 776 344 q 759 413 776 401 q 718 425 742 425 q 681 413 700 425 q 661 365 661 400 q 674 325 661 344 q 718 306 686 306 z "},"⅜":{"ha":1057,"x_min":74,"x_max":988,"o":"m 207 432 q 133 441 167 432 q 74 463 100 450 l 74 549 q 129 526 97 536 q 200 515 161 515 q 267 533 236 515 q 297 593 297 550 q 266 647 297 631 q 197 663 235 663 l 143 663 l 143 742 l 200 742 q 247 756 224 742 q 271 808 271 769 q 249 843 271 829 q 193 857 228 857 q 133 849 160 857 q 86 831 106 842 l 86 917 q 137 935 108 928 q 200 942 165 942 q 328 899 292 942 q 365 808 365 856 q 333 730 365 753 q 301 707 301 707 q 355 671 319 694 q 390 579 390 647 q 372 510 390 544 q 315 454 354 476 q 207 432 275 432 m 194 -31 l 801 951 l 894 951 l 288 -31 l 194 -31 m 815 -4 q 681 47 719 -4 q 643 150 643 97 q 685 245 643 219 q 728 271 728 271 q 694 294 728 271 q 661 378 661 318 q 696 465 661 424 q 815 506 731 506 q 934 465 900 506 q 968 378 968 424 q 936 294 968 317 q 904 271 904 271 q 946 244 904 271 q 988 150 988 218 q 949 47 988 97 q 815 -4 910 -4 m 815 75 q 875 98 858 75 q 892 150 892 121 q 868 215 892 194 q 815 235 844 235 q 762 215 785 235 q 739 150 739 194 q 760 98 739 121 q 815 75 781 75 m 815 306 q 860 325 846 306 q 874 367 874 344 q 856 413 874 401 q 815 425 839 425 q 778 413 797 425 q 758 365 758 400 q 771 325 758 344 q 815 306 783 306 z "},"⅝":{"ha":1071,"x_min":76,"x_max":1001,"o":"m 231 432 q 146 441 181 432 q 88 463 111 450 l 88 546 q 135 524 103 536 q 206 511 167 511 q 294 579 294 511 q 261 651 294 636 q 196 667 228 667 q 135 655 160 667 q 110 643 110 643 l 76 706 l 101 936 l 357 936 l 357 854 l 175 854 l 161 735 q 201 744 181 740 q 250 747 221 747 q 339 718 289 747 q 389 590 389 689 q 337 462 389 492 q 231 432 285 432 m 208 -31 l 815 951 l 908 951 l 301 -31 l 208 -31 m 829 -4 q 695 47 733 -4 q 657 150 657 97 q 699 245 657 219 q 742 271 742 271 q 708 294 742 271 q 675 378 675 318 q 710 465 675 424 q 829 506 744 506 q 948 465 914 506 q 982 378 982 424 q 950 294 982 317 q 918 271 918 271 q 960 244 918 271 q 1001 150 1001 218 q 963 47 1001 97 q 829 -4 924 -4 m 829 75 q 889 98 872 75 q 906 150 906 121 q 882 215 906 194 q 829 235 858 235 q 776 215 799 235 q 753 150 753 194 q 774 98 753 121 q 829 75 794 75 m 829 306 q 874 325 860 306 q 888 367 888 344 q 870 413 888 401 q 829 425 853 425 q 792 413 811 425 q 772 365 772 400 q 785 325 772 344 q 829 306 797 306 z "},"⅞":{"ha":1043,"x_min":56,"x_max":974,"o":"m 106 438 l 325 928 l 367 854 l 56 854 l 56 936 l 394 936 l 394 885 l 193 438 l 106 438 m 153 -31 l 760 951 l 853 951 l 246 -31 l 153 -31 m 801 -4 q 667 47 706 -4 q 629 150 629 97 q 672 245 629 219 q 714 271 714 271 q 681 294 714 271 q 647 378 647 318 q 682 465 647 424 q 801 506 717 506 q 920 465 886 506 q 954 378 954 424 q 922 294 954 317 q 890 271 890 271 q 932 244 890 271 q 974 150 974 218 q 935 47 974 97 q 801 -4 896 -4 m 801 75 q 861 98 844 75 q 878 150 878 121 q 854 215 878 194 q 801 235 831 235 q 748 215 771 235 q 725 150 725 194 q 746 98 725 121 q 801 75 767 75 m 801 306 q 846 325 832 306 q 860 367 860 344 q 842 413 860 401 q 801 425 825 425 q 764 413 783 425 q 744 365 744 400 q 757 325 744 344 q 801 306 769 306 z "},"*":{"ha":571,"x_min":117,"x_max":451,"o":"m 246 639 l 260 764 l 154 688 l 117 754 l 238 807 l 117 861 l 154 925 l 260 850 l 246 976 l 321 976 l 310 850 l 414 925 l 451 861 l 332 807 l 451 754 l 414 688 l 310 764 l 321 639 l 246 639 z "},"\\":{"ha":511,"x_min":-51,"x_max":550,"o":"m 460 -136 l -51 1050 l 40 1050 l 550 -136 l 460 -136 z "},"·":{"ha":432,"x_min":161,"x_max":271,"o":"m 161 322 l 161 433 l 271 433 l 271 322 l 161 322 z "},"•":{"ha":576,"x_min":125,"x_max":446,"o":"m 286 303 q 172 350 219 303 q 125 464 125 397 q 172 577 125 531 q 286 624 219 624 q 399 577 351 624 q 446 464 446 531 q 399 350 446 397 q 286 303 351 303 z "},":":{"ha":543,"x_min":219,"x_max":331,"o":"m 219 511 l 219 622 l 331 622 l 331 511 l 219 511 m 219 67 l 219 178 l 331 178 l 331 67 l 219 67 z "},",":{"ha":435,"x_min":103,"x_max":319,"o":"m 103 -156 l 206 117 l 319 117 l 203 -156 l 103 -156 z "},"…":{"ha":1069,"x_min":149,"x_max":924,"o":"m 149 0 l 149 111 l 260 111 l 260 0 l 149 0 m 482 0 l 482 111 l 592 111 l 592 0 l 482 0 m 814 0 l 814 111 l 924 111 l 924 0 l 814 0 z "},"!":{"ha":517,"x_min":206,"x_max":317,"o":"m 221 233 l 211 926 l 311 926 l 301 233 l 221 233 m 206 0 l 206 111 l 317 111 l 317 0 l 206 0 z "},"¡":{"ha":503,"x_min":206,"x_max":317,"o":"m 211 -233 l 221 460 l 301 460 l 311 -233 l 211 -233 m 206 583 l 206 693 l 317 693 l 317 583 l 206 583 z "},"#":{"ha":821,"x_min":99,"x_max":732,"o":"m 186 26 l 213 175 l 99 175 l 99 258 l 226 258 l 264 479 l 138 479 l 138 563 l 279 563 l 307 726 l 392 726 l 364 563 l 547 563 l 576 726 l 661 726 l 632 563 l 732 563 l 732 479 l 618 479 l 579 258 l 692 258 l 692 175 l 565 175 l 540 26 l 456 26 l 481 175 l 297 175 l 271 26 l 186 26 m 311 258 l 494 258 l 533 479 l 349 479 l 311 258 z "},".":{"ha":361,"x_min":111,"x_max":250,"o":"m 111 0 l 111 139 l 250 139 l 250 0 l 111 0 z "},"?":{"ha":674,"x_min":111,"x_max":579,"o":"m 271 233 l 271 301 q 302 450 271 397 q 375 534 333 503 q 448 597 417 565 q 479 681 479 628 q 433 797 479 757 q 297 838 388 838 q 181 815 229 838 q 111 776 133 793 l 111 885 q 164 911 111 885 q 304 938 217 938 q 414 920 349 938 q 529 848 479 903 q 579 681 579 793 q 548 563 579 604 q 475 492 517 522 q 402 418 433 461 q 371 294 371 375 l 371 233 l 271 233 m 265 0 l 265 111 l 376 111 l 376 0 l 265 0 z "},"¿":{"ha":671,"x_min":100,"x_max":569,"o":"m 375 -244 q 265 -226 331 -244 q 150 -153 200 -208 q 100 14 100 -99 q 131 130 100 89 q 204 201 163 171 q 277 275 246 232 q 308 399 308 318 l 308 461 l 408 461 l 408 392 q 377 244 408 296 q 304 160 346 192 q 231 97 263 128 q 200 14 200 67 q 246 -103 200 -62 q 383 -144 292 -144 q 499 -122 450 -144 q 569 -83 547 -99 l 569 -192 q 516 -218 569 -192 q 375 -244 463 -244 m 303 583 l 303 693 l 414 693 l 414 583 l 303 583 z "},"\"":{"ha":529,"x_min":113,"x_max":414,"o":"m 322 660 l 299 939 l 414 939 l 389 660 l 322 660 m 138 660 l 113 939 l 228 939 l 204 660 l 138 660 z "},"'":{"ha":346,"x_min":113,"x_max":228,"o":"m 138 660 l 113 939 l 228 939 l 204 660 l 138 660 z "},";":{"ha":396,"x_min":56,"x_max":285,"o":"m 56 -156 l 144 117 l 272 117 l 156 -156 l 56 -156 m 146 483 l 146 622 l 285 622 l 285 483 l 146 483 z "},"/":{"ha":561,"x_min":-19,"x_max":582,"o":"m -19 -136 l 490 1050 l 582 1050 l 71 -136 l -19 -136 z "},"_":{"ha":758,"x_min":0,"x_max":758,"o":"m 0 -94 l 0 -33 l 758 -33 l 758 -94 l 0 -94 z "},"{":{"ha":518,"x_min":126,"x_max":433,"o":"m 422 -153 q 267 -99 321 -153 q 214 56 214 -46 l 214 272 q 184 342 214 319 q 126 374 154 365 l 126 442 q 184 472 154 449 q 214 542 214 494 l 214 758 q 267 914 214 860 q 422 968 321 968 l 433 968 l 433 874 l 422 874 q 342 851 371 872 q 314 765 314 831 l 314 542 q 292 464 314 497 q 233 407 269 431 q 292 350 269 383 q 314 272 314 317 l 314 49 q 342 -37 314 -15 q 422 -60 371 -58 l 433 -60 l 433 -153 l 422 -153 z "},"}":{"ha":511,"x_min":97,"x_max":401,"o":"m 97 -153 l 97 -60 l 106 -60 q 186 -37 158 -58 q 214 49 214 -15 l 214 272 q 238 350 214 317 q 296 407 261 383 q 238 464 261 431 q 214 542 214 497 l 214 765 q 186 851 214 831 q 106 874 158 872 l 97 874 l 97 968 l 106 968 q 260 914 207 968 q 314 758 314 860 l 314 542 q 344 472 314 494 q 401 442 374 449 l 401 374 q 344 342 374 365 q 314 272 314 319 l 314 56 q 260 -99 314 -46 q 106 -153 207 -153 l 97 -153 z "},"[":{"ha":532,"x_min":165,"x_max":417,"o":"m 165 -161 l 165 967 l 417 967 l 417 872 l 265 872 l 265 -67 l 417 -67 l 417 -161 l 165 -161 z "},"]":{"ha":529,"x_min":117,"x_max":367,"o":"m 117 -161 l 117 -67 l 267 -67 l 267 872 l 117 872 l 117 967 l 367 967 l 367 -161 l 117 -161 z "},"(":{"ha":479,"x_min":129,"x_max":389,"o":"m 283 -157 q 186 70 243 -83 q 129 424 129 224 q 186 779 129 625 q 283 1006 243 933 l 389 1006 q 333 896 372 978 q 262 692 294 814 q 229 424 229 571 q 262 156 229 278 q 333 -49 294 33 q 389 -157 372 -131 l 283 -157 z "},")":{"ha":479,"x_min":90,"x_max":351,"o":"m 90 -157 q 146 -47 107 -129 q 218 156 185 35 q 251 425 251 278 q 218 694 251 572 q 146 897 185 815 q 90 1006 107 978 l 197 1006 q 294 779 238 933 q 351 425 351 625 q 294 70 351 224 q 197 -157 238 -83 l 90 -157 z "},"—":{"ha":1238,"x_min":110,"x_max":1128,"o":"m 110 358 l 110 450 l 1128 450 l 1128 358 l 110 358 z "},"–":{"ha":778,"x_min":96,"x_max":679,"o":"m 96 358 l 96 444 l 679 444 l 679 358 l 96 358 z "},"-":{"ha":644,"x_min":110,"x_max":533,"o":"m 110 365 l 110 463 l 533 463 l 533 365 l 110 365 z "},"­":{"ha":833,"x_min":110,"x_max":533,"o":"m 110 365 l 110 463 l 533 463 l 533 365 l 110 365 z "},"«":{"ha":768,"x_min":43,"x_max":676,"o":"m 542 89 l 307 354 l 542 618 l 676 618 l 429 354 l 676 89 l 542 89 m 278 89 l 43 354 l 278 618 l 413 618 l 165 354 l 413 89 l 278 89 z "},"»":{"ha":768,"x_min":93,"x_max":726,"o":"m 357 89 l 603 354 l 357 618 l 490 618 l 726 354 l 490 89 l 357 89 m 93 89 l 339 354 l 93 618 l 226 618 l 463 354 l 226 89 l 93 89 z "},"‹":{"ha":482,"x_min":43,"x_max":413,"o":"m 278 89 l 43 354 l 278 618 l 413 618 l 165 354 l 413 89 l 278 89 z "},"›":{"ha":526,"x_min":93,"x_max":463,"o":"m 93 89 l 339 354 l 93 618 l 226 618 l 463 354 l 226 89 l 93 89 z "},"„":{"ha":606,"x_min":100,"x_max":506,"o":"m 289 -156 l 392 117 l 506 117 l 389 -156 l 289 -156 m 100 -156 l 203 117 l 315 117 l 200 -156 l 100 -156 z "},"“":{"ha":543,"x_min":65,"x_max":471,"o":"m 371 667 l 254 939 l 368 939 l 471 667 l 371 667 m 182 667 l 65 939 l 179 939 l 282 667 l 182 667 z "},"”":{"ha":538,"x_min":65,"x_max":471,"o":"m 254 667 l 357 939 l 471 939 l 354 667 l 254 667 m 65 667 l 168 939 l 282 939 l 165 667 l 65 667 z "},"‘":{"ha":354,"x_min":65,"x_max":282,"o":"m 182 667 l 65 939 l 179 939 l 282 667 l 182 667 z "},"’":{"ha":354,"x_min":65,"x_max":282,"o":"m 65 667 l 168 939 l 282 939 l 165 667 l 65 667 z "},"‚":{"ha":417,"x_min":100,"x_max":315,"o":"m 100 -156 l 203 117 l 315 117 l 200 -156 l 100 -156 z "}," ":{"ha":403,"x_min":0,"x_max":0,"o":""},"€":{"ha":943,"x_min":69,"x_max":869,"o":"m 588 -11 q 383 26 469 -11 q 244 135 297 63 q 171 317 192 208 l 69 317 l 69 400 l 161 400 q 159 431 160 415 q 158 464 158 447 q 159 497 158 481 q 161 528 160 513 l 69 528 l 69 611 l 171 611 q 244 792 192 719 q 383 902 297 865 q 588 939 469 939 q 731 925 661 939 q 869 885 801 911 l 869 789 q 738 831 806 817 q 599 844 669 844 q 379 788 458 844 q 272 611 300 731 l 718 611 l 718 528 l 261 528 q 259 497 260 513 q 258 464 258 481 q 259 431 258 447 q 261 400 260 414 l 718 400 l 718 317 l 272 317 q 379 140 300 197 q 599 83 458 83 q 738 97 669 83 q 869 138 806 111 l 869 42 q 731 2 801 15 q 588 -11 661 -11 z "},"₵":{"ha":864,"x_min":76,"x_max":788,"o":"m 442 889 l 442 1040 l 542 1040 l 542 889 l 442 889 m 442 -136 l 442 29 l 542 29 l 542 -136 l 442 -136 m 506 -11 q 184 108 292 -11 q 76 464 76 228 q 506 939 76 939 q 650 921 579 939 q 788 871 721 903 l 788 775 q 655 827 722 810 q 517 844 588 844 q 260 753 340 844 q 181 464 181 661 q 260 175 181 267 q 517 83 340 83 q 655 100 588 83 q 788 151 722 117 l 788 56 q 649 7 721 25 q 506 -11 578 -11 z "},"¢":{"ha":683,"x_min":76,"x_max":607,"o":"m 340 732 l 340 872 l 440 872 l 440 732 l 340 732 m 340 0 l 340 113 l 440 113 l 440 0 l 340 0 m 401 74 q 252 101 328 74 q 126 206 176 129 q 76 432 76 283 q 126 658 76 581 q 252 763 176 735 q 401 790 328 790 q 506 780 454 790 q 607 751 558 769 l 607 656 q 513 685 561 675 q 413 694 464 694 q 233 632 289 694 q 176 432 176 569 q 233 231 176 293 q 413 169 289 169 q 513 179 464 169 q 607 208 561 189 l 607 111 q 506 83 558 92 q 401 74 454 74 z "},"₡":{"ha":904,"x_min":83,"x_max":897,"o":"m 513 -11 q 191 108 299 -11 q 83 464 83 228 q 513 939 83 939 q 624 928 569 939 q 729 899 678 918 l 682 822 q 603 839 643 833 q 524 844 564 844 q 267 753 347 844 q 188 464 188 661 q 267 175 188 267 q 524 83 347 83 q 663 100 594 83 q 794 151 731 117 l 794 56 q 657 7 728 25 q 513 -11 586 -11 m 93 -31 l 656 903 l 729 899 l 172 -31 l 93 -31 m 292 -31 l 818 893 l 897 893 l 371 -31 l 292 -31 z "},"¤":{"ha":686,"x_min":69,"x_max":617,"o":"m 346 217 q 166 291 240 217 q 92 471 92 365 q 166 651 92 576 q 346 725 240 725 q 526 651 451 725 q 600 471 600 576 q 526 291 600 365 q 346 217 451 217 m 346 306 q 455 351 411 306 q 499 471 499 397 q 455 590 499 544 q 346 636 411 636 q 236 590 281 636 q 192 471 192 544 q 236 351 192 397 q 346 306 281 306 m 171 361 l 235 297 l 132 196 l 69 258 l 171 361 m 554 743 l 617 681 l 515 578 l 451 642 l 554 743 m 235 642 l 171 578 l 69 681 l 132 743 l 235 642 m 617 258 l 554 196 l 451 297 l 515 361 l 617 258 z "},"$":{"ha":771,"x_min":90,"x_max":688,"o":"m 349 893 l 349 1046 l 449 1046 l 449 893 l 349 893 m 349 -129 l 349 38 l 449 38 l 449 -129 l 349 -129 m 381 -14 q 217 8 275 -14 q 90 65 158 29 l 90 174 q 210 107 135 136 q 385 78 285 78 q 538 123 490 78 q 586 238 586 168 q 518 363 586 325 q 367 433 450 401 q 244 483 303 456 q 146 560 185 510 q 107 703 107 611 q 169 860 107 779 q 390 940 231 940 q 521 923 472 940 q 633 875 569 906 l 633 772 q 530 826 579 803 q 396 849 481 849 q 251 806 294 849 q 208 710 208 764 q 265 589 208 625 q 414 522 322 553 q 541 470 478 500 q 646 388 604 440 q 688 249 688 336 q 622 71 688 156 q 381 -14 557 -14 z "},"₫":{"ha":574,"x_min":54,"x_max":560,"o":"m 278 167 q 181 184 233 167 q 92 256 129 201 q 54 424 54 311 q 135 617 54 556 q 286 679 215 679 q 344 675 315 679 q 399 661 372 671 l 399 740 l 279 740 l 279 829 l 399 829 l 399 915 l 499 915 l 499 829 l 560 829 l 560 740 l 499 740 l 499 325 q 445 222 499 278 q 278 167 392 167 m 78 1 l 78 92 l 493 92 l 493 1 l 78 1 m 278 254 q 369 274 339 254 q 399 335 399 294 l 399 568 q 347 585 372 579 q 306 590 321 590 q 198 545 242 590 q 154 422 154 500 q 181 312 154 347 q 237 265 207 276 q 278 254 267 254 z "},"ƒ":{"ha":458,"x_min":14,"x_max":447,"o":"m 56 -169 q 34 -169 44 -169 q 14 -167 24 -169 l 14 -76 q 26 -78 19 -78 q 39 -78 32 -78 q 134 -58 86 -78 q 182 83 182 -37 l 182 601 l 61 601 l 61 693 l 182 693 l 182 706 q 226 886 182 833 q 324 949 271 939 q 406 960 378 960 q 427 959 417 960 q 447 957 438 958 l 447 867 q 435 867 442 867 q 422 868 428 868 q 327 848 375 868 q 279 707 279 828 l 279 693 l 447 693 l 447 601 l 279 601 l 279 85 q 235 -95 279 -42 q 137 -159 190 -149 q 56 -169 83 -169 z "},"₣":{"ha":749,"x_min":3,"x_max":686,"o":"m 118 0 l 118 926 l 686 926 l 686 832 l 218 832 l 218 513 l 629 513 l 629 415 l 218 415 l 218 0 l 118 0 m 3 154 l 3 228 l 342 228 l 342 154 l 3 154 z "},"₲":{"ha":954,"x_min":83,"x_max":836,"o":"m 442 889 l 442 1040 l 542 1040 l 542 889 l 442 889 m 442 -136 l 442 29 l 542 29 l 542 -136 l 442 -136 m 513 -14 q 191 107 299 -14 q 83 464 83 228 q 191 819 83 700 q 513 939 299 939 q 663 924 589 939 q 804 876 736 908 l 804 772 q 668 823 739 801 q 524 844 597 844 q 265 752 347 844 q 183 464 183 660 q 265 174 183 267 q 524 82 347 82 q 736 115 633 82 l 736 379 l 513 379 l 513 476 l 836 476 l 836 58 q 513 -14 686 -14 z "},"₭":{"ha":851,"x_min":25,"x_max":817,"o":"m 25 504 l 25 578 l 642 578 l 642 504 l 25 504 m 207 296 l 207 426 l 657 926 l 785 926 l 207 296 m 118 0 l 118 926 l 218 926 l 218 0 l 118 0 m 363 522 l 817 0 l 678 0 l 288 454 l 363 522 z "},"₤":{"ha":833,"x_min":71,"x_max":694,"o":"m 190 681 q 256 857 190 775 q 485 939 321 939 q 601 923 549 939 q 694 885 654 907 l 694 783 q 609 824 660 806 q 493 843 558 843 q 328 791 367 843 q 290 685 290 739 l 290 108 q 426 83 358 99 q 560 65 493 67 q 694 86 633 63 l 694 -15 q 632 -32 664 -26 q 569 -36 600 -37 q 401 -13 485 -35 q 231 11 317 8 q 151 6 192 13 q 71 -21 111 -1 l 71 81 q 131 101 101 94 q 190 111 160 108 l 190 681 m 71 288 l 71 379 l 569 379 l 569 288 l 71 288 m 71 446 l 71 538 l 569 538 l 569 446 l 71 446 z "},"₺":{"ha":747,"x_min":32,"x_max":650,"o":"m 379 83 q 518 100 450 83 q 650 151 586 117 l 650 56 q 513 7 583 25 q 368 -11 442 -11 q 118 50 217 -11 l 118 926 l 218 926 l 218 111 q 303 88 258 93 q 379 83 347 83 m 32 503 l 354 778 l 354 682 l 32 407 l 32 503 m 32 339 l 354 614 l 354 518 l 32 243 l 32 339 z "},"₼":{"ha":961,"x_min":118,"x_max":843,"o":"m 481 926 q 748 825 653 926 q 843 535 843 724 l 843 -14 l 743 -14 l 743 540 q 676 760 743 689 q 481 832 610 832 q 215 540 215 832 l 215 -14 l 118 -14 l 118 535 q 213 825 118 724 q 481 926 308 926 m 431 -3 l 431 1058 l 531 1058 l 531 -3 l 431 -3 z "},"₦":{"ha":1003,"x_min":11,"x_max":992,"o":"m 11 406 l 11 479 l 992 479 l 992 406 l 11 406 m 118 0 l 118 926 l 232 926 l 810 111 l 785 72 l 785 926 l 885 926 l 885 0 l 772 0 l 172 846 l 218 889 l 218 0 l 118 0 z "},"₧":{"ha":851,"x_min":28,"x_max":838,"o":"m 28 583 l 28 657 l 188 657 l 188 583 l 28 583 m 678 583 l 678 657 l 838 657 l 838 583 l 678 583 m 218 354 l 218 0 l 118 0 l 118 926 l 447 926 q 685 853 603 926 q 768 640 768 779 q 685 428 768 501 q 447 354 603 354 l 218 354 m 218 450 l 435 450 q 588 479 539 450 q 653 552 638 508 q 668 640 668 596 q 653 728 668 685 q 588 801 638 772 q 435 831 539 831 l 218 831 l 218 450 z "},"₱":{"ha":851,"x_min":28,"x_max":838,"o":"m 28 668 l 28 742 l 188 742 l 188 668 l 28 668 m 678 668 l 678 742 l 838 742 l 838 668 l 678 668 m 28 492 l 28 565 l 188 565 l 188 492 l 28 492 m 678 492 l 678 565 l 838 565 l 838 492 l 678 492 m 218 354 l 218 0 l 118 0 l 118 926 l 447 926 q 685 853 603 926 q 768 640 768 779 q 685 428 768 501 q 447 354 603 354 l 218 354 m 218 450 l 435 450 q 588 479 539 450 q 653 552 638 508 q 668 640 668 596 q 653 728 668 685 q 588 801 638 772 q 435 831 539 831 l 218 831 l 218 450 z "},"₽":{"ha":851,"x_min":22,"x_max":768,"o":"m 218 354 l 218 0 l 118 0 l 118 926 l 447 926 q 685 853 603 926 q 768 640 768 779 q 685 428 768 501 q 447 354 603 354 l 218 354 m 218 450 l 435 450 q 588 479 539 450 q 653 552 638 508 q 668 640 668 596 q 653 728 668 685 q 588 801 638 772 q 435 831 539 831 l 218 831 l 218 450 m 22 143 l 22 217 l 361 217 l 361 143 l 22 143 m 22 376 l 22 450 l 361 450 l 361 376 l 22 376 z "},"₹":{"ha":703,"x_min":90,"x_max":643,"o":"m 408 832 l 325 924 q 530 857 461 924 q 599 657 599 790 q 525 458 599 536 q 332 379 451 379 l 374 407 l 640 0 l 522 0 l 247 425 l 297 374 l 90 374 l 90 468 l 279 468 q 447 515 394 468 q 499 650 499 561 q 459 783 499 733 q 314 832 419 832 l 90 832 l 90 926 l 297 926 l 643 926 l 643 832 l 408 832 z "},"£":{"ha":771,"x_min":71,"x_max":694,"o":"m 190 681 q 256 857 190 775 q 485 939 321 939 q 601 923 549 939 q 694 885 654 907 l 694 783 q 609 824 660 806 q 493 843 558 843 q 328 791 367 843 q 290 685 290 739 l 290 108 q 492 71 392 94 q 694 86 593 47 l 694 -15 q 570 -37 632 -39 q 446 -23 508 -36 q 321 2 383 -10 q 196 12 258 14 q 71 -21 133 10 l 71 81 q 131 101 101 94 q 190 111 160 108 l 190 681 m 71 390 l 71 482 l 569 482 l 569 390 l 71 390 z "},"₩":{"ha":1321,"x_min":35,"x_max":1321,"o":"m 46 458 l 46 532 l 1257 532 l 1257 458 l 46 458 m 332 0 l 35 926 l 140 926 l 406 86 l 375 86 l 628 926 l 728 926 l 989 74 l 950 74 l 1215 926 l 1321 926 l 1022 0 l 921 0 l 661 821 l 694 821 l 435 0 l 332 0 z "},"¥":{"ha":836,"x_min":25,"x_max":817,"o":"m 371 0 l 371 192 l 153 192 l 153 275 l 371 275 l 371 406 l 153 406 l 153 489 l 326 489 l 25 926 l 147 926 l 421 528 l 694 926 l 817 926 l 515 489 l 689 489 l 689 406 l 471 406 l 471 275 l 689 275 l 689 192 l 471 192 l 471 0 l 371 0 z "},"∙":{"ha":432,"x_min":161,"x_max":271,"o":"m 161 322 l 161 433 l 271 433 l 271 322 l 161 322 z "},"∕":{"ha":700,"x_min":0,"x_max":700,"o":"m 0 -31 l 607 951 l 700 951 l 93 -31 l 0 -31 z "},"+":{"ha":765,"x_min":135,"x_max":628,"o":"m 340 169 l 340 374 l 135 374 l 135 457 l 340 457 l 340 663 l 424 663 l 424 457 l 628 457 l 628 374 l 424 374 l 424 169 l 340 169 z "},"−":{"ha":786,"x_min":111,"x_max":675,"o":"m 111 315 l 111 399 l 675 399 l 675 315 l 111 315 z "},"×":{"ha":668,"x_min":107,"x_max":567,"o":"m 107 108 l 292 356 l 107 603 l 196 603 l 336 415 l 478 603 l 567 603 l 382 356 l 567 108 l 478 108 l 336 296 l 196 108 l 107 108 z "},"÷":{"ha":872,"x_min":154,"x_max":718,"o":"m 154 315 l 154 399 l 718 399 l 718 315 l 154 315 m 381 103 l 381 214 l 492 214 l 492 103 l 381 103 m 381 499 l 381 610 l 492 610 l 492 499 l 381 499 z "},"=":{"ha":886,"x_min":176,"x_max":711,"o":"m 176 258 l 176 356 l 711 356 l 711 258 l 176 258 m 176 474 l 176 569 l 711 569 l 711 474 l 176 474 z "},"≠":{"ha":849,"x_min":157,"x_max":692,"o":"m 288 18 l 222 54 l 299 192 l 157 192 l 157 275 l 344 275 l 418 406 l 157 406 l 157 489 l 465 489 l 563 663 l 628 625 l 551 489 l 692 489 l 692 406 l 504 406 l 431 275 l 692 275 l 692 192 l 385 192 l 288 18 z "},">":{"ha":901,"x_min":183,"x_max":754,"o":"m 183 67 l 183 176 l 638 374 l 183 569 l 183 681 l 754 421 l 754 326 l 183 67 z "},"<":{"ha":917,"x_min":167,"x_max":739,"o":"m 739 67 l 167 326 l 167 421 l 739 681 l 739 569 l 283 374 l 739 176 l 739 67 z "},"≥":{"ha":789,"x_min":150,"x_max":636,"o":"m 150 332 l 150 417 l 518 571 l 150 724 l 150 810 l 636 607 l 636 533 l 150 332 m 150 201 l 150 281 l 636 281 l 636 201 l 150 201 z "},"≤":{"ha":789,"x_min":150,"x_max":636,"o":"m 636 332 l 150 533 l 150 607 l 636 810 l 636 724 l 267 571 l 636 417 l 636 332 m 150 201 l 150 281 l 636 281 l 636 201 l 150 201 z "},"±":{"ha":813,"x_min":157,"x_max":650,"o":"m 363 200 l 363 406 l 157 406 l 157 489 l 363 489 l 363 693 l 446 693 l 446 489 l 650 489 l 650 406 l 446 406 l 446 200 l 363 200 m 157 46 l 157 129 l 650 129 l 650 46 l 157 46 z "},"≈":{"ha":849,"x_min":139,"x_max":710,"o":"m 139 226 l 139 310 q 253 365 196 363 q 367 347 310 368 q 482 303 425 325 q 596 283 539 281 q 710 339 653 286 l 710 254 q 596 199 653 201 q 482 219 539 197 q 367 262 425 240 q 253 281 310 283 q 139 226 196 279 m 139 444 l 139 528 q 253 583 196 581 q 367 564 310 586 q 482 520 425 542 q 596 501 539 499 q 710 557 653 504 l 710 474 q 596 418 653 421 q 482 437 539 415 q 367 481 425 458 q 253 500 310 503 q 139 444 196 497 z "},"~":{"ha":694,"x_min":136,"x_max":558,"o":"m 136 321 l 136 406 q 220 460 178 458 q 305 441 263 463 q 390 398 347 419 q 474 378 432 376 q 558 433 517 381 l 558 350 q 474 294 517 297 q 390 314 432 292 q 305 358 347 336 q 220 376 263 379 q 136 321 178 374 z "},"¬":{"ha":864,"x_min":135,"x_max":729,"o":"m 638 219 l 638 358 l 135 358 l 135 450 l 729 450 l 729 219 l 638 219 z "},"∞":{"ha":1050,"x_min":79,"x_max":965,"o":"m 276 306 q 148 353 217 306 q 79 517 79 400 q 148 681 79 633 q 276 729 217 729 q 422 676 361 729 q 522 569 483 624 q 622 676 561 624 q 768 729 683 729 q 897 681 828 729 q 965 517 965 633 q 897 353 965 400 q 768 306 828 306 q 622 358 683 306 q 522 464 561 410 q 422 358 483 410 q 276 306 361 306 m 282 368 q 399 417 347 368 q 485 517 451 467 q 399 617 451 567 q 282 667 347 667 q 248 660 281 667 q 183 622 215 653 q 150 517 150 590 q 183 412 150 443 q 248 374 215 381 q 282 368 281 368 m 763 368 q 797 374 764 368 q 862 412 829 381 q 894 517 894 443 q 862 622 894 590 q 797 660 829 653 q 763 667 764 667 q 646 617 697 667 q 560 517 594 567 q 646 417 594 467 q 763 368 697 368 z "},"∫":{"ha":458,"x_min":14,"x_max":447,"o":"m 56 -169 q 34 -169 44 -169 q 14 -167 24 -169 l 14 -76 q 26 -78 19 -78 q 39 -78 32 -78 q 134 -58 86 -78 q 182 83 182 -37 l 182 706 q 226 886 182 833 q 324 949 271 939 q 406 960 378 960 q 427 959 417 960 q 447 957 438 958 l 447 867 q 435 867 442 867 q 422 868 428 868 q 327 848 375 868 q 279 707 279 828 l 279 85 q 235 -95 279 -42 q 137 -159 190 -149 q 56 -169 83 -169 z "},"∆":{"ha":1013,"x_min":38,"x_max":975,"o":"m 38 0 l 464 926 l 547 926 l 975 0 l 38 0 m 186 96 l 825 96 l 506 789 l 186 96 z "},"∏":{"ha":999,"x_min":46,"x_max":953,"o":"m 232 -183 l 232 626 l 46 626 l 46 718 l 953 718 l 953 626 l 767 626 l 767 -183 l 675 -183 l 675 626 l 324 626 l 324 -183 l 232 -183 z "},"∑":{"ha":781,"x_min":107,"x_max":689,"o":"m 107 0 l 107 100 l 339 463 l 107 826 l 107 926 l 689 926 l 689 835 l 210 835 l 449 463 l 210 90 l 689 90 l 689 0 l 107 0 z "},"√":{"ha":999,"x_min":131,"x_max":974,"o":"m 529 0 l 350 458 l 131 458 l 131 533 l 419 533 l 571 146 l 875 926 l 974 926 l 613 0 l 529 0 z "},"µ":{"ha":846,"x_min":138,"x_max":704,"o":"m 138 -292 l 138 693 l 238 693 l 238 243 q 267 141 238 193 q 422 89 297 89 q 523 97 476 89 q 604 115 569 106 l 604 693 l 704 693 l 704 57 q 647 33 689 49 q 544 3 604 17 q 413 -11 483 -11 q 285 17 332 -11 q 238 44 238 44 l 238 -292 l 138 -292 z "},"∂":{"ha":810,"x_min":90,"x_max":721,"o":"m 406 -11 q 219 37 289 -11 q 120 157 150 85 q 90 301 90 229 q 128 456 90 392 q 238 556 167 521 q 406 592 308 592 q 537 571 485 592 q 614 532 589 550 q 534 744 597 678 q 399 827 471 810 q 288 844 328 844 q 246 842 265 844 q 208 838 226 840 l 208 931 q 251 936 229 933 q 297 939 274 939 q 416 923 344 939 q 557 856 488 907 q 674 701 626 804 q 721 424 721 599 q 406 -11 721 -11 m 406 83 q 488 97 438 83 q 579 182 539 111 q 621 421 619 253 q 551 469 603 439 q 406 499 499 499 q 246 448 301 499 q 190 303 190 397 q 202 225 190 278 q 260 128 214 172 q 406 83 306 83 z "},"%":{"ha":1044,"x_min":64,"x_max":981,"o":"m 261 429 q 114 494 164 429 q 64 685 64 558 q 114 876 64 811 q 261 940 164 940 q 408 876 358 940 q 457 685 457 811 q 408 494 457 558 q 261 429 358 429 m 261 499 q 330 531 288 499 q 372 685 372 563 q 330 839 372 807 q 261 871 288 871 q 191 839 233 871 q 149 685 149 807 q 191 531 149 563 q 261 499 233 499 m 785 -7 q 638 58 688 -7 q 588 249 588 122 q 638 440 588 375 q 785 504 688 504 q 931 440 882 504 q 981 249 981 375 q 931 58 981 122 q 785 -7 882 -7 m 785 63 q 853 94 811 63 q 896 249 896 126 q 853 403 896 371 q 785 435 811 435 q 715 403 757 435 q 672 249 672 371 q 715 94 672 126 q 785 63 757 63 m 278 -31 l 885 951 l 978 951 l 371 -31 l 278 -31 z "},"‰":{"ha":1581,"x_min":64,"x_max":1517,"o":"m 261 429 q 114 494 164 429 q 64 685 64 558 q 114 876 64 811 q 261 940 164 940 q 408 876 358 940 q 457 685 457 811 q 408 494 457 558 q 261 429 358 429 m 261 499 q 330 531 288 499 q 372 685 372 563 q 330 839 372 807 q 261 871 288 871 q 191 839 233 871 q 149 685 149 807 q 191 531 149 563 q 261 499 233 499 m 854 -7 q 707 58 757 -7 q 657 249 657 122 q 707 440 657 375 q 854 504 757 504 q 1001 440 951 504 q 1050 249 1050 375 q 1001 58 1050 122 q 854 -7 951 -7 m 854 63 q 923 94 881 63 q 965 249 965 126 q 923 403 965 371 q 854 435 881 435 q 784 403 826 435 q 742 249 742 371 q 784 94 742 126 q 854 63 826 63 m 1321 -7 q 1174 58 1224 -7 q 1124 249 1124 122 q 1174 440 1124 375 q 1321 504 1224 504 q 1467 440 1418 504 q 1517 249 1517 375 q 1467 58 1517 122 q 1321 -7 1418 -7 m 1321 63 q 1390 94 1347 63 q 1432 249 1432 126 q 1390 403 1432 371 q 1321 435 1347 435 q 1251 403 1293 435 q 1208 249 1208 371 q 1251 94 1208 126 q 1321 63 1293 63 m 296 -31 l 903 951 l 996 951 l 389 -31 l 296 -31 z "},"◊":{"ha":883,"x_min":89,"x_max":794,"o":"m 442 -50 l 89 463 l 442 976 l 794 463 l 442 -50 m 442 79 l 706 463 l 442 847 l 178 463 l 442 79 z "},"@":{"ha":1268,"x_min":115,"x_max":1168,"o":"m 568 -207 q 370 -162 475 -207 q 190 -17 265 -117 q 115 251 115 83 q 206 556 115 424 q 433 762 296 688 q 710 836 569 836 q 906 792 799 836 q 1090 649 1013 747 q 1168 386 1168 550 q 1140 211 1168 289 q 1062 89 1113 133 q 942 44 1011 44 q 858 64 889 44 q 813 113 828 83 q 737 64 785 83 q 613 44 689 44 q 459 87 514 44 q 404 203 404 129 q 425 288 404 240 q 510 369 446 335 q 706 404 575 404 q 759 402 733 404 q 808 397 785 400 q 810 426 810 407 q 790 501 810 467 q 675 536 769 536 q 574 527 617 536 q 501 507 532 518 l 513 588 q 588 607 547 599 q 675 615 629 615 q 890 426 890 615 q 881 309 890 367 q 868 206 871 251 q 878 124 864 156 q 947 93 893 93 q 1058 164 1000 93 q 1115 382 1115 235 q 1052 608 1115 519 q 894 740 989 697 q 710 783 800 783 q 449 713 572 783 q 247 522 325 642 q 169 251 169 401 q 219 31 169 113 q 341 -92 269 -51 q 479 -144 413 -132 q 579 -157 546 -157 q 742 -140 671 -157 q 871 -89 813 -122 l 858 -151 q 725 -194 797 -181 q 568 -207 653 -207 m 613 125 q 740 156 704 125 q 784 231 776 186 q 797 318 792 275 q 753 322 776 321 q 706 324 731 324 q 485 203 485 324 q 527 140 485 154 q 613 125 569 125 z "},"&":{"ha":889,"x_min":75,"x_max":842,"o":"m 711 0 l 263 535 q 201 625 232 572 q 171 726 171 678 q 233 874 171 813 q 381 936 294 936 q 531 876 469 936 q 592 732 592 817 q 542 605 592 656 q 406 504 492 554 l 356 565 q 475 656 451 617 q 499 731 499 694 q 465 806 499 776 q 383 836 432 836 q 302 803 336 836 q 268 725 268 771 q 302 649 268 699 q 368 564 336 599 l 842 0 l 711 0 m 365 -11 q 196 34 260 -11 q 103 142 132 79 q 75 256 75 204 q 117 400 75 322 q 282 546 158 478 l 347 478 q 203 356 233 417 q 174 258 174 294 q 189 194 174 235 q 247 119 204 153 q 369 86 289 86 q 490 119 435 86 q 581 189 546 151 l 643 118 q 522 28 594 68 q 365 -11 450 -11 m 622 253 q 658 336 644 293 q 679 403 672 379 l 769 403 q 740 298 761 357 q 685 182 719 239 l 622 253 z "},"¶":{"ha":618,"x_min":53,"x_max":510,"o":"m 418 0 l 418 356 l 372 356 q 135 429 217 356 q 53 642 53 503 q 135 853 53 779 q 372 926 217 926 l 510 926 l 510 0 l 418 0 z "},"§":{"ha":754,"x_min":81,"x_max":683,"o":"m 326 -11 q 190 3 250 -11 q 89 39 131 18 l 89 142 q 179 103 122 121 q 319 85 236 85 q 394 90 349 85 q 476 116 440 96 q 513 178 513 136 q 485 243 513 214 q 332 301 458 272 q 155 363 229 325 q 81 493 81 400 q 121 596 81 561 q 207 644 161 631 q 167 682 183 658 q 151 742 151 706 q 178 834 151 789 q 265 909 204 879 q 429 939 326 939 q 541 926 490 939 q 631 897 592 914 l 631 799 q 549 831 597 817 q 438 846 500 846 q 319 830 386 846 q 251 757 251 814 q 273 707 251 736 q 425 647 294 678 q 601 581 519 625 q 683 426 683 538 q 666 361 683 389 q 622 314 649 333 q 564 285 594 294 q 598 242 583 268 q 613 178 613 215 q 537 39 613 89 q 326 -11 461 -11 m 504 349 q 560 376 536 358 q 583 426 583 394 q 556 491 583 461 q 403 550 528 521 q 341 565 371 557 q 283 583 311 574 q 213 556 244 576 q 181 493 181 536 q 203 452 181 475 q 356 399 225 429 q 433 378 394 390 q 504 349 471 367 z "},"©":{"ha":1081,"x_min":67,"x_max":1017,"o":"m 542 -11 q 303 53 411 -11 q 131 224 196 117 q 67 463 67 332 q 131 702 67 594 q 303 874 196 810 q 542 938 411 938 q 781 874 672 938 q 953 702 889 810 q 1017 463 1017 594 q 953 224 1017 332 q 781 53 889 117 q 542 -11 672 -11 m 554 186 q 415 217 471 186 q 332 309 360 247 q 304 463 304 371 q 332 617 304 556 q 415 709 360 678 q 554 740 471 740 q 639 733 597 740 q 719 710 681 725 l 719 654 q 561 685 646 685 q 410 631 458 685 q 363 463 363 578 q 410 294 363 347 q 561 240 458 240 q 719 272 643 240 l 719 217 q 639 194 681 201 q 554 186 597 186 m 542 38 q 755 95 658 38 q 909 249 851 153 q 967 463 967 346 q 909 677 967 581 q 755 831 851 774 q 542 889 658 889 q 328 831 425 889 q 174 677 232 774 q 117 463 117 581 q 174 249 117 346 q 328 95 232 153 q 542 38 425 38 z "},"®":{"ha":1081,"x_min":67,"x_max":1017,"o":"m 542 -11 q 303 53 411 -11 q 131 224 196 117 q 67 463 67 332 q 131 702 67 594 q 303 874 196 810 q 542 938 411 938 q 781 874 672 938 q 953 702 889 810 q 1017 463 1017 594 q 953 224 1017 332 q 781 53 889 117 q 542 -11 672 -11 m 542 38 q 755 95 658 38 q 909 249 851 153 q 967 463 967 346 q 909 677 967 581 q 755 831 851 774 q 542 889 658 889 q 328 831 425 889 q 174 677 232 774 q 117 463 117 581 q 174 249 117 346 q 328 95 232 153 q 542 38 425 38 m 369 192 l 369 733 l 568 733 q 704 694 656 733 q 753 576 753 654 q 726 481 753 514 q 670 435 700 449 q 628 419 640 422 l 776 192 l 707 192 l 567 411 l 428 411 l 428 192 l 369 192 m 428 467 l 565 467 q 672 501 650 467 q 693 572 693 535 q 672 644 693 610 q 565 678 650 678 l 428 678 l 428 467 z "},"":{"ha":1081,"x_min":67,"x_max":1017,"o":"m 542 -11 q 303 53 411 -11 q 131 225 196 117 q 67 464 67 333 q 131 702 67 594 q 303 874 196 810 q 542 938 411 938 q 781 874 672 938 q 953 702 889 810 q 1017 464 1017 594 q 953 225 1017 333 q 781 53 889 117 q 542 -11 672 -11 m 542 39 q 755 97 658 39 q 909 251 851 154 q 967 464 967 347 q 909 677 967 581 q 755 831 851 774 q 542 889 658 889 q 328 831 425 889 q 174 677 232 774 q 117 464 117 581 q 174 251 117 347 q 328 97 232 154 q 542 39 425 39 m 379 193 l 379 733 l 572 733 q 760 567 760 733 q 711 442 760 486 q 572 399 663 399 l 438 399 l 438 193 l 379 193 m 438 456 l 564 456 q 677 492 654 456 q 700 567 700 528 q 677 642 700 606 q 564 678 654 678 l 438 678 l 438 456 z "},"™":{"ha":1051,"x_min":68,"x_max":944,"o":"m 517 464 l 517 926 l 571 926 l 731 692 l 890 926 l 944 926 l 944 464 l 894 464 l 894 844 l 731 608 l 567 844 l 567 464 l 517 464 m 232 464 l 232 878 l 68 878 l 68 926 l 446 926 l 446 878 l 282 878 l 282 464 l 232 464 z "},"°":{"ha":538,"x_min":114,"x_max":417,"o":"m 265 621 q 114 775 114 621 q 265 929 114 929 q 417 775 417 929 q 265 621 417 621 m 265 671 q 367 775 367 671 q 265 879 367 879 q 164 775 164 879 q 265 671 164 671 z "},"|":{"ha":615,"x_min":257,"x_max":357,"o":"m 257 -137 l 257 924 l 357 924 l 357 -137 l 257 -137 z "},"¦":{"ha":615,"x_min":257,"x_max":357,"o":"m 357 304 l 357 -137 l 257 -137 l 257 304 l 357 304 m 257 482 l 257 924 l 357 924 l 357 482 l 257 482 z "},"†":{"ha":642,"x_min":131,"x_max":513,"o":"m 289 135 l 289 672 l 131 672 l 131 739 l 289 739 l 289 926 l 356 926 l 356 739 l 513 739 l 513 672 l 356 672 l 356 135 l 289 135 z "},"‡":{"ha":686,"x_min":94,"x_max":588,"o":"m 300 0 l 300 204 l 94 204 l 94 288 l 300 288 l 300 568 l 94 568 l 94 651 l 300 651 l 300 856 l 383 856 l 383 651 l 588 651 l 588 568 l 383 568 l 383 288 l 588 288 l 588 204 l 383 204 l 383 0 l 300 0 z "},"№":{"ha":1475,"x_min":121,"x_max":1386,"o":"m 121 0 l 121 926 l 232 926 l 708 165 l 708 926 l 808 926 l 808 0 l 699 0 l 221 764 l 221 0 l 121 0 m 933 83 l 933 176 l 1379 176 l 1379 83 l 933 83 m 1156 243 q 985 308 1044 243 q 926 494 926 372 q 985 682 926 617 q 1156 747 1044 747 q 1326 682 1267 747 q 1386 494 1386 617 q 1326 308 1386 372 q 1156 243 1267 243 m 1156 333 q 1249 361 1208 333 q 1290 494 1290 389 q 1249 629 1290 601 q 1156 657 1208 657 q 1063 629 1103 657 q 1022 494 1022 601 q 1063 361 1022 389 q 1156 333 1103 333 z "},"^":{"ha":778,"x_min":186,"x_max":551,"o":"m 186 657 l 331 958 l 407 958 l 551 657 l 468 657 l 369 878 l 269 657 l 186 657 z "},"℠":{"ha":985,"x_min":79,"x_max":886,"o":"m 458 464 l 458 926 l 513 926 l 672 690 l 832 926 l 886 926 l 886 464 l 836 464 l 836 844 l 672 608 l 508 844 l 508 464 l 458 464 m 219 458 q 142 468 175 458 q 83 492 108 478 l 83 546 q 137 519 104 531 q 217 508 169 508 q 296 522 257 508 q 335 582 335 536 q 296 653 335 632 q 207 685 257 674 q 118 722 157 697 q 79 804 79 746 q 115 892 79 851 q 239 933 150 933 q 304 925 275 933 q 356 906 333 917 l 356 854 q 308 874 336 864 q 244 883 281 883 q 159 863 189 883 q 129 804 129 843 q 168 751 129 767 q 257 721 207 735 q 346 678 307 707 q 385 582 385 649 q 341 491 385 524 q 219 458 297 458 z "},"̈":{"ha":535,"x_min":110,"x_max":425,"o":"m 315 783 l 315 893 l 425 893 l 425 783 l 315 783 m 110 783 l 110 893 l 219 893 l 219 783 l 110 783 z "},"̇":{"ha":449,"x_min":174,"x_max":283,"o":"m 174 783 l 174 893 l 283 893 l 283 783 l 174 783 z "},"̀":{"ha":304,"x_min":64,"x_max":244,"o":"m 179 783 l 64 943 l 165 943 l 244 783 l 179 783 z "},"́":{"ha":328,"x_min":83,"x_max":265,"o":"m 83 783 l 163 943 l 265 943 l 150 783 l 83 783 z "},"̋":{"ha":514,"x_min":83,"x_max":432,"o":"m 250 783 l 329 943 l 432 943 l 317 783 l 250 783 m 83 783 l 163 943 l 265 943 l 150 783 l 83 783 z "},"̂":{"ha":558,"x_min":126,"x_max":435,"o":"m 126 783 l 239 950 l 324 950 l 435 783 l 371 783 l 281 881 l 190 783 l 126 783 z "},"̌":{"ha":564,"x_min":140,"x_max":421,"o":"m 253 783 l 140 950 l 218 950 l 281 853 l 343 950 l 421 950 l 310 783 l 253 783 z "},"̆":{"ha":594,"x_min":113,"x_max":488,"o":"m 300 757 q 181 797 232 757 q 113 915 131 838 l 185 915 q 229 851 200 874 q 300 829 258 829 q 370 851 342 829 q 415 915 399 874 l 488 915 q 421 797 472 838 q 300 757 369 757 z "},"̊":{"ha":568,"x_min":133,"x_max":414,"o":"m 274 743 q 165 774 197 743 q 133 871 133 806 q 165 967 133 936 q 274 999 197 999 q 414 871 414 999 q 274 743 414 743 m 274 803 q 333 819 317 803 q 349 871 349 835 q 333 922 349 907 q 274 938 317 938 q 213 922 229 938 q 197 871 197 907 q 213 819 197 835 q 274 803 229 803 z "},"̃":{"ha":543,"x_min":56,"x_max":482,"o":"m 139 756 l 75 756 q 94 870 56 829 q 176 911 132 911 q 254 889 222 911 q 313 845 286 867 q 365 824 339 824 q 399 890 414 824 l 471 890 q 449 788 482 831 q 354 746 417 746 q 282 767 314 746 q 224 810 250 789 q 175 832 197 832 q 144 814 157 832 q 139 756 131 796 z "},"̄":{"ha":560,"x_min":119,"x_max":444,"o":"m 119 800 l 119 874 l 444 874 l 444 800 l 119 800 z "},"̉":{"ha":326,"x_min":78,"x_max":249,"o":"m 129 781 l 129 853 q 182 886 182 854 q 115 922 182 922 q 78 919 100 922 l 78 979 q 99 982 89 981 q 121 983 110 983 q 206 964 164 983 q 249 889 249 944 q 175 814 249 828 l 175 781 l 129 781 z "},"̏":{"ha":471,"x_min":64,"x_max":431,"o":"m 179 783 l 64 943 l 165 943 l 244 783 l 179 783 m 365 783 l 250 943 l 351 943 l 431 783 l 365 783 z "},"̑":{"ha":594,"x_min":113,"x_max":488,"o":"m 300 901 q 181 861 232 901 q 113 743 131 821 l 185 743 q 229 807 200 785 q 300 829 258 829 q 370 807 342 829 q 415 743 399 785 l 488 743 q 421 861 472 821 q 300 901 369 901 z "},"̛":{"ha":474,"x_min":149,"x_max":326,"o":"m 151 589 l 149 661 q 219 689 188 661 q 251 756 251 717 l 251 792 l 326 792 l 326 753 q 273 632 326 675 q 151 589 219 589 z "},"̣":{"ha":249,"x_min":69,"x_max":179,"o":"m 69 -179 l 69 -69 l 179 -69 l 179 -179 l 69 -179 z "},"̤":{"ha":535,"x_min":110,"x_max":425,"o":"m 315 -168 l 315 -58 l 425 -58 l 425 -168 l 315 -168 m 110 -168 l 110 -58 l 219 -58 l 219 -168 l 110 -168 z "},"":{"ha":372,"x_min":115,"x_max":254,"o":"m 115 -268 l 115 -193 q 163 -138 154 -178 q 171 -68 171 -99 l 254 -68 q 208 -213 254 -168 q 115 -268 161 -258 z "},"̦":{"ha":372,"x_min":115,"x_max":254,"o":"m 115 -268 l 115 -193 q 163 -138 154 -178 q 171 -68 171 -99 l 254 -68 q 208 -213 254 -168 q 115 -268 161 -258 z "},"̧":{"ha":351,"x_min":78,"x_max":271,"o":"m 78 -167 l 192 -7 l 271 -7 l 183 -167 l 78 -167 z "},"̨":{"ha":482,"x_min":122,"x_max":332,"o":"m 244 -240 q 122 -125 122 -240 q 148 -53 122 -90 q 224 6 174 -15 l 332 0 q 240 -57 276 -26 q 204 -118 204 -87 q 216 -154 204 -143 q 251 -165 228 -165 q 299 -151 278 -165 q 328 -128 319 -136 l 328 -215 q 291 -233 311 -225 q 244 -240 271 -240 z "},"̮":{"ha":594,"x_min":113,"x_max":488,"o":"m 300 -194 q 181 -154 232 -194 q 113 -36 131 -114 l 185 -36 q 229 -100 200 -78 q 300 -122 258 -122 q 370 -100 342 -122 q 415 -36 399 -78 l 488 -36 q 421 -154 472 -114 q 300 -194 369 -194 z "},"̱":{"ha":560,"x_min":119,"x_max":444,"o":"m 119 -165 l 119 -92 l 444 -92 l 444 -165 l 119 -165 z "},"̵":{"ha":533,"x_min":111,"x_max":450,"o":"m 111 326 l 111 400 l 450 400 l 450 326 l 111 326 z "},"ˉ":{"ha":560,"x_min":119,"x_max":444,"o":"m 119 800 l 119 874 l 444 874 l 444 800 l 119 800 z "}}}
